# Blender v2.83.1 OBJ File: 'World_Nature.blend'
# www.blender.org
o Mball.002_Mesh.004
v 0.764614 0.980234 -1.308828
v 0.139270 1.006355 -1.794478
v 0.433110 0.458151 -1.888809
v 0.237320 1.364295 -1.231897
v 1.182550 0.510932 -0.776347
v 1.123291 0.262697 -1.251644
v 0.797409 1.154312 -0.821394
v 0.365026 1.455443 -0.581827
v 0.870612 1.073915 -0.298106
v 1.201378 0.467531 -0.247354
v 0.221680 1.356383 0.079462
v 0.748038 1.008401 0.102913
v 0.281633 0.952500 0.542714
v 0.415290 0.540970 0.879102
v -0.440392 0.555357 1.000077
v 1.526153 -0.196193 0.636049
v 0.707319 0.258057 1.351092
v 0.284794 0.251137 1.863759
v -0.225147 0.225877 1.913145
v -0.680209 0.045698 2.026557
v 0.037130 -0.050097 2.434897
v -0.660044 -0.451399 2.415743
v 0.820719 0.009368 2.041179
v 0.718793 -0.445659 2.422869
v 0.037130 -0.459661 2.613847
v 0.028069 -0.878275 2.423003
v 0.059903 -1.172566 1.945103
v -0.739845 -0.937206 2.040748
v 0.810851 -0.935147 2.043525
v 1.153442 -0.874043 1.493659
v 1.196559 -0.473664 1.945103
v 0.683309 -1.184377 1.294114
v 0.038831 -1.288955 1.280822
v 0.274728 -1.037797 0.115648
v 0.842956 -0.999778 0.405298
v 1.184922 -0.859579 0.602403
v 1.383893 -0.617403 0.801038
v 1.670478 -0.939806 -0.238541
v 1.104218 -0.960701 -0.988296
v 2.094845 -0.601111 -0.122427
v 1.650993 -0.885758 -0.810513
v 1.538918 -0.621846 -1.320381
v 2.077331 -0.597973 -0.758202
v 2.106719 -0.319232 -0.793573
v 1.665000 -0.177295 -1.292909
v 2.142236 -0.315680 -0.106094
v 1.842611 0.019029 -0.837247
v 1.997990 -0.040792 -0.161228
v 0.605788 -0.106636 -1.705235
v -0.442282 0.273863 -2.093237
v 0.398597 -0.704727 -1.370902
v -0.093577 -0.347285 -1.787685
v -0.701820 -0.264149 -1.814582
v -0.586815 -0.666107 -1.375077
v -0.565768 -0.853823 -0.608971
v -1.158376 -0.488332 -1.277830
v -1.580355 0.078997 -1.270553
v -1.193983 0.225335 -1.787132
v -1.310468 -0.541061 -0.832799
v -1.776397 0.262637 -0.791604
v -1.612359 -0.166502 -0.282798
v -1.058078 -0.721701 -0.000892
v -1.086543 -0.897331 1.382025
v -0.575869 -1.200664 1.216111
v -1.335938 -0.447046 0.135387
v -1.207521 -0.364556 1.756051
v -1.204000 -0.665120 1.687049
v -1.201888 0.016113 1.040225
v -1.704518 0.433021 -0.091910
v -1.121895 0.251956 0.800723
v -1.103773 0.743764 0.547522
v -1.246593 1.050497 0.190950
v -0.471505 1.086939 0.600347
v -0.454273 1.431721 0.109964
v -0.396094 1.565744 -0.328970
v -1.087115 1.363765 -0.348689
v -1.567744 0.946336 -0.315092
v -0.847018 1.487612 -0.793541
v -0.213588 1.499911 -1.146531
v -0.674126 1.391686 -1.273811
v -1.550277 0.993268 -0.795104
v -1.184880 1.018900 -1.507469
v -1.564437 0.702346 -1.244530
v -0.667055 1.035563 -1.768352
v -0.191945 0.688736 -2.018246
v -0.201066 -1.096969 0.322333
v 1.361013 -0.476980 1.452851
v 1.311781 -0.186323 1.050062
v 1.159161 -0.050052 1.496819
vt 0.384715 0.127405
vt 0.384715 0.127405
vt 0.384715 0.127405
vt 0.384715 0.127405
vt 0.384715 0.127405
vt 0.384715 0.127405
vt 0.384715 0.127405
vt 0.384715 0.127405
vt 0.384715 0.127405
vt 0.384715 0.127405
vt 0.384715 0.127405
vt 0.384715 0.127405
vt 0.384715 0.127405
vt 0.384715 0.127405
vt 0.384715 0.127405
vt 0.384715 0.127405
vt 0.384715 0.127405
vt 0.384715 0.127405
vt 0.384715 0.127405
vt 0.384715 0.127405
vt 0.384715 0.127405
vt 0.384715 0.127405
vt 0.384715 0.127405
vt 0.384715 0.127405
vt 0.384715 0.127405
vt 0.384715 0.127405
vt 0.384715 0.127405
vt 0.384715 0.127405
vt 0.384715 0.127405
vt 0.384715 0.127405
vt 0.384715 0.127405
vt 0.384715 0.127405
vt 0.384715 0.127405
vt 0.384715 0.127405
vt 0.384715 0.127405
vt 0.384715 0.127405
vt 0.384715 0.127405
vt 0.384715 0.127405
vt 0.384715 0.127405
vt 0.384715 0.127405
vt 0.384715 0.127405
vt 0.384715 0.127405
vt 0.384715 0.127405
vt 0.384715 0.127405
vt 0.384715 0.127405
vt 0.384715 0.127405
vt 0.384715 0.127405
vt 0.384715 0.127405
vt 0.384715 0.127405
vt 0.384715 0.127405
vt 0.384715 0.127405
vt 0.384715 0.127405
vt 0.384715 0.127405
vt 0.384715 0.127405
vt 0.384715 0.127405
vt 0.384715 0.127405
vt 0.384715 0.127405
vt 0.384715 0.127405
vt 0.384715 0.127405
vt 0.384715 0.127405
vt 0.384715 0.127405
vt 0.384715 0.127405
vt 0.384715 0.127405
vt 0.384715 0.127405
vt 0.384715 0.127405
vt 0.384715 0.127405
vt 0.384715 0.127405
vt 0.384715 0.127405
vt 0.384715 0.127405
vt 0.384715 0.127405
vt 0.384715 0.127405
vt 0.384715 0.127405
vt 0.384715 0.127405
vt 0.384715 0.127405
vt 0.384715 0.127405
vt 0.384715 0.127405
vt 0.384715 0.127405
vt 0.384715 0.127405
vt 0.384715 0.127405
vt 0.384715 0.127405
vt 0.384715 0.127405
vt 0.384715 0.127405
vt 0.384715 0.127405
vt 0.384715 0.127405
vt 0.384715 0.127405
vt 0.384715 0.127405
vt 0.384715 0.127405
vt 0.384715 0.127405
vt 0.384715 0.127405
vn 0.5662 0.4250 -0.7062
vn 0.4452 0.7183 -0.5346
vn 0.6920 0.2933 -0.6596
vn 0.5277 0.7881 -0.3169
vn 0.8419 0.4878 -0.2309
vn 0.8580 0.4036 -0.3177
vn 0.4761 0.8532 -0.2132
vn 0.5866 0.8088 0.0422
vn 0.8586 0.5110 -0.0416
vn 0.4990 0.8346 0.2332
vn 0.8776 0.4794 0.0081
vn 0.8178 0.4735 0.3273
vn 0.5188 0.8042 0.2900
vn 0.4407 0.7041 0.5568
vn 0.4834 0.6428 0.5943
vn 0.7872 0.3175 0.5287
vn 0.1170 0.6510 0.7500
vn 0.0619 0.9434 0.3258
vn 0.5682 0.8117 0.1350
vn 0.5700 0.7437 0.3493
vn 0.3581 0.8818 0.3070
vn -0.0204 0.9598 0.2798
vn -0.2567 0.8882 0.3810
vn 0.0014 0.8843 0.4670
vn -0.1934 0.8238 0.5329
vn -0.2477 0.3879 0.8878
vn -0.3481 0.5691 0.7450
vn 0.2002 0.8281 0.5236
vn 0.3379 0.5593 0.7570
vn 0.2412 0.3886 0.8893
vn -0.2553 -0.3965 0.8818
vn 0.2543 -0.4057 0.8779
vn 0.1936 -0.8296 0.5237
vn -0.1873 -0.8420 0.5060
vn -0.3421 -0.5383 0.7702
vn 0.3362 -0.5366 0.7740
vn 0.6387 -0.3927 0.6617
vn 0.4780 -0.8546 0.2029
vn 0.7426 -0.5347 0.4033
vn 0.2590 -0.9289 0.2648
vn 0.1612 -0.9710 -0.1767
vn 0.1546 -0.9740 0.1657
vn 0.1539 -0.9726 -0.1743
vn 0.4302 -0.8962 -0.1089
vn 0.5492 -0.8357 0.0058
vn 0.2502 -0.9395 0.2341
vn 0.5203 -0.7645 0.3805
vn 0.8331 -0.5481 0.0741
vn 0.0689 -0.9976 -0.0043
vn 0.1665 -0.9811 -0.0984
vn 0.0647 -0.9977 -0.0211
vn 0.6366 -0.7654 -0.0940
vn 0.2725 -0.8287 -0.4889
vn 0.5308 -0.6994 -0.4787
vn 0.5610 -0.8276 -0.0195
vn 0.9899 -0.1361 -0.0396
vn 0.7161 -0.1617 -0.6790
vn 0.7160 -0.1611 -0.6792
vn 0.7157 0.4953 -0.4924
vn 0.8884 0.4565 -0.0483
vn 0.7897 0.6000 -0.1284
vn 0.4548 0.7843 0.4220
vn 0.5411 0.8395 -0.0501
vn 0.7124 0.4771 0.5146
vn 0.5996 0.7991 0.0442
vn 0.5074 0.7363 -0.4478
vn 0.5223 0.6901 -0.5009
vn 0.7465 -0.1609 0.6456
vn 0.3433 0.4974 -0.7967
vn 0.3598 -0.0445 -0.9320
vn 0.0749 -0.5062 -0.8592
vn 0.2660 -0.2235 -0.9377
vn 0.2211 -0.3277 -0.9185
vn 0.2795 -0.5404 -0.7936
vn 0.6726 -0.0346 -0.7392
vn -0.0222 -0.4513 -0.8921
vn -0.0726 -0.7454 -0.6627
vn -0.0277 -0.7747 -0.6317
vn -0.3297 -0.7380 -0.5887
vn -0.3224 -0.9212 -0.2178
vn -0.0370 -0.9708 -0.2369
vn -0.7604 -0.5614 -0.3264
vn -0.6392 -0.4676 -0.6105
vn -0.5410 -0.5063 -0.6716
vn -0.3621 -0.9276 -0.0916
vn -0.8571 -0.4885 -0.1635
vn -0.8600 -0.4915 -0.1373
vn -0.7236 -0.6866 0.0704
vn -0.7053 -0.7089 -0.0094
vn -0.5351 -0.8366 -0.1173
vn -0.8083 -0.5867 -0.0502
vn -0.4454 -0.8792 -0.1695
vn -0.9865 0.1475 0.0707
vn -0.9963 -0.0301 0.0805
vn -0.8687 -0.3767 0.3215
vn -0.7113 0.6049 0.3581
vn -0.6799 0.6496 0.3401
vn -0.9167 -0.2421 0.3178
vn -0.5409 0.6826 0.4915
vn -0.4237 0.4269 0.7989
vn -0.7632 0.3178 0.5626
vn -0.4605 0.8332 0.3061
vn -0.3908 0.6146 0.6852
vn -0.7636 0.3057 0.5688
vn -0.3601 0.5471 0.7556
vn 0.1668 0.5988 0.7833
vn 0.1828 0.7527 0.6325
vn 0.1162 0.8106 0.5740
vn -0.3205 0.7802 0.5373
vn -0.2784 0.9283 0.2465
vn 0.1698 0.9573 0.2339
vn -0.3685 0.8471 0.3829
vn -0.6260 0.7404 0.2448
vn -0.6104 0.7917 -0.0238
vn -0.2817 0.9528 0.1132
vn -0.1564 0.9562 -0.2473
vn -0.0729 0.9927 -0.0962
vn -0.4540 0.8281 -0.3288
vn -0.5555 0.7910 -0.2565
vn -0.4032 0.2824 -0.8704
vn -0.6834 0.2496 -0.6860
vn -0.7314 0.5828 -0.3542
vn -0.3065 0.7704 -0.5591
vn 0.0094 0.7979 -0.6027
vn -0.0291 0.8110 -0.5844
vn -0.0054 0.5797 -0.8148
vn -0.2503 0.3164 -0.9150
vn 0.2183 0.0445 -0.9749
vn 0.3031 0.3171 -0.8987
vn -0.9193 0.0398 -0.3916
vn -0.8061 0.0452 -0.5901
vn -0.9434 0.2912 -0.1588
vn -0.9592 0.2825 0.0147
vn 0.1264 0.9906 -0.0515
vn 0.1437 0.8234 -0.5489
vn 0.2513 0.9505 -0.1826
vn -0.8082 0.4023 0.4301
vn -0.9695 -0.1959 0.1473
vn -0.6401 -0.7099 0.2939
vn -0.7704 -0.1512 0.6194
vn -0.6903 -0.3676 0.6231
vn -0.6585 0.4472 0.6053
vn -0.1731 -0.9674 -0.1848
vn -0.1232 -0.9785 -0.1652
vn -0.1580 -0.9718 0.1753
vn -0.4560 -0.8701 0.1873
vn -0.2457 -0.9365 0.2503
vn 0.0090 -0.9667 -0.2559
vn 0.0330 -0.9784 -0.2042
vn -0.3438 -0.2957 -0.8912
vn -0.0949 -0.9856 -0.1401
vn -0.1405 -0.9229 -0.3584
vn 0.0836 -0.7501 -0.6560
vn 0.7923 -0.0289 0.6095
vn 0.9862 0.1656 -0.0011
vn 0.8807 -0.1177 0.4588
vn 0.6599 0.6771 0.3256
vn 0.8960 0.4048 0.1826
vn 0.5742 0.8170 -0.0530
vn 0.8763 0.3845 0.2902
vn 0.7562 0.5059 0.4150
vn 0.5003 0.8375 0.2196
vn 0.8600 -0.4198 0.2901
vn 0.6629 0.3884 0.6401
vn 0.3184 0.9073 0.2746
s off
f 3/1/1 2/2/1 1/3/1
f 1/3/2 2/2/2 4/4/2
f 1/3/3 6/5/3 3/1/3
f 1/3/4 4/4/4 7/6/4
f 7/6/5 5/7/5 1/3/5
f 6/5/6 1/3/6 5/7/6
f 4/4/7 8/8/7 7/6/7
f 7/6/8 8/8/8 9/9/8
f 7/6/9 9/9/9 5/7/9
f 9/9/10 8/8/10 11/10/10
f 5/7/11 9/9/11 10/11/11
f 9/9/12 12/12/12 10/11/12
f 12/12/13 9/9/13 11/10/13
f 13/13/14 12/12/14 11/10/14
f 12/12/15 13/13/15 14/14/15
f 10/11/16 12/12/16 14/14/16
f 14/14/17 13/13/17 15/15/17
f 14/14/18 15/15/18 19/16/18
f 16/17/19 14/14/19 17/18/19
f 16/17/20 10/11/20 14/14/20
f 17/18/21 14/14/21 18/19/21
f 18/19/22 14/14/22 19/16/22
f 19/16/23 15/15/23 20/20/23
f 21/21/24 18/19/24 19/16/24
f 20/20/25 21/21/25 19/16/25
f 22/22/26 25/23/26 21/21/26
f 21/21/27 20/20/27 22/22/27
f 23/24/28 18/19/28 21/21/28
f 23/24/29 21/21/29 24/25/29
f 25/23/30 24/25/30 21/21/30
f 25/23/31 22/22/31 26/26/31
f 24/25/32 25/23/32 26/26/32
f 29/27/33 26/26/33 27/28/33
f 26/26/34 28/29/34 27/28/34
f 22/22/35 28/29/35 26/26/35
f 29/27/36 24/25/36 26/26/36
f 31/30/37 24/25/37 29/27/37
f 32/31/38 30/32/38 29/27/38
f 29/27/39 30/32/39 31/30/39
f 32/31/40 29/27/40 27/28/40
f 34/33/41 32/31/41 33/34/41
f 32/31/42 27/28/42 33/34/42
f 35/35/43 32/31/43 34/33/43
f 35/35/44 36/36/44 32/31/44
f 32/31/45 36/36/45 30/32/45
f 38/37/46 36/36/46 35/35/46
f 37/38/47 36/36/47 38/37/47 40/39/47
f 87/40/48 30/32/48 36/36/48 37/38/48
f 38/37/49 35/35/49 34/33/49
f 39/41/50 41/42/50 38/37/50
f 39/41/51 38/37/51 34/33/51
f 38/37/52 41/42/52 40/39/52
f 41/42/53 39/41/53 42/43/53
f 43/44/54 41/42/54 42/43/54
f 41/42/55 43/44/55 40/39/55
f 43/44/56 44/45/56 46/46/56 40/39/56
f 43/44/57 42/43/57 44/45/57
f 45/47/58 44/45/58 42/43/58
f 47/48/59 44/45/59 45/47/59
f 46/46/60 44/45/60 48/49/60
f 47/48/61 48/49/61 44/45/61
f 48/49/62 10/11/62 16/17/62
f 48/49/63 47/48/63 10/11/63
f 46/46/64 48/49/64 16/17/64
f 47/48/65 5/7/65 10/11/65
f 47/48/66 6/5/66 5/7/66
f 47/48/67 45/47/67 6/5/67
f 46/46/68 16/17/68 40/39/68
f 6/5/69 45/47/69 49/50/69
f 49/50/70 45/47/70 42/43/70
f 49/50/71 42/43/71 51/51/71
f 3/1/72 49/50/72 50/52/72
f 50/52/73 49/50/73 52/53/73
f 49/50/74 51/51/74 52/53/74
f 3/1/75 6/5/75 49/50/75
f 53/54/76 50/52/76 52/53/76
f 52/53/77 54/55/77 53/54/77
f 51/51/78 54/55/78 52/53/78
f 54/55/79 56/56/79 53/54/79
f 55/57/80 59/58/80 56/56/80 54/55/80
f 54/55/81 51/51/81 55/57/81
f 56/56/82 59/58/82 57/59/82
f 57/59/83 58/60/83 56/56/83
f 53/54/84 56/56/84 58/60/84
f 55/57/85 62/61/85 59/58/85
f 60/62/86 57/59/86 59/58/86
f 60/62/87 59/58/87 61/63/87
f 59/58/88 62/61/88 61/63/88
f 65/64/89 61/63/89 62/61/89
f 63/65/90 62/61/90 64/66/90
f 62/61/91 63/65/91 67/67/91 65/64/91
f 62/61/92 55/57/92 64/66/92
f 68/68/93 65/64/93 66/69/93
f 66/69/94 65/64/94 67/67/94
f 68/68/95 61/63/95 65/64/95
f 20/20/96 70/70/96 68/68/96
f 20/20/97 68/68/97 66/69/97
f 61/63/98 68/68/98 69/71/98
f 70/70/99 69/71/99 68/68/99
f 15/15/100 71/72/100 70/70/100
f 71/72/101 69/71/101 70/70/101
f 15/15/102 70/70/102 20/20/102
f 73/73/103 72/74/103 71/72/103
f 69/71/104 71/72/104 72/74/104
f 73/73/105 71/72/105 15/15/105
f 15/15/106 13/13/106 73/73/106
f 13/13/107 11/10/107 73/73/107
f 11/10/108 74/75/108 73/73/108
f 73/73/109 74/75/109 72/74/109
f 75/76/110 76/77/110 74/75/110
f 75/76/111 74/75/111 11/10/111 8/8/111
f 76/77/112 72/74/112 74/75/112
f 77/78/113 72/74/113 76/77/113
f 76/77/114 78/79/114 81/80/114 77/78/114
f 78/79/115 76/77/115 75/76/115
f 79/81/116 80/82/116 78/79/116
f 75/76/117 79/81/117 78/79/117
f 78/79/118 80/82/118 82/83/118
f 82/83/119 81/80/119 78/79/119
f 82/83/120 84/84/120 50/52/120 58/60/120
f 58/60/121 83/85/121 82/83/121
f 82/83/122 83/85/122 81/80/122
f 80/82/123 84/84/123 82/83/123
f 79/81/124 2/2/124 84/84/124
f 80/82/125 79/81/125 84/84/125
f 85/86/126 84/84/126 2/2/126
f 85/86/127 50/52/127 84/84/127
f 85/86/128 3/1/128 50/52/128
f 85/86/129 2/2/129 3/1/129
f 60/62/130 83/85/130 57/59/130
f 58/60/131 57/59/131 83/85/131
f 60/62/132 81/80/132 83/85/132
f 69/71/133 77/78/133 81/80/133 60/62/133
f 8/8/134 79/81/134 75/76/134
f 4/4/135 2/2/135 79/81/135
f 8/8/136 4/4/136 79/81/136
f 72/74/137 77/78/137 69/71/137
f 69/71/138 60/62/138 61/63/138
f 28/29/139 67/67/139 63/65/139
f 66/69/140 67/67/140 22/22/140
f 22/22/141 67/67/141 28/29/141
f 20/20/142 66/69/142 22/22/142
f 55/57/143 86/87/143 64/66/143
f 64/66/144 86/87/144 33/34/144
f 27/28/145 64/66/145 33/34/145
f 63/65/146 64/66/146 28/29/146
f 27/28/147 28/29/147 64/66/147
f 34/33/148 86/87/148 55/57/148
f 34/33/149 33/34/149 86/87/149
f 58/60/150 50/52/150 53/54/150
f 55/57/151 39/41/151 34/33/151
f 55/57/152 51/51/152 39/41/152
f 42/43/153 39/41/153 51/51/153
f 16/17/154 37/38/154 40/39/154
f 37/38/155 88/88/155 87/40/155
f 37/38/156 16/17/156 88/88/156
f 17/18/157 88/88/157 16/17/157
f 88/88/158 89/89/158 87/40/158
f 89/89/159 88/88/159 17/18/159
f 31/30/160 87/40/160 89/89/160
f 23/24/161 31/30/161 89/89/161
f 89/89/162 17/18/162 23/24/162
f 87/40/163 31/30/163 30/32/163
f 23/24/164 24/25/164 31/30/164
f 23/24/165 17/18/165 18/19/165
