# Blender v2.83.1 OBJ File: 'World_Nature.blend'
# www.blender.org
o Mball.009_Mesh.002
v 0.627369 1.266646 -1.142012
v 0.739528 1.469797 -0.559942
v 0.653860 1.488165 0.133317
v 1.194672 1.073692 -0.067624
v 1.045059 1.050928 0.325391
v 1.339653 0.238832 0.260185
v 1.204266 -0.208706 -0.355858
v 1.433720 -0.507527 0.669853
v 1.048005 -0.590467 -0.312204
v 0.647395 -0.900467 -0.332341
v 1.171804 0.051737 -0.773398
v 1.242515 0.685250 -0.617316
v 1.129740 1.045604 -0.793439
v 0.956260 0.313456 -1.312163
v 1.098231 -0.061211 -1.794633
v 0.576802 0.457793 -1.558660
v 0.153445 0.485421 -1.679721
v 0.171269 1.023905 -1.441545
v -0.376138 0.598117 -1.493471
v -0.379640 1.323758 -1.135659
v 0.144098 1.434025 -1.067669
v -0.093410 1.637146 -0.550578
v -0.107422 1.629508 -0.062472
v 0.139955 1.464485 0.458940
v -0.087868 1.119114 0.883514
v -0.098899 0.757097 1.253288
v -0.100698 0.324480 2.009330
v -0.549290 -0.023868 2.233176
v 0.357733 -0.022496 2.247540
v 0.014753 -0.485478 2.356757
v -0.073452 -0.993288 1.891380
v 0.009644 -1.249204 0.605612
v -0.287474 -1.003730 -0.307480
v 0.116696 -1.010001 -0.340357
v -0.331421 -1.003780 -1.817332
v 0.146212 -1.045150 -1.746693
v 0.144022 -0.833587 -2.294278
v -0.359402 -0.625021 -2.419038
v 0.165884 -0.439225 -2.608674
v -0.531047 -0.314577 -2.443038
v -0.085075 0.037960 -2.431822
v -0.325021 0.278638 -1.908837
v -0.767294 0.329388 -1.301515
v -0.838845 1.006173 -1.066334
v -0.775962 1.377446 -0.528219
v -0.881568 1.324421 -0.105185
v -0.605888 1.368314 0.364997
v -1.275869 0.472834 0.199328
v -1.311631 0.233727 -0.106261
v -1.620263 -0.247354 0.701459
v -1.122316 0.937490 -0.593433
v -1.016598 0.115933 -0.932082
v -1.123331 -0.422698 -0.508344
v -0.733929 -0.853064 -0.396969
v -0.725799 -0.861351 -1.453328
v -0.928808 -0.633427 -1.862917
v -1.024683 -0.337821 -1.786361
v -0.797258 -0.022352 -1.968391
v -1.382628 -0.637946 0.239690
v -1.255803 -0.896584 0.565017
v -1.578442 -0.478900 1.149968
v -1.220514 -0.865376 1.271682
v -0.567248 -1.150680 1.308496
v -0.591659 -1.190085 0.542320
v -1.217173 -0.577924 1.746816
v -0.791911 -0.889899 1.774600
v -1.266089 -0.139755 1.782387
v -0.614262 -0.496170 2.257643
v -1.355533 0.132332 1.351307
v -1.158725 0.517925 0.652605
v -0.801498 0.622380 1.058865
v -0.833360 0.273837 1.798631
v 0.617221 -0.606281 -2.386388
v 0.644004 -0.177775 -2.450411
v 1.148826 -0.673920 -1.659616
v 1.188936 -0.333976 -1.872632
v 0.749099 -0.949316 -1.446800
v 0.644564 -0.896991 -1.958612
v 0.573076 -1.152947 0.648114
v 0.376729 -1.158733 1.316924
v 1.051973 -0.869862 1.280374
v 1.118382 -0.893661 0.651313
v 1.382056 -0.448408 1.286265
v 1.384061 -0.072583 1.172724
v 1.059027 -0.034369 1.759393
v 1.093797 -0.477530 1.793245
v 1.085539 0.443256 0.916333
v 0.638045 1.056992 0.729377
v 0.620024 0.352551 1.682435
v 0.629395 -0.432280 2.180514
v 0.626824 -0.889089 1.783410
vt 0.390246 0.155060
vt 0.390246 0.155060
vt 0.390246 0.155060
vt 0.390246 0.155060
vt 0.390246 0.155060
vt 0.390246 0.155060
vt 0.390246 0.155060
vt 0.390246 0.155060
vt 0.390246 0.155060
vt 0.390246 0.155060
vt 0.390246 0.155060
vt 0.390246 0.155060
vt 0.390246 0.155060
vt 0.390246 0.155060
vt 0.390246 0.155060
vt 0.390246 0.155060
vt 0.390246 0.155060
vt 0.390246 0.155060
vt 0.390246 0.155060
vt 0.390246 0.155060
vt 0.390246 0.155060
vt 0.390246 0.155060
vt 0.390246 0.155060
vt 0.390246 0.155060
vt 0.390246 0.155060
vt 0.390246 0.155060
vt 0.390246 0.155060
vt 0.390246 0.155060
vt 0.390246 0.155060
vt 0.390246 0.155060
vt 0.390246 0.155060
vt 0.390246 0.155060
vt 0.390246 0.155060
vt 0.390246 0.155060
vt 0.390246 0.155060
vt 0.390246 0.155060
vt 0.390246 0.155060
vt 0.390246 0.155060
vt 0.390246 0.155060
vt 0.390246 0.155060
vt 0.390246 0.155060
vt 0.390246 0.155060
vt 0.390246 0.155060
vt 0.390246 0.155060
vt 0.390246 0.155060
vt 0.390246 0.155060
vt 0.390246 0.155060
vt 0.390246 0.155060
vt 0.390246 0.155060
vt 0.390246 0.155060
vt 0.390246 0.155060
vt 0.390246 0.155060
vt 0.390246 0.155060
vt 0.390246 0.155060
vt 0.390246 0.155060
vt 0.390246 0.155060
vt 0.390246 0.155060
vt 0.390246 0.155060
vt 0.390246 0.155060
vt 0.390246 0.155060
vt 0.390246 0.155060
vt 0.390246 0.155060
vt 0.390246 0.155060
vt 0.390246 0.155060
vt 0.390246 0.155060
vt 0.390246 0.155060
vt 0.390246 0.155060
vt 0.390246 0.155060
vt 0.390246 0.155060
vt 0.390246 0.155060
vt 0.390246 0.155060
vt 0.390246 0.155060
vt 0.390246 0.155060
vt 0.390246 0.155060
vt 0.390246 0.155060
vt 0.390246 0.155060
vt 0.390246 0.155060
vt 0.390246 0.155060
vt 0.390246 0.155060
vt 0.390246 0.155060
vt 0.390246 0.155060
vt 0.390246 0.155060
vt 0.390246 0.155060
vt 0.390246 0.155060
vt 0.390246 0.155060
vt 0.390246 0.155060
vt 0.390246 0.155060
vt 0.390246 0.155060
vt 0.390246 0.155060
vt 0.390246 0.155060
vt 0.390246 0.155060
vn 0.6476 0.7057 0.2874
vn 0.8677 -0.3904 -0.3078
vn 0.7565 -0.6060 -0.2459
vn 0.9252 -0.3682 0.0920
vn 0.9266 -0.0108 -0.3759
vn 0.8189 -0.0239 -0.5734
vn 0.6314 0.3236 -0.7048
vn 0.2771 0.3810 -0.8821
vn -0.2271 0.4002 -0.8878
vn -0.2499 0.4273 -0.8689
vn -0.1643 0.9153 0.3677
vn -0.0140 0.5533 0.8329
vn -0.1057 -0.6618 0.7422
vn -0.0106 -0.9631 0.2690
vn -0.0096 -0.9913 0.1311
vn -0.0155 -0.9999 0.0005
vn -0.2171 -0.8306 -0.5128
vn -0.2624 -0.2177 -0.9401
vn -0.6425 0.5671 -0.5153
vn -0.5483 0.2222 -0.8062
vn -0.8491 0.0911 -0.5204
vn -0.7141 0.6124 -0.3391
vn -0.7723 0.6249 -0.1145
vn -0.9289 0.3365 -0.1545
vn -0.9647 -0.0157 -0.2630
vn -0.7819 0.2292 -0.5797
vn -0.8129 0.5294 -0.2427
vn -0.5867 -0.7296 -0.3513
vn -0.4024 -0.9135 0.0604
vn -0.4018 -0.9138 0.0598
vn -0.5510 -0.7123 0.4348
vn -0.8574 -0.1360 0.4964
vn -0.7394 -0.5738 0.3523
vn -0.9368 0.2674 0.2254
vn -0.5488 0.7876 0.2801
vn -0.6037 0.6116 0.5113
vn -0.3981 -0.8810 -0.2558
vn -0.9539 -0.2854 -0.0926
vn -0.9874 0.1432 -0.0667
vn -0.6759 0.5892 0.4428
vn -0.9735 0.2210 -0.0590
vn 0.1229 -0.9256 -0.3581
vn 0.1804 -0.9582 -0.2219
vn 0.2000 -0.9524 -0.2301
vn 0.3957 -0.9152 0.0764
vn 0.4259 -0.8971 0.1173
vn 0.9965 0.0194 0.0817
vn 0.8701 0.1383 0.4731
vn 0.8618 0.1055 0.4961
vn 0.7190 0.5948 0.3596
vn 0.6431 0.6100 0.4630
vn 0.5728 0.5908 0.5682
vn 0.4488 0.6344 0.6294
vn 0.5574 0.2395 0.7950
vn 0.6429 0.1084 0.7583
vn 0.7257 -0.5737 0.3797
vn -0.2526 -0.9223 -0.2927
vn -0.1945 -0.8930 0.4059
vn 0.2095 -0.6802 0.7025
vn -0.2111 -0.7182 0.6630
vn -0.1804 0.8927 0.4129
vn 0.1882 0.8522 0.4881
vn -0.2906 0.8308 0.4747
vn 0.0961 0.7996 0.5928
vn -0.3135 0.6832 0.6595
vn -0.3697 0.9199 0.1309
vn -0.3546 0.9346 0.0286
vn -0.3668 0.9303 0.0040
vn 0.1209 0.6731 -0.7296
vn -0.0476 0.7889 -0.6127
vn 0.3348 0.4149 -0.8460
vn 0.9866 0.1605 -0.0276
vn 0.8512 0.3940 0.3468
vn 0.1803 0.9173 -0.3549
vn 0.8703 0.4787 -0.1156
vn 0.5171 0.6869 0.5106
vn 0.1488 -0.6215 -0.7692
vn 0.2056 0.6962 0.6877
vn -0.8916 0.4442 0.0876
vn -0.3197 0.6889 0.6505
vn -0.9161 0.2248 0.3319
vn 0.5026 0.7215 -0.4763
vn 0.5777 -0.6575 -0.4837
vn 0.4880 -0.8526 -0.1868
vn 0.2231 0.8017 -0.5546
vn 0.2096 0.8097 -0.5482
vn 0.0914 0.3880 -0.9171
vn 0.2709 -0.7880 -0.5528
vn -0.4075 0.7441 -0.5294
vn -0.4411 -0.7686 -0.4633
vn -0.5024 -0.8370 -0.2168
vn 0.9864 -0.0739 -0.1468
vn 0.9236 0.2680 0.2742
vn 0.5564 0.7153 0.4228
vn 0.5800 -0.6692 0.4646
vn 0.2736 0.0241 0.9615
vn -0.5422 0.1177 0.8319
vn 0.5757 0.7311 -0.3661
vn 0.9761 0.0038 -0.2173
vn 0.5857 0.5892 -0.5566
vn -0.0453 0.6714 -0.7397
vn -0.1354 0.8994 -0.4155
vn -0.1751 0.8077 0.5631
vn -0.0157 0.2406 0.9705
vn -0.7921 0.5399 0.2849
vn -0.0896 -0.9957 0.0230
vn -0.0275 -0.9325 -0.3602
vn -0.0630 -0.6200 -0.7821
vn -0.1796 0.2574 -0.9495
vn -0.1511 0.8699 -0.4696
vn -0.8598 0.0961 -0.5015
vn -0.7427 -0.6696 -0.0016
vn -0.9197 -0.0238 -0.3918
vn 0.7125 -0.2920 -0.6380
vn -0.7934 -0.1019 -0.6001
vn -0.6365 -0.4028 -0.6578
vn -0.6220 -0.6684 -0.4079
vn -0.9231 -0.1368 -0.3594
vn -0.9061 -0.4044 -0.1243
vn -0.8450 -0.5272 -0.0897
vn -0.6302 -0.1325 0.7650
vn -0.4746 -0.5887 0.6544
vn -0.3963 -0.8693 0.2954
vn -0.7424 -0.6666 0.0665
vn -0.8542 0.5180 0.0453
vn -0.5112 0.7858 0.3482
vn -0.5151 0.5119 0.6875
vn -0.8398 0.5170 0.1656
vn 0.3879 -0.1599 -0.9077
vn 0.1672 -0.9851 0.0415
vn -0.3269 -0.9450 0.0076
vn 0.7743 -0.6223 0.1148
vn 0.9798 0.1929 -0.0524
vn 0.4912 -0.5730 0.6560
vn 0.3892 -0.8724 0.2956
vn 0.4220 -0.8852 -0.1959
vn 0.1653 -0.9854 0.0400
vn -0.1034 -0.9932 0.0544
vn 0.1958 -0.8908 0.4100
vn 0.2634 -0.6337 0.7273
vn -0.1564 0.0725 0.9850
vn 0.2489 0.7498 0.6131
vn -0.2368 0.7224 0.6497
vn -0.3474 0.8867 -0.3050
vn -0.4029 0.4032 -0.8216
vn 0.6654 0.7463 -0.0147
vn 0.9931 -0.1174 -0.0003
vn 0.8225 0.5493 0.1474
vn 0.1142 0.9615 0.2501
vn 0.2859 0.9293 -0.2337
vn 0.1893 0.9819 0.0071
vn 0.9624 0.2543 -0.0959
vn 0.9846 -0.1036 -0.1411
vn 0.6022 -0.7930 0.0922
vn -0.5572 0.7125 -0.4265
vn 0.7180 0.4014 -0.5687
vn 0.5442 0.7326 -0.4088
vn 0.2640 0.7362 0.6232
vn 0.2250 -0.9636 -0.1445
vn -0.4673 0.6115 -0.6385
vn -0.4566 0.7952 -0.3989
vn -0.8479 0.4714 -0.2424
vn -0.9262 -0.0358 -0.3753
vn 0.5962 -0.7523 -0.2803
vn 0.9926 0.1213 -0.0069
vn -0.0557 -0.9686 -0.2423
s off
f 3/1/1 5/2/1 4/3/1
f 7/4/2 8/5/2 9/6/2
f 9/6/3 8/5/3 82/7/3
f 75/8/4 7/4/4 9/6/4
f 11/9/5 14/10/5 12/11/5
f 12/11/6 16/12/6 13/13/6
f 1/14/7 13/13/7 16/12/7
f 16/12/8 17/15/8 18/16/8
f 17/15/9 19/17/9 18/16/9
f 20/18/10 18/16/10 19/17/10
f 24/19/11 23/20/11 47/21/11
f 29/22/12 27/23/12 28/24/12
f 31/25/13 30/26/13 68/27/13
f 80/28/14 31/25/14 63/29/14
f 32/30/15 80/28/15 63/29/15
f 35/31/16 34/32/16 33/33/16
f 37/34/17 35/31/17 38/35/17
f 40/36/18 39/37/18 38/35/18
f 19/17/19 42/38/19 43/39/19
f 44/40/20 19/17/20 43/39/20
f 52/41/21 44/40/21 43/39/21
f 44/40/22 51/42/22 45/43/22
f 51/42/23 46/44/23 45/43/23
f 48/45/24 49/46/24 50/47/24
f 51/42/25 52/41/25 53/48/25
f 57/49/26 58/50/26 40/36/26
f 58/50/27 52/41/27 43/39/27
f 54/51/28 60/52/28 59/53/28
f 63/29/29 62/54/29 60/52/29
f 64/55/30 63/29/30 60/52/30
f 66/56/31 65/57/31 62/54/31
f 67/58/32 61/59/32 65/57/32
f 65/57/33 61/59/33 62/54/33
f 50/47/34 61/59/34 69/60/34
f 69/60/35 71/61/35 70/62/35
f 72/63/36 69/60/36 67/58/36
f 54/51/37 64/55/37 60/52/37
f 57/49/38 56/64/38 53/48/38
f 52/41/39 57/49/39 53/48/39
f 47/21/40 70/62/40 71/61/40
f 51/42/41 49/46/41 48/45/41
f 78/65/42 36/66/42 37/34/42
f 32/30/43 34/32/43 79/67/43
f 10/68/44 79/67/44 34/32/44
f 81/69/45 80/28/45 82/7/45
f 79/67/46 82/7/46 80/28/46
f 84/70/47 83/71/47 8/5/47
f 84/70/48 85/72/48 83/71/48
f 86/73/49 83/71/49 85/72/49
f 84/70/50 87/74/50 85/72/50
f 88/75/51 89/76/51 87/74/51
f 88/75/52 87/74/52 5/2/52
f 89/76/53 29/22/53 85/72/53
f 85/72/54 29/22/54 90/77/54
f 86/73/55 85/72/55 90/77/55
f 83/71/56 86/73/56 81/69/56
f 54/51/57 33/33/57 64/55/57
f 63/29/58 31/25/58 66/56/58
f 31/25/59 91/78/59 30/26/59
f 31/25/60 68/27/60 66/56/60
f 71/61/61 72/63/61 27/23/61
f 27/23/62 89/76/62 26/79/62
f 71/61/63 27/23/63 26/79/63
f 88/75/64 26/79/64 89/76/64
f 71/61/65 26/79/65 25/80/65
f 47/21/66 23/20/66 46/44/66
f 22/81/67 45/43/67 46/44/67
f 23/20/68 22/81/68 46/44/68
f 21/82/69 1/14/69 18/16/69
f 19/17/70 17/15/70 42/38/70
f 18/16/71 1/14/71 16/12/71
f 12/11/72 4/3/72 6/83/72
f 4/3/73 5/2/73 87/74/73
f 2/84/74 1/14/74 22/81/74
f 11/9/75 15/85/75 14/10/75
f 3/1/76 88/75/76 5/2/76
f 39/37/77 73/86/77 37/34/77
f 25/80/78 26/79/78 88/75/78
f 46/44/79 51/42/79 48/45/79
f 25/80/80 47/21/80 71/61/80
f 61/59/81 67/58/81 69/60/81
f 15/85/82 74/87/82 16/12/82
f 78/65/83 73/86/83 75/8/83
f 78/65/84 75/8/84 77/88/84
f 16/12/85 74/87/85 41/89/85
f 16/12/86 41/89/86 17/15/86
f 41/89/87 74/87/87 39/37/87
f 78/65/88 37/34/88 73/86/88
f 42/38/89 41/89/89 58/50/89
f 35/31/90 56/64/90 38/35/90
f 35/31/91 55/90/91 56/64/91
f 12/11/92 6/83/92 11/9/92
f 4/3/93 87/74/93 6/83/93
f 89/76/94 85/72/94 87/74/94
f 91/78/95 81/69/95 86/73/95
f 29/22/96 30/26/96 90/77/96
f 28/24/97 67/58/97 68/27/97
f 2/84/98 13/13/98 1/14/98
f 7/4/99 6/83/99 8/5/99
f 14/10/100 16/12/100 12/11/100
f 21/82/101 18/16/101 20/18/101
f 21/82/102 20/18/102 22/81/102
f 24/19/103 47/21/103 25/80/103
f 29/22/104 28/24/104 30/26/104
f 70/62/105 47/21/105 46/44/105 48/45/105
f 35/31/106 36/66/106 34/32/106
f 35/31/107 37/34/107 36/66/107
f 39/37/108 37/34/108 38/35/108
f 41/89/109 39/37/109 40/36/109
f 42/38/110 17/15/110 41/89/110
f 51/42/111 44/40/111 52/41/111
f 54/51/112 53/48/112 56/64/112 55/90/112
f 49/46/113 51/42/113 53/48/113
f 76/91/114 75/8/114 73/86/114 74/87/114
f 57/49/115 40/36/115 56/64/115
f 40/36/116 38/35/116 56/64/116
f 54/51/117 59/53/117 53/48/117
f 59/53/118 50/47/118 53/48/118
f 50/47/119 59/53/119 61/59/119
f 60/52/120 61/59/120 59/53/120
f 68/27/121 67/58/121 65/57/121
f 68/27/122 65/57/122 66/56/122
f 66/56/123 62/54/123 63/29/123
f 61/59/124 60/52/124 62/54/124
f 70/62/125 50/47/125 69/60/125
f 71/61/126 69/60/126 72/63/126
f 72/63/127 67/58/127 28/24/127
f 70/62/128 48/45/128 50/47/128
f 74/87/129 73/86/129 39/37/129
f 34/32/130 36/66/130 77/88/130 10/68/130
f 33/33/131 54/51/131 55/90/131 35/31/131
f 83/71/132 81/69/132 82/7/132 8/5/132
f 7/4/133 76/91/133 15/85/133 11/9/133
f 91/78/134 86/73/134 90/77/134
f 80/28/135 81/69/135 91/78/135
f 10/68/136 82/7/136 79/67/136
f 32/30/137 79/67/137 80/28/137
f 63/29/138 64/55/138 32/30/138
f 80/28/139 91/78/139 31/25/139
f 91/78/140 90/77/140 30/26/140
f 28/24/141 68/27/141 30/26/141
f 29/22/142 89/76/142 27/23/142
f 27/23/143 72/63/143 28/24/143
f 20/18/144 45/43/144 22/81/144
f 20/18/145 19/17/145 44/40/145
f 4/3/146 13/13/146 2/84/146 3/1/146
f 75/8/147 76/91/147 7/4/147
f 6/83/148 87/74/148 84/70/148
f 3/1/149 23/20/149 24/19/149
f 1/14/150 21/82/150 22/81/150
f 22/81/151 23/20/151 3/1/151 2/84/151
f 12/11/152 13/13/152 4/3/152
f 11/9/153 6/83/153 7/4/153
f 75/8/154 9/6/154 10/68/154 77/88/154
f 20/18/155 44/40/155 45/43/155
f 15/85/156 76/91/156 74/87/156
f 16/12/157 14/10/157 15/85/157
f 24/19/158 25/80/158 88/75/158 3/1/158
f 36/66/159 78/65/159 77/88/159
f 58/50/160 41/89/160 40/36/160
f 42/38/161 58/50/161 43/39/161
f 52/41/162 58/50/162 57/49/162
f 50/47/163 49/46/163 53/48/163
f 10/68/164 9/6/164 82/7/164
f 8/5/165 6/83/165 84/70/165
f 33/33/166 34/32/166 32/30/166 64/55/166
