# Blender v2.83.1 OBJ File: 'World_Nature.blend'
# www.blender.org
o Mball.001_Mesh.003
v 0.962242 0.312588 -2.085754
v 1.297994 -0.002722 -2.042581
v 0.854481 0.040642 -2.651840
v 0.783164 0.591029 -1.187148
v 1.241446 0.177474 -0.860880
v 0.467363 0.725749 -1.240889
v 0.430148 0.349156 -2.476914
v -0.260742 0.366064 -2.337083
v -0.313901 0.073573 -2.739440
v 0.184342 -0.139117 -2.967508
v 0.913591 -0.387735 -2.684573
v -0.505827 -0.416709 -2.662098
v 0.210724 -0.612469 -2.787901
v -0.259601 -0.824013 -2.237306
v 0.615781 -0.843444 -2.243245
v 1.297371 -0.323571 -2.186318
v 1.348181 -0.422701 -1.680877
v 0.865500 -0.810006 -1.616246
v 0.467533 -0.908227 -1.533043
v 0.333060 -0.615584 0.083024
v 0.883844 -0.450312 -0.397535
v 0.011679 -0.925895 -1.562777
v -0.439623 -0.816357 -1.589563
v -0.063686 -0.672557 -0.095289
v -0.068229 -0.828261 0.705447
v -0.513311 -0.651883 0.142190
v -0.540681 -0.775416 1.001696
v -0.968579 -0.499586 0.727964
v -1.041104 -0.525125 -0.055297
v -0.942494 -0.485298 -0.896673
v -1.504203 -0.242381 -0.143481
v -1.235788 -0.053916 -1.144039
v -1.420944 -0.197993 0.533884
v -1.697205 0.205788 -0.365945
v -1.656305 0.093604 0.454861
v -1.528440 0.498033 0.691935
v -1.683604 0.490524 0.090090
v -1.206073 -0.097995 1.127003
v -0.998838 0.141782 1.499388
v -0.478427 0.599320 1.415325
v -1.058746 0.668698 1.066491
v -0.177406 0.285203 2.235661
v -0.603363 -0.104457 2.487633
v -0.550449 -0.665748 2.446653
v 0.189983 0.054774 2.742393
v 0.245360 -0.210741 2.908759
v 0.212554 -0.516658 2.887003
v 0.997322 -0.053452 2.549866
v 1.378050 -0.120087 1.921062
v 1.030155 -0.525522 2.577153
v 0.837326 0.314447 1.877154
v 0.428548 0.317312 2.241794
v 0.226930 0.628910 1.449602
v -0.257302 0.960531 1.033908
v 0.444312 0.977527 0.744853
v 0.908784 0.729322 0.671381
v 1.187748 0.257622 0.764392
v 1.251916 0.555281 -0.087415
v 0.870755 0.928832 -0.150703
v 0.394572 1.131885 -0.147937
v -0.057898 1.204143 -0.086749
v -0.279051 1.146274 0.539872
v -1.043446 0.953904 0.608970
v -0.470905 1.193355 -0.092975
v -1.058048 0.961167 -0.610844
v -0.289002 1.044841 -0.871140
v -1.197129 0.988076 0.095045
v -1.543924 0.550220 -0.640617
v -0.966734 0.419085 -1.400319
v -0.901875 -0.121618 -2.176736
v -0.259064 0.647241 -1.582929
v -0.833400 -0.528334 -2.017442
v 1.216570 -0.123372 0.491080
v 1.378138 -0.236868 1.360469
v 1.150080 -0.149383 -0.379793
v 0.827010 -0.462180 0.192342
v 1.326250 -0.564407 1.419115
v 1.361856 -0.535420 1.968090
v 0.990180 -0.862346 1.346277
v 0.438638 -1.063918 1.607783
v 0.997065 -0.887325 1.937803
v 0.637054 -0.864892 2.471279
v -0.083199 -0.848222 2.509454
v -0.538633 -0.886798 1.730567
v -0.011446 -1.050223 1.736820
v -0.883413 -0.528622 1.861742
vt 0.357060 0.141233
vt 0.357060 0.141233
vt 0.357060 0.141233
vt 0.357060 0.141233
vt 0.357060 0.141233
vt 0.357060 0.141233
vt 0.357060 0.141233
vt 0.357060 0.141233
vt 0.357060 0.141233
vt 0.357060 0.141233
vt 0.357060 0.141233
vt 0.357060 0.141233
vt 0.357060 0.141233
vt 0.357060 0.141233
vt 0.357060 0.141233
vt 0.357060 0.141233
vt 0.357060 0.141233
vt 0.357060 0.141233
vt 0.357060 0.141233
vt 0.357060 0.141233
vt 0.357060 0.141233
vt 0.357060 0.141233
vt 0.357060 0.141233
vt 0.357060 0.141233
vt 0.357060 0.141233
vt 0.357060 0.141233
vt 0.357060 0.141233
vt 0.357060 0.141233
vt 0.357060 0.141233
vt 0.357060 0.141233
vt 0.357060 0.141233
vt 0.357060 0.141233
vt 0.357060 0.141233
vt 0.357060 0.141233
vt 0.357060 0.141233
vt 0.357060 0.141233
vt 0.357060 0.141233
vt 0.357060 0.141233
vt 0.357060 0.141233
vt 0.357060 0.141233
vt 0.357060 0.141233
vt 0.357060 0.141233
vt 0.357060 0.141233
vt 0.357060 0.141233
vt 0.357060 0.141233
vt 0.357060 0.141233
vt 0.357060 0.141233
vt 0.357060 0.141233
vt 0.357060 0.141233
vt 0.357060 0.141233
vt 0.357060 0.141233
vt 0.357060 0.141233
vt 0.357060 0.141233
vt 0.357060 0.141233
vt 0.357060 0.141233
vt 0.357060 0.141233
vt 0.357060 0.141233
vt 0.357060 0.141233
vt 0.357060 0.141233
vt 0.357060 0.141233
vt 0.357060 0.141233
vt 0.357060 0.141233
vt 0.357060 0.141233
vt 0.357060 0.141233
vt 0.357060 0.141233
vt 0.357060 0.141233
vt 0.357060 0.141233
vt 0.357060 0.141233
vt 0.357060 0.141233
vt 0.357060 0.141233
vt 0.357060 0.141233
vt 0.357060 0.141233
vt 0.357060 0.141233
vt 0.357060 0.141233
vt 0.357060 0.141233
vt 0.357060 0.141233
vt 0.357060 0.141233
vt 0.357060 0.141233
vt 0.357060 0.141233
vt 0.357060 0.141233
vt 0.357060 0.141233
vt 0.357060 0.141233
vt 0.357060 0.141233
vt 0.357060 0.141233
vt 0.357060 0.141233
vt 0.357060 0.141233
vn 0.6878 0.7218 -0.0772
vn 0.6477 0.6313 -0.4266
vn 0.3915 0.7981 -0.4579
vn 0.6989 0.7106 -0.0809
vn 0.4126 0.8901 -0.1936
vn 0.2746 0.9175 -0.2878
vn 0.0035 0.9495 -0.3139
vn -0.0969 0.8111 -0.5768
vn -0.0166 0.7128 -0.7011
vn 0.1717 0.6539 -0.7368
vn 0.3954 0.1241 -0.9101
vn 0.2404 -0.3326 -0.9119
vn -0.2550 -0.3554 -0.8993
vn -0.4102 0.0167 -0.9118
vn 0.3256 -0.7589 -0.5640
vn -0.3084 -0.7696 -0.5591
vn -0.0231 -0.9265 -0.3757
vn 0.0008 -0.9928 -0.1196
vn 0.5852 -0.7281 -0.3570
vn 0.6039 -0.7685 -0.2114
vn 0.5975 -0.7774 -0.1965
vn 0.2315 -0.9720 -0.0403
vn 0.0429 -0.9833 0.1770
vn 0.4343 -0.8793 0.1954
vn 0.2832 -0.9210 0.2676
vn -0.1136 -0.9858 0.1235
vn -0.2326 -0.9711 -0.0532
vn -0.1448 -0.9711 -0.1897
vn 0.2206 -0.9577 -0.1850
vn -0.4716 -0.8706 -0.1401
vn -0.1997 -0.9690 -0.1456
vn -0.3988 -0.9169 0.0177
vn -0.2525 -0.9660 0.0549
vn -0.5046 -0.8576 -0.0997
vn -0.5302 -0.8444 0.0766
vn -0.6949 -0.6495 -0.3087
vn -0.8070 -0.5019 -0.3110
vn -0.5868 -0.8001 0.1246
vn -0.7886 -0.5996 0.1362
vn -0.9168 -0.3992 -0.0089
vn -0.9565 0.1590 0.2446
vn -0.8445 -0.0458 0.5337
vn -0.9986 -0.0262 0.0462
vn -0.7700 -0.5220 0.3669
vn -0.8397 -0.1025 0.5333
vn -0.5404 0.7003 0.4664
vn -0.3755 0.5625 0.7366
vn -0.6527 0.4353 0.6201
vn -0.4856 0.7827 0.3894
vn -0.9026 0.1580 0.4005
vn -0.9016 -0.0402 0.4307
vn -0.4685 -0.0745 0.8803
vn -0.3535 0.4426 0.8241
vn -0.3353 0.7420 0.5805
vn 0.2627 0.5511 0.7920
vn 0.3914 0.0066 0.9202
vn 0.5884 0.7601 0.2757
vn 0.8668 0.0577 0.4953
vn 0.3489 0.8547 0.3844
vn 0.2366 0.8095 0.5373
vn 0.2677 0.9179 0.2929
vn -0.0528 0.9246 0.3771
vn -0.0519 0.8944 0.4443
vn -0.0635 0.7427 0.6666
vn 0.1768 0.8594 0.4797
vn 0.4678 0.7263 0.5036
vn -0.0570 0.9252 0.3752
vn 0.2404 0.9134 0.3285
vn 0.8170 0.5286 0.2303
vn 0.8123 0.5289 0.2460
vn 0.6805 0.7186 0.1429
vn 0.4858 0.8543 0.1849
vn 0.4172 0.8531 -0.3133
vn 0.3725 0.8777 -0.3014
vn 0.6959 0.6634 -0.2750
vn 0.3893 0.9111 0.1358
vn 0.1962 0.9342 -0.2979
vn 0.1759 0.9726 0.1519
vn 0.1817 0.9706 0.1577
vn -0.2329 0.9626 0.1384
vn -0.1983 0.9145 0.3526
vn -0.0273 0.9962 0.0824
vn 0.1195 0.9310 0.3448
vn -0.2933 0.9514 -0.0941
vn -0.1803 0.9576 -0.2249
vn -0.0227 0.9810 -0.1925
vn -0.6326 0.7591 -0.1536
vn -0.6426 0.7274 0.2405
vn -0.7124 0.6973 -0.0792
vn -0.7051 0.6877 0.1732
vn -0.8627 -0.0190 -0.5053
vn -0.7818 0.1124 -0.6134
vn -0.9427 0.2950 -0.1561
vn -0.5328 0.6676 -0.5200
vn -0.8888 0.3379 -0.3095
vn -0.6022 0.6307 -0.4895
vn -0.3651 0.8726 -0.3245
vn -0.3815 0.7408 -0.5528
vn -0.2538 0.8399 -0.4798
vn 0.1318 0.8678 -0.4792
vn -0.9224 -0.2653 -0.2808
vn -0.8199 -0.3231 -0.4726
vn -0.6151 0.6742 -0.4088
vn -0.7102 0.1703 -0.6831
vn -0.4923 -0.8612 -0.1266
vn -0.5729 -0.8193 -0.0243
vn -0.8103 -0.5833 -0.0565
vn -0.5364 -0.7426 -0.4011
vn -0.2780 0.8193 0.5014
vn -0.5844 0.6973 0.4151
vn 0.7479 0.5924 -0.2995
vn 0.9990 -0.0449 0.0084
vn 0.9966 0.0172 0.0811
vn 0.9608 -0.1886 -0.2032
vn 0.9702 0.1854 -0.1561
vn 0.9345 -0.3508 -0.0609
vn 0.6685 -0.7432 -0.0288
vn 0.7533 -0.5550 -0.3528
vn 0.9954 -0.0940 -0.0195
vn 0.6815 -0.7314 -0.0228
vn 0.6656 -0.6709 -0.3268
vn 0.2047 -0.9351 -0.2891
vn 0.3477 -0.8696 -0.3507
vn 0.3246 -0.9448 -0.0437
vn 0.5868 -0.7173 0.3756
vn 0.2007 -0.9637 0.1760
vn 0.2855 -0.5709 0.7698
vn 0.0087 -0.9714 0.2374
vn 0.0170 -0.7579 0.6522
vn -0.2914 -0.9318 0.2165
vn -0.3815 -0.8850 0.2669
vn -0.3242 -0.5703 0.7548
vn -0.2556 -0.9514 -0.1716
vn -0.0884 -0.9748 -0.2049
vn -0.6647 -0.7169 0.2103
vn -0.6309 -0.7754 -0.0289
vn -0.8376 -0.5440 0.0490
vn 0.0638 -0.9562 -0.2856
vn 0.2947 -0.9555 0.0092
vn 0.7460 -0.6634 0.0585
vn 0.9864 -0.0418 0.1590
vn 0.7187 -0.6503 0.2460
vn 0.9539 0.2937 -0.0610
vn 0.6115 0.7764 0.1529
vn -0.2574 0.7717 0.5816
vn -0.6185 -0.7068 0.3432
vn 0.6288 -0.7483 0.2114
vn 0.9897 0.1406 0.0259
vn 0.9950 0.0394 -0.0923
vn 0.7832 0.1998 -0.5888
s off
f 2/1/1 1/2/1 5/3/1
f 2/1/2 3/4/2 1/2/2
f 1/2/3 3/4/3 7/5/3
f 5/3/4 1/2/4 4/6/4
f 4/6/5 1/2/5 6/7/5
f 1/2/6 7/5/6 6/7/6
f 8/8/7 71/9/7 6/7/7 7/5/7
f 8/8/8 7/5/8 9/10/8
f 10/11/9 9/10/9 7/5/9
f 3/4/10 10/11/10 7/5/10
f 3/4/11 11/12/11 10/11/11
f 10/11/12 11/12/12 13/13/12
f 10/11/13 13/13/13 12/14/13
f 10/11/14 12/14/14 9/10/14
f 11/12/15 15/15/15 13/13/15
f 12/14/16 13/13/16 14/16/16
f 15/15/17 14/16/17 13/13/17
f 22/17/18 14/16/18 15/15/18 19/18/18
f 11/12/19 16/19/19 15/15/19
f 16/19/20 17/20/20 15/15/20
f 17/20/21 18/21/21 15/15/21
f 18/21/22 19/18/22 15/15/22
f 24/22/23 22/17/23 19/18/23 20/23/23
f 19/18/24 21/24/24 20/23/24
f 18/21/25 21/24/25 19/18/25
f 24/22/26 26/25/26 23/26/26 22/17/26
f 14/16/27 22/17/27 23/26/27
f 24/22/28 25/27/28 26/25/28
f 24/22/29 20/23/29 25/27/29
f 26/25/30 27/28/30 28/29/30
f 26/25/31 25/27/31 27/28/31
f 26/25/32 29/30/32 30/31/32 23/26/32
f 29/30/33 26/25/33 28/29/33
f 29/30/34 31/32/34 30/31/34
f 29/30/35 28/29/35 31/32/35
f 31/32/36 32/33/36 30/31/36
f 34/34/37 32/33/37 31/32/37
f 28/29/38 33/35/38 31/32/38
f 35/36/39 31/32/39 33/35/39
f 34/34/40 31/32/40 35/36/40
f 36/37/41 37/38/41 35/36/41
f 35/36/42 39/39/42 36/37/42
f 34/34/43 35/36/43 37/38/43
f 38/40/44 35/36/44 33/35/44
f 39/39/45 35/36/45 38/40/45
f 42/41/46 40/42/46 39/39/46
f 40/42/47 41/43/47 39/39/47
f 41/43/48 36/37/48 39/39/48
f 39/39/49 43/44/49 42/41/49
f 39/39/50 38/40/50 43/44/50
f 86/45/51 44/46/51 43/44/51 38/40/51
f 43/44/52 44/46/52 47/47/52 46/48/52
f 45/49/53 43/44/53 46/48/53
f 43/44/54 45/49/54 42/41/54
f 48/50/55 45/49/55 46/48/55
f 50/51/56 48/50/56 46/48/56 47/47/56
f 49/52/57 51/53/57 48/50/57
f 50/51/58 78/54/58 49/52/58 48/50/58
f 48/50/59 51/53/59 52/55/59
f 45/49/60 48/50/60 52/55/60
f 51/53/61 53/56/61 52/55/61
f 52/55/62 53/56/62 42/41/62
f 45/49/63 52/55/63 42/41/63
f 54/57/64 40/42/64 53/56/64
f 54/57/65 53/56/65 55/58/65
f 53/56/66 56/59/66 55/58/66
f 42/41/67 53/56/67 40/42/67
f 51/53/68 56/59/68 53/56/68
f 57/60/69 56/59/69 51/53/69
f 58/61/70 56/59/70 57/60/70
f 58/61/71 59/62/71 56/59/71
f 56/59/72 59/62/72 55/58/72
f 6/7/73 59/62/73 4/6/73
f 6/7/74 60/63/74 59/62/74
f 58/61/75 4/6/75 59/62/75
f 59/62/76 60/63/76 55/58/76
f 66/64/77 61/65/77 60/63/77 6/7/77
f 60/63/78 61/65/78 62/66/78
f 55/58/79 60/63/79 62/66/79
f 67/67/80 63/68/80 62/66/80 64/69/80
f 54/57/81 62/66/81 63/68/81
f 64/69/82 62/66/82 61/65/82
f 55/58/83 62/66/83 54/57/83
f 64/69/84 65/70/84 67/67/84
f 64/69/85 66/64/85 65/70/85
f 66/64/86 64/69/86 61/65/86
f 65/70/87 68/71/87 67/67/87
f 63/68/88 67/67/88 36/37/88
f 68/71/89 37/38/89 67/67/89
f 37/38/90 36/37/90 67/67/90
f 68/71/91 32/33/91 34/34/91
f 68/71/92 69/72/92 32/33/92
f 37/38/93 68/71/93 34/34/93
f 69/72/94 68/71/94 65/70/94
f 32/33/95 69/72/95 70/73/95
f 69/72/96 8/8/96 70/73/96
f 71/9/97 8/8/97 69/72/97
f 71/9/98 69/72/98 65/70/98
f 65/70/99 66/64/99 71/9/99
f 66/64/100 6/7/100 71/9/100
f 32/33/101 70/73/101 72/74/101
f 70/73/102 12/14/102 72/74/102
f 9/10/103 70/73/103 8/8/103
f 12/14/104 70/73/104 9/10/104
f 72/74/105 14/16/105 23/26/105
f 72/74/106 23/26/106 30/31/106
f 32/33/107 72/74/107 30/31/107
f 72/74/108 12/14/108 14/16/108
f 54/57/109 63/68/109 41/43/109
f 41/43/110 63/68/110 36/37/110
f 5/3/111 4/6/111 58/61/111
f 58/61/112 73/75/112 5/3/112
f 58/61/113 57/60/113 73/75/113
f 73/75/114 74/76/114 77/77/114
f 57/60/115 74/76/115 73/75/115
f 5/3/116 73/75/116 75/78/116
f 75/78/117 73/75/117 76/79/117
f 73/75/118 77/77/118 76/79/118
f 78/54/119 77/77/119 74/76/119 49/52/119
f 78/54/120 81/80/120 79/81/120 77/77/120
f 76/79/121 77/77/121 79/81/121
f 20/23/122 79/81/122 80/82/122
f 76/79/123 79/81/123 20/23/123
f 80/82/124 79/81/124 81/80/124
f 81/80/125 78/54/125 50/51/125 82/83/125
f 81/80/126 82/83/126 80/82/126
f 50/51/127 47/47/127 82/83/127
f 82/83/128 83/84/128 85/85/128 80/82/128
f 82/83/129 47/47/129 83/84/129
f 85/85/130 83/84/130 84/86/130
f 83/84/131 44/46/131 84/86/131
f 83/84/132 47/47/132 44/46/132
f 84/86/133 27/28/133 25/27/133 85/85/133
f 80/82/134 85/85/134 25/27/134
f 86/45/135 84/86/135 44/46/135
f 28/29/136 27/28/136 84/86/136 86/45/136
f 38/40/137 28/29/137 86/45/137
f 20/23/138 80/82/138 25/27/138
f 20/23/139 21/24/139 76/79/139
f 75/78/140 76/79/140 21/24/140
f 17/20/141 5/3/141 75/78/141
f 17/20/142 75/78/142 21/24/142
f 57/60/143 49/52/143 74/76/143
f 57/60/144 51/53/144 49/52/144
f 40/42/145 54/57/145 41/43/145
f 38/40/146 33/35/146 28/29/146
f 17/20/147 21/24/147 18/21/147
f 5/3/148 17/20/148 2/1/148
f 17/20/149 16/19/149 2/1/149
f 11/12/150 3/4/150 2/1/150 16/19/150
