# Blender v2.83.0 OBJ File: 'World_Nature.blend'
# www.blender.org
mtllib World_Bush_2.mtl
o plant_bushTriangle
v -0.014707 0.144227 -0.153573
v -0.108788 0.096523 -0.011526
v 0.044412 0.096523 -0.099976
v -0.125645 0.144227 -0.089523
v -0.030990 0.000000 -0.010976
v 0.005990 0.000000 -0.032326
v -0.119394 0.180278 -0.206796
v 0.025000 0.000000 -0.021350
v 0.064376 0.158235 0.088450
v 0.064376 0.158235 -0.088450
v 0.025000 -0.000000 0.021350
v 0.140352 0.236438 0.064050
v 0.238788 0.295537 0.000000
v 0.140352 0.236438 -0.064050
v -0.125645 0.179693 0.089523
v -0.119394 0.224608 0.206796
v -0.014707 0.179693 0.153573
v -0.108788 0.120259 0.011526
v 0.044412 0.120259 0.099976
v 0.005990 -0.000000 0.032326
v -0.030990 -0.000000 0.010976
vt 0.151725 0.863401
vt 0.151725 0.863401
vt 0.151724 0.863401
vt 0.151725 0.863401
vt 0.151725 0.863401
vt 0.151725 0.863401
vt 0.151725 0.863401
vt 0.151725 0.863401
vt 0.151725 0.863401
vt 0.151725 0.863401
vt 0.151725 0.863401
vt 0.151725 0.863401
vt 0.151725 0.863401
vt 0.151724 0.863401
vt 0.151725 0.863401
vt 0.151725 0.863401
vt 0.151724 0.863401
vt 0.151725 0.863401
vt 0.151725 0.863401
vt 0.151725 0.863401
vt 0.151725 0.863401
vn -0.2659 -0.8469 -0.4605
vn 0.4630 0.3777 0.8019
vn -0.4630 -0.3777 -0.8019
vn 0.1719 0.9390 0.2978
vn -0.9704 0.2415 0.0000
vn 0.9704 -0.2415 0.0000
vn 0.5147 -0.8573 -0.0000
vn -0.7172 0.6968 0.0000
vn 0.7172 -0.6968 -0.0000
vn -0.2076 -0.9098 0.3595
vn 0.3081 0.7876 -0.5336
vn -0.3081 -0.7876 0.5336
vn 0.4752 0.3112 -0.8230
vn -0.4752 -0.3112 0.8230
usemtl Material
s 1
f 3/1/1 2/2/1 1/3/1
f 4/4/1 1/3/1 2/2/1
f 3/1/2 5/5/2 6/6/2
f 2/2/3 3/1/3 5/5/3
f 4/4/4 1/3/4 7/7/4
f 8/8/5 9/9/5 10/10/5
f 11/11/6 8/8/6 9/9/6
f 14/12/7 13/13/7 12/14/7
f 14/12/8 9/9/8 12/14/8
f 10/10/9 14/12/9 9/9/9
f 17/15/10 16/16/10 15/17/10
f 18/18/11 17/15/11 19/19/11
f 15/17/12 18/18/12 17/15/12
f 20/20/13 18/18/13 19/19/13
f 21/21/14 20/20/14 18/18/14
