# Blender v2.83.0 OBJ File: 'World_Nature.blend'
# www.blender.org
mtllib World_Grass_2.mtl
o grass_leafs
v -0.081028 0.043200 -0.023856
v -0.072943 0.091200 -0.085872
v -0.023278 0.043200 -0.123882
v -0.018028 0.000000 -0.114789
v -0.070528 0.000000 -0.023856
v 0.069714 0.043200 0.018598
v -0.030312 -0.000000 0.065848
v 0.060621 -0.000000 0.013348
v -0.030312 0.043200 0.076348
v 0.031704 0.091200 0.068263
v -0.073436 0.142500 -0.015613
v -0.011420 0.067500 -0.023698
v -0.111446 0.067500 0.034052
v -0.011420 0.000000 -0.013198
v -0.102353 -0.000000 0.039302
v 0.085030 0.091200 -0.078246
v 0.123040 0.043200 -0.028581
v 0.023014 0.043200 -0.086331
v 0.113947 0.000000 -0.023331
v 0.023014 0.000000 -0.075831
v 0.090116 0.067500 0.083960
v 0.090116 0.067500 -0.031540
v 0.114122 0.142500 0.026210
v 0.081023 0.000000 -0.026290
v 0.081023 -0.000000 0.078710
v -0.067899 0.142500 0.125341
v -0.105908 0.067500 0.075676
v -0.005883 0.067500 0.133426
v -0.096815 -0.000000 0.070426
v -0.005883 -0.000000 0.122926
vt 0.125385 0.876571
vt 0.125385 0.876571
vt 0.125385 0.876571
vt 0.125385 0.876571
vt 0.125385 0.876571
vt 0.125385 0.876572
vt 0.125385 0.876570
vt 0.125385 0.876570
vt 0.125385 0.876572
vt 0.125385 0.876571
vt 0.125385 0.876571
vt 0.125385 0.876571
vt 0.125385 0.876571
vt 0.125385 0.876571
vt 0.125385 0.876571
vt 0.125385 0.876571
vt 0.125385 0.876570
vt 0.125385 0.876570
vt 0.125385 0.876571
vt 0.125385 0.876571
vt 0.125385 0.876571
vt 0.125385 0.876571
vt 0.125385 0.876571
vt 0.125385 0.876571
vt 0.125385 0.876571
vt 0.125385 0.876571
vt 0.125385 0.876571
vt 0.125385 0.876571
vt 0.125385 0.876571
vt 0.125385 0.876571
vn 0.8288 0.2902 0.4785
vn 0.7746 0.4473 0.4472
vn -0.8475 -0.2060 -0.4893
vn -0.8288 -0.2902 -0.4785
vn 0.8475 0.2060 0.4893
vn 0.4893 -0.2060 0.8475
vn 0.4785 -0.2902 0.8288
vn -0.4893 0.2060 -0.8475
vn -0.4785 0.2902 -0.8288
vn -0.4472 0.4473 -0.7746
vn 0.4899 0.2003 0.8485
vn 0.4762 0.3048 0.8248
vn -0.4955 -0.1335 -0.8583
vn -0.4899 -0.2003 -0.8485
vn 0.4955 0.1335 0.8583
vn 0.4472 -0.4473 -0.7746
vn 0.4785 -0.2902 -0.8288
vn 0.4785 -0.2902 -0.8287
vn 0.4893 -0.2060 -0.8475
vn -0.4893 0.2060 0.8475
vn -0.4785 0.2902 0.8288
vn -0.9524 0.3048 0.0000
vn -0.9797 0.2003 0.0000
vn 0.9797 -0.2003 -0.0000
vn 0.9910 -0.1335 -0.0000
vn -0.9910 0.1335 0.0000
vn 0.4899 0.2003 -0.8485
vn 0.4762 0.3048 -0.8248
vn -0.4955 -0.1335 0.8583
vn -0.4899 -0.2003 0.8485
vn 0.4955 0.1335 -0.8583
usemtl Material
s 1
f 3/1/1 2/2/2 1/3/1
f 4/4/3 1/3/4 3/1/4
f 5/5/5 4/4/5 1/3/1
f 7/6/6 6/7/7 9/8/7
f 8/9/8 7/6/8 6/7/9
f 6/7/9 9/8/9 10/10/10
f 13/11/11 12/12/11 11/13/12
f 14/14/13 13/11/14 12/12/14
f 15/15/15 14/14/15 13/11/11
f 16/16/16 17/17/17 18/18/18
f 19/19/19 18/18/18 17/17/17
f 20/20/20 19/19/20 18/18/21
f 23/21/22 22/22/23 21/23/23
f 21/23/24 24/24/25 22/22/24
f 25/25/26 21/23/23 24/24/26
f 28/26/27 27/27/27 26/28/28
f 29/29/29 28/26/30 27/27/30
f 30/30/31 29/29/31 28/26/27
