# Blender v2.83.0 OBJ File: 'World_Nature.blend'
# www.blender.org
mtllib World_Rock_3.mtl
o rock_largeC
v 0.202165 0.104632 0.507831
v -0.286011 -0.000000 0.293095
v 0.161732 -0.000000 0.406265
v -0.357514 0.104632 0.366369
v 0.274592 -0.000000 0.278735
v 0.343240 0.104632 0.348419
v -0.425764 -0.000000 0.050487
v -0.532205 0.104632 0.063109
v -0.360661 0.000000 -0.272058
v -0.450826 0.104632 -0.340072
v 0.246124 0.104632 0.084282
v 0.196899 -0.000000 0.067426
v 0.425764 0.000000 -0.230384
v 0.246124 0.104632 -0.507831
v 0.532205 0.104632 -0.287980
v 0.196899 0.000000 -0.406265
v 0.246124 0.173184 0.084283
v 0.532205 0.173184 -0.287980
v 0.216241 0.321112 0.219504
v 0.202165 0.173184 0.507831
v 0.343240 0.173184 0.348419
v 0.127364 0.321112 0.319934
v -0.357514 0.173184 0.366369
v 0.155058 0.321112 0.053098
v -0.532205 0.173184 0.063109
v -0.450826 0.173184 -0.340072
v 0.003445 0.104632 -0.505549
v 0.003445 0.173184 -0.505549
v 0.246124 0.173184 -0.507831
v 0.002756 0.000000 -0.404440
v 0.433747 0.247148 -0.234704
v 0.245173 0.321112 -0.250680
v 0.155058 0.321112 -0.319933
v 0.002170 0.321112 -0.318496
v -0.335289 0.321112 0.039759
v -0.284021 0.321112 -0.214245
v -0.225234 0.321112 0.230812
v 0.245173 0.321112 -0.064165
vt 0.380891 0.841360
vt 0.380891 0.841360
vt 0.380891 0.841360
vt 0.380891 0.841360
vt 0.380891 0.841360
vt 0.380891 0.841360
vt 0.380891 0.841360
vt 0.380891 0.841360
vt 0.380891 0.841360
vt 0.380890 0.841360
vt 0.380891 0.841360
vt 0.380891 0.841360
vt 0.380891 0.841360
vt 0.380891 0.841360
vt 0.380890 0.841360
vt 0.380891 0.841360
vt 0.380891 0.841360
vt 0.380891 0.841360
vt 0.380891 0.841360
vt 0.380891 0.841360
vt 0.380891 0.841360
vt 0.380891 0.841360
vt 0.380891 0.841360
vt 0.380891 0.841360
vt 0.380891 0.841360
vt 0.380890 0.841360
vt 0.380891 0.841360
vt 0.380891 0.841360
vt 0.380891 0.841360
vt 0.380891 0.841359
vt 0.380891 0.841360
vt 0.380891 0.841360
vt 0.380891 0.841360
vt 0.380891 0.841360
vt 0.380891 0.841360
vt 0.380891 0.841360
vt 0.380891 0.841360
vt 0.380891 0.841360
vt 0.126271 0.858920
vt 0.126271 0.858920
vt 0.126271 0.858920
vt 0.126271 0.858920
vt 0.126271 0.858920
vt 0.126271 0.858920
vt 0.126271 0.858920
vt 0.126272 0.858920
vt 0.126271 0.858920
vt 0.126271 0.858920
vt 0.126271 0.858920
vn -0.1870 -0.6461 0.7400
vn 0.5476 -0.6821 0.4846
vn -0.6308 -0.6856 0.3634
vn -0.7024 -0.6975 -0.1418
vn 0.8756 -0.3601 -0.3219
vn 0.4189 -0.7262 -0.5451
vn 0.7929 -0.0000 0.6093
vn 0.4746 0.7735 0.4200
vn -0.2450 0.0000 0.9695
vn 0.9386 0.0000 -0.3451
vn 0.8378 0.4508 -0.3080
vn -0.8665 0.0000 0.4992
vn 0.7489 0.0000 0.6627
vn -0.3423 0.0000 -0.9396
vn 0.7173 -0.4262 0.5512
vn 0.6093 0.0000 -0.7929
vn 0.0000 -1.0000 -0.0000
vn 0.3572 0.8102 -0.4648
vn -0.9802 -0.0000 -0.1979
vn -0.2537 -0.6713 -0.6964
vn -0.0058 0.7843 -0.6203
vn -0.6053 0.7865 -0.1222
vn -0.1642 0.7422 0.6497
vn -0.0068 -0.6949 -0.7191
vn 0.6749 0.5248 0.5187
vn -0.2207 0.7643 -0.6059
vn 0.3651 0.9310 0.0000
vn -0.5460 0.7765 0.3145
vn -0.0094 0.0000 -1.0000
vn 0.0000 1.0000 0.0000
usemtl Material
s 1
f 1/1/1 2/2/1 3/3/1
f 2/2/1 1/1/1 4/4/1
f 1/1/2 5/5/2 6/6/2
f 5/5/2 1/1/2 3/3/2
f 4/4/3 7/7/3 2/2/3
f 7/7/3 4/4/3 8/8/3
f 9/9/4 8/8/4 10/10/4
f 8/8/4 9/9/4 7/7/4
f 11/11/5 5/5/5 12/12/5
f 5/5/5 11/11/5 6/6/5
f 13/13/6 14/14/6 15/15/6
f 14/14/6 13/13/6 16/16/6
f 17/17/7 15/15/7 18/18/7
f 15/15/7 17/17/7 11/11/7
f 19/19/8 20/20/8 21/21/8
f 20/20/8 19/19/8 22/22/8
f 20/20/9 4/4/9 1/1/9
f 4/4/9 20/20/9 23/23/9
f 21/21/10 11/11/10 17/17/10
f 11/11/10 21/21/10 6/6/10
f 19/19/11 17/17/11 24/24/11
f 17/17/11 19/19/11 21/21/11
f 4/4/12 25/25/12 8/8/12
f 25/25/12 4/4/12 23/23/12
f 20/20/13 6/6/13 21/21/13
f 6/6/13 20/20/13 1/1/13
f 26/26/14 27/27/14 10/10/14
f 27/27/14 26/26/14 28/28/14
f 11/11/15 13/13/15 15/15/15
f 13/13/15 11/11/15 12/12/15
f 29/29/16 15/15/16 14/14/16
f 15/15/16 29/29/16 18/18/16
f 3/3/17 12/12/17 5/5/17
f 12/12/17 3/3/17 16/16/17
f 16/16/17 3/3/17 30/30/17
f 30/30/17 3/3/17 2/2/17
f 30/30/17 2/2/17 9/9/17
f 9/9/17 2/2/17 7/7/17
f 16/16/17 13/13/17 12/12/17
f 29/29/18 31/31/18 18/18/18
f 31/31/18 29/29/18 32/32/18
f 32/32/18 29/29/18 33/33/18
f 8/8/19 26/26/19 10/10/19
f 26/26/19 8/8/19 25/25/19
f 10/10/20 30/30/20 9/9/20
f 30/30/20 10/10/20 27/27/20
f 28/28/21 33/33/21 29/29/21
f 33/33/21 28/28/21 34/34/21
f 26/26/22 35/35/22 36/36/22
f 35/35/22 26/26/22 25/25/22
f 22/22/23 23/23/23 20/20/23
f 23/23/23 22/22/23 37/37/23
f 27/27/24 16/16/24 30/30/24
f 16/16/24 27/27/24 14/14/24
f 31/31/25 17/17/25 18/18/25
f 17/17/25 31/31/25 38/38/25
f 17/17/25 38/38/25 24/24/25
f 26/26/26 34/34/26 28/28/26
f 34/34/26 26/26/26 36/36/26
f 38/39/27 31/40/27 32/41/27
f 35/35/28 23/23/28 37/37/28
f 23/23/28 35/35/28 25/25/28
f 28/28/29 14/14/29 27/27/29
f 14/14/29 28/28/29 29/29/29
f 33/42/30 38/39/30 32/41/30
f 38/39/30 33/42/30 24/43/30
f 24/43/30 33/42/30 34/44/30
f 24/43/30 34/44/30 22/45/30
f 22/45/30 34/44/30 37/46/30
f 37/46/30 34/44/30 36/47/30
f 37/46/30 36/47/30 35/48/30
f 22/45/30 19/49/30 24/43/30
