# Blender v2.83.1 OBJ File: 'World_Nature.blend'
# www.blender.org
o Obstacle_Mine_Beam_pillarStone.001
v 0.150000 0.240001 -1.500000
v 0.240000 0.150000 -0.900000
v 0.240000 0.150000 -1.500000
v 0.150000 0.240000 -0.900000
v -0.150000 0.240000 -0.900000
v -0.150000 0.240000 -1.500000
v 0.240000 -0.150000 -0.900000
v 0.150000 -0.240000 -1.500000
v 0.240000 -0.150000 -1.500000
v 0.150000 -0.240000 -0.900000
v -0.240000 -0.150000 -1.500000
v -0.240000 0.150000 -0.900000
v -0.240000 0.150000 -1.500000
v -0.240000 -0.150000 -0.900000
v -0.150000 -0.240000 -1.500000
v -0.150000 -0.240000 -0.900000
v -0.240000 -0.150000 1.200000
v -0.240000 0.149999 1.500000
v -0.240000 0.150000 1.200000
v -0.240000 -0.150001 1.500000
v 0.150000 0.240000 1.500000
v 0.240000 -0.150001 1.500000
v 0.240000 0.149999 1.500000
v 0.150000 -0.240001 1.500000
v -0.150000 0.239999 1.500000
v -0.150000 -0.240001 1.500000
v 0.150000 0.150000 -0.900000
v -0.150000 0.150000 -0.900000
v -0.150000 -0.150000 -0.900000
v 0.150000 -0.150000 -0.900000
v -0.150000 -0.240000 -0.485501
v -0.240000 -0.150000 -0.185501
v -0.240000 -0.150000 -0.485501
v -0.150000 -0.240000 -0.185501
v -0.150000 -0.240000 1.200000
v 0.150000 -0.240000 1.200000
v 0.240000 -0.150000 -0.185501
v 0.150000 -0.240000 -0.485501
v 0.240000 -0.150000 -0.485501
v 0.150000 -0.240000 -0.185501
v -0.240000 0.150000 -0.185501
v -0.240000 0.150000 -0.485501
v -0.150000 0.240000 -0.485501
v -0.150000 0.240000 -0.185501
v 0.150000 -0.150000 -0.485501
v -0.150000 -0.150000 -0.485501
v -0.150000 0.150000 -0.485501
v 0.150000 0.150000 -0.485501
v 0.150000 0.240000 -0.485501
v 0.240000 0.150000 -0.485501
v 0.150000 0.150000 -0.185501
v 0.150000 0.240000 -0.185501
v -0.150000 0.150000 -0.185501
v -0.150000 -0.150000 -0.185501
v 0.240000 0.150000 -0.185501
v 0.150000 -0.150000 -0.185501
v 0.150000 -0.150000 1.200000
v -0.150000 -0.150000 1.200000
v -0.150000 0.150000 1.200000
v 0.150000 0.150000 1.200000
v 0.150000 0.240000 1.200000
v 0.240000 -0.150000 1.200000
v 0.240000 0.150000 1.200000
v -0.150000 0.240000 1.200000
vt 0.858717 0.622434
vt 0.858717 0.622434
vt 0.858717 0.622434
vt 0.858717 0.622434
vt 0.858717 0.622434
vt 0.858717 0.622434
vt 0.858717 0.622434
vt 0.858717 0.622434
vt 0.858717 0.622434
vt 0.858717 0.622434
vt 0.858717 0.622434
vt 0.858717 0.622434
vt 0.858717 0.622434
vt 0.858717 0.622434
vt 0.858717 0.622434
vt 0.858717 0.622434
vt 0.858717 0.622433
vt 0.858717 0.622433
vt 0.858717 0.622433
vt 0.858717 0.622433
vt 0.858717 0.622434
vt 0.858717 0.622434
vt 0.858717 0.622434
vt 0.858717 0.622434
vt 0.858717 0.622434
vt 0.858717 0.622434
vt 0.858717 0.622434
vt 0.858717 0.622434
vt 0.858717 0.622434
vt 0.858717 0.622434
vt 0.858717 0.622434
vt 0.858717 0.622433
vt 0.858717 0.622434
vt 0.858717 0.622433
vt 0.858717 0.622433
vt 0.858717 0.622433
vt 0.858717 0.622433
vt 0.858717 0.622434
vt 0.858717 0.622434
vt 0.858717 0.622433
vt 0.858717 0.622433
vt 0.858717 0.622434
vt 0.858717 0.622434
vt 0.858717 0.622433
vt 0.858717 0.622434
vt 0.858717 0.622434
vt 0.858717 0.622434
vt 0.858717 0.622434
vt 0.858717 0.622434
vt 0.858717 0.622434
vt 0.858717 0.622434
vt 0.858717 0.622434
vt 0.858717 0.622434
vt 0.858717 0.622434
vt 0.858717 0.622434
vt 0.858717 0.622434
vt 0.858717 0.622434
vt 0.858717 0.622434
vt 0.858717 0.622434
vt 0.858717 0.622434
vt 0.858717 0.622434
vt 0.858717 0.622434
vt 0.858717 0.622434
vt 0.858717 0.622434
vt 0.402158 0.631214
vt 0.402158 0.631214
vt 0.402158 0.631214
vt 0.402158 0.631214
vt 0.402158 0.622433
vt 0.402158 0.622433
vt 0.402158 0.622433
vt 0.402158 0.622433
vt 0.402158 0.631214
vt 0.402158 0.631214
vt 0.402158 0.631214
vt 0.402158 0.631214
vt 0.402158 0.622433
vt 0.402158 0.622433
vt 0.402158 0.622433
vt 0.402158 0.622433
vn 0.7071 0.7071 0.0000
vn -0.0000 1.0000 0.0000
vn 0.7071 -0.7071 -0.0000
vn 1.0000 0.0000 0.0000
vn -1.0000 0.0000 0.0000
vn -0.7071 -0.7071 -0.0000
vn -0.7071 0.7071 0.0000
vn 0.0000 -1.0000 -0.0000
vn -0.0000 0.0000 1.0000
vn -0.0000 0.0000 -1.0000
vn 0.0000 0.0000 0.0000
vn -0.8193 0.4731 0.3238
s off
f 1/1/1 2/2/1 3/3/1
f 2/2/1 1/1/1 4/4/1
f 5/5/2 1/1/2 6/6/2
f 1/1/2 5/5/2 4/4/2
f 7/7/3 8/8/3 9/9/3
f 8/8/3 7/7/3 10/10/3
f 7/7/4 3/3/4 2/2/4
f 3/3/4 7/7/4 9/9/4
f 11/11/5 12/12/5 13/13/5
f 12/12/5 11/11/5 14/14/5
f 15/15/6 14/14/6 11/11/6
f 14/14/6 15/15/6 16/16/6
f 17/17/5 18/18/5 19/19/5
f 18/18/5 17/17/5 20/20/5
f 12/12/7 6/6/7 13/13/7
f 6/6/7 12/12/7 5/5/7
f 10/10/8 15/15/8 8/8/8
f 15/15/8 10/10/8 16/16/8
f 21/21/9 22/22/9 23/23/9
f 22/22/9 21/21/9 24/24/9
f 24/24/9 21/21/9 25/25/9
f 24/24/9 25/25/9 26/26/9
f 26/26/9 25/25/9 18/18/9
f 26/26/9 18/18/9 20/20/9
f 9/9/10 1/1/10 3/3/10
f 1/1/10 9/9/10 8/8/10
f 1/1/10 8/8/10 6/6/10
f 6/6/10 8/8/10 15/15/10
f 6/6/10 15/15/10 13/13/10
f 13/13/10 15/15/10 11/11/10
f 5/5/9 27/27/9 4/4/9
f 27/27/9 5/5/9 28/28/9
f 28/28/9 5/5/9 12/12/9
f 28/28/9 12/12/9 29/29/9
f 29/29/9 12/12/9 16/16/9
f 16/16/9 12/12/9 14/14/9
f 10/10/9 4/4/9 27/27/9
f 10/10/9 29/29/9 16/16/9
f 7/7/9 4/4/9 10/10/9
f 4/4/9 7/7/9 2/2/9
f 10/10/9 27/27/9 30/30/9
f 10/10/9 30/30/9 29/29/9
f 31/31/6 32/32/6 33/33/6
f 32/32/6 31/31/6 34/34/6
f 24/24/8 35/35/8 36/36/8
f 35/35/8 24/24/8 26/26/8
f 35/35/6 20/20/6 17/17/6
f 20/20/6 35/35/6 26/26/6
f 37/37/3 38/38/3 39/39/3
f 38/38/3 37/37/3 40/40/3
f 33/33/5 41/41/5 42/42/5
f 41/41/5 33/33/5 32/32/5
f 41/41/7 43/43/7 42/42/7
f 43/43/7 41/41/7 44/44/7
f 31/31/10 45/45/10 38/38/10
f 45/45/10 31/31/10 46/46/10
f 46/46/10 31/31/10 33/33/10
f 46/46/10 33/33/10 47/47/10
f 48/48/11 38/38/11 45/45/11
f 49/49/9 38/38/9 48/48/12
f 49/49/10 39/39/10 38/38/10
f 39/39/10 49/49/10 50/50/10
f 49/49/10 48/48/10 43/43/10
f 43/43/10 48/48/10 47/47/10
f 43/43/10 47/47/10 42/42/10
f 42/42/10 47/47/10 33/33/10
f 44/44/9 51/51/9 52/52/9
f 51/51/9 44/44/9 53/53/9
f 53/53/9 44/44/9 41/41/9
f 53/53/9 41/41/9 54/54/9
f 54/54/9 41/41/9 34/34/9
f 34/34/9 41/41/9 32/32/9
f 40/40/4 52/52/4 51/51/4
f 40/40/9 54/54/9 34/34/9
f 37/37/9 52/52/9 40/40/9
f 52/52/9 37/37/9 55/55/9
f 40/40/5 51/51/5 56/56/5
f 40/40/9 56/56/9 54/54/9
f 35/35/10 57/57/10 36/36/10
f 57/57/10 35/35/10 58/58/10
f 58/58/10 35/35/10 17/17/10
f 58/58/10 17/17/10 59/59/10
f 60/60/5 36/36/5 57/57/5
f 61/61/4 36/36/4 60/60/4
f 61/61/10 62/62/10 36/36/10
f 62/62/10 61/61/10 63/63/10
f 61/61/10 60/60/10 64/64/10
f 64/64/10 60/60/10 59/59/10
f 64/64/10 59/59/10 19/19/10
f 19/19/10 59/59/10 17/17/10
f 22/22/3 36/36/3 62/62/3
f 36/36/3 22/22/3 24/24/3
f 44/44/2 49/49/2 43/43/2
f 49/49/2 44/44/2 52/52/2
f 61/61/1 23/23/1 63/63/1
f 23/23/1 61/61/1 21/21/1
f 49/49/1 55/55/1 50/50/1
f 55/55/1 49/49/1 52/52/1
f 40/40/8 31/31/8 38/38/8
f 31/31/8 40/40/8 34/34/8
f 22/22/4 63/63/4 23/23/4
f 63/63/4 22/22/4 62/62/4
f 37/37/4 50/50/4 55/55/4
f 50/50/4 37/37/4 39/39/4
f 18/18/7 64/64/7 19/19/7
f 64/64/7 18/18/7 25/25/7
f 25/25/2 61/61/2 64/64/2
f 61/61/2 25/25/2 21/21/2
f 29/65/5 47/66/5 28/67/5
f 47/66/5 29/65/5 46/68/5
f 57/69/4 51/70/4 60/71/4
f 51/70/4 57/69/4 56/72/4
f 45/73/4 27/74/4 48/75/4
f 27/74/4 45/73/4 30/76/4
f 54/77/5 59/78/5 53/79/5
f 59/78/5 54/77/5 58/80/5
f 47/66/2 27/74/2 28/67/2
f 27/74/2 47/66/2 48/75/2
f 57/69/8 54/77/8 56/72/8
f 54/77/8 57/69/8 58/80/8
f 59/78/2 51/70/2 53/79/2
f 51/70/2 59/78/2 60/71/2
f 45/73/8 29/65/8 30/76/8
f 29/65/8 45/73/8 46/68/8
