# Blender v2.83.0 OBJ File: 'World_Nature.blend'
# www.blender.org
mtllib World_Rock_2.mtl
o rock_largeE
v 0.323949 0.173184 -0.459935
v 0.427229 0.292248 -0.163731
v 0.547729 0.173184 -0.209911
v 0.252680 0.292248 -0.358750
v -0.333013 0.292248 -0.233479
v 0.064690 0.173184 -0.378127
v -0.426939 0.173184 -0.299333
v 0.050458 0.292248 -0.294939
v 0.379197 0.173184 0.054905
v 0.295774 0.292248 0.042826
v -0.105020 0.173184 0.459936
v -0.547729 0.093808 0.067340
v -0.105020 0.093808 0.459936
v -0.547729 0.173184 0.067340
v -0.438184 -0.000000 0.053872
v -0.084016 -0.000000 0.367949
v -0.487479 0.232716 0.059933
v -0.314581 0.292248 0.152422
v -0.380121 0.292248 -0.090477
v 0.379197 0.093808 0.054905
v 0.438184 0.000000 -0.167929
v 0.547729 0.093808 -0.209911
v 0.303358 -0.000000 0.043924
v 0.221759 -0.000000 0.263020
v 0.277198 0.093808 0.328776
v 0.323949 0.093808 -0.459935
v 0.064690 0.093808 -0.378127
v 0.277198 0.173184 0.328776
v 0.216215 0.292248 0.256445
v -0.081915 0.292248 0.358750
v -0.426939 0.093808 -0.299333
v 0.259159 0.000000 -0.367949
v 0.051752 0.000000 -0.302501
v -0.341552 0.000000 -0.239466
vt 0.380004 0.850230
vt 0.380004 0.850231
vt 0.380004 0.850230
vt 0.380004 0.850231
vt 0.380004 0.850231
vt 0.380004 0.850231
vt 0.380004 0.850231
vt 0.380004 0.850231
vt 0.380004 0.850231
vt 0.380004 0.850231
vt 0.380004 0.850231
vt 0.380004 0.850231
vt 0.380004 0.850231
vt 0.380004 0.850231
vt 0.380004 0.850231
vt 0.380005 0.850231
vt 0.380004 0.850231
vt 0.380004 0.850230
vt 0.380004 0.850230
vt 0.380004 0.850231
vt 0.380003 0.850231
vt 0.380005 0.850231
vt 0.380004 0.850231
vt 0.380004 0.850231
vt 0.380004 0.850231
vt 0.380004 0.850231
vt 0.380004 0.850231
vt 0.380004 0.850231
vt 0.380004 0.850231
vt 0.380004 0.850231
vt 0.380004 0.850231
vt 0.380004 0.850232
vt 0.380004 0.850230
vt 0.380004 0.850231
vt 0.173675 0.850230
vt 0.173675 0.850231
vt 0.173675 0.850230
vt 0.173675 0.850231
vt 0.173675 0.850231
vt 0.173675 0.850231
vt 0.173675 0.850231
vt 0.173675 0.850231
vt 0.173675 0.850231
vn 0.5235 0.7116 -0.4686
vn -0.1314 0.5572 -0.8199
vn 0.7088 0.5424 0.4511
vn -0.6635 0.0000 0.7482
vn -0.4975 -0.6616 0.5611
vn -0.3714 0.9230 0.1002
vn 0.6766 -0.5974 0.4306
vn 0.7323 -0.6240 0.2727
vn -0.3009 0.0000 -0.9536
vn 0.2467 -0.6498 0.7190
vn 0.9371 -0.0000 0.3490
vn -0.6982 0.6780 -0.2300
vn 0.2608 0.5953 0.7600
vn -0.9498 0.0000 -0.3129
vn 0.7706 0.5690 0.2870
vn 0.7451 -0.0000 -0.6669
vn 0.0000 -1.0000 -0.0000
vn -0.1251 -0.6122 -0.7808
vn -0.1583 0.0000 -0.9874
vn 0.8436 0.0000 0.5369
vn -0.2434 -0.5882 -0.7712
vn 0.3246 0.0000 0.9459
vn 0.4845 -0.7598 -0.4336
vn -0.6504 -0.7288 -0.2143
vn -0.5271 0.6074 0.5944
vn -0.2546 0.5332 -0.8068
vn 0.0000 1.0000 0.0000
usemtl Material
s 1
f 1/1/1 2/2/1 3/3/1
f 2/2/1 1/1/1 4/4/1
f 5/5/2 6/6/2 7/7/2
f 6/6/2 5/5/2 8/8/2
f 2/2/3 9/9/3 3/3/3
f 9/9/3 2/2/3 10/10/3
f 11/11/4 12/12/4 13/13/4
f 12/12/4 11/11/4 14/14/4
f 13/13/5 15/15/5 16/16/5
f 15/15/5 13/13/5 12/12/5
f 17/17/6 18/18/6 19/19/6
f 20/20/7 21/21/7 22/22/7
f 21/21/7 20/20/7 23/23/7
f 20/20/8 24/24/8 23/23/8
f 24/24/8 20/20/8 25/25/8
f 6/6/9 26/26/9 27/27/9
f 26/26/9 6/6/9 1/1/9
f 25/25/10 16/16/10 24/24/10
f 16/16/10 25/25/10 13/13/10
f 28/28/11 20/20/11 9/9/11
f 20/20/11 28/28/11 25/25/11
f 14/14/12 5/5/12 7/7/12
f 5/5/12 14/14/12 19/19/12
f 19/19/12 14/14/12 17/17/12
f 29/29/13 11/11/13 28/28/13
f 11/11/13 29/29/13 30/30/13
f 12/12/14 7/7/14 31/31/14
f 7/7/14 12/12/14 14/14/14
f 29/29/15 9/9/15 10/10/15
f 9/9/15 29/29/15 28/28/15
f 3/3/16 26/26/16 1/1/16
f 26/26/16 3/3/16 22/22/16
f 23/23/17 32/32/17 21/21/17
f 32/32/17 23/23/17 24/24/17
f 32/32/17 24/24/17 33/33/17
f 33/33/17 24/24/17 16/16/17
f 33/33/17 16/16/17 34/34/17
f 34/34/17 16/16/17 15/15/17
f 31/31/18 33/33/18 34/34/18
f 33/33/18 31/31/18 27/27/18
f 7/7/19 27/27/19 31/31/19
f 27/27/19 7/7/19 6/6/19
f 9/9/20 22/22/20 3/3/20
f 22/22/20 9/9/20 20/20/20
f 27/27/21 32/32/21 33/33/21
f 32/32/21 27/27/21 26/26/21
f 28/28/22 13/13/22 25/25/22
f 13/13/22 28/28/22 11/11/22
f 21/21/23 26/26/23 22/22/23
f 26/26/23 21/21/23 32/32/23
f 15/15/24 31/31/24 34/34/24
f 31/31/24 15/15/24 12/12/24
f 18/18/25 11/11/25 30/30/25
f 11/11/25 18/18/25 14/14/25
f 14/14/25 18/18/25 17/17/25
f 8/8/26 1/1/26 6/6/26
f 1/1/26 8/8/26 4/4/26
f 4/35/27 10/36/27 2/37/27
f 10/36/27 4/35/27 29/38/27
f 29/38/27 4/35/27 8/39/27
f 29/38/27 8/39/27 30/40/27
f 30/40/27 8/39/27 5/41/27
f 30/40/27 5/41/27 18/42/27
f 18/42/27 5/41/27 19/43/27
