# Blender v2.83.0 OBJ File: 'World_Nature.blend'
# www.blender.org
mtllib World_Tree_3.mtl
o tree_tall
v 0.000000 0.663912 -0.230699
v 0.121133 0.337421 -0.069936
v 0.000000 0.337421 -0.139872
v 0.199792 0.663912 -0.115350
v -0.072680 0.289984 -0.041962
v 0.000000 0.289984 -0.083923
v -0.121133 0.337421 -0.069936
v -0.199792 0.663912 -0.115350
v 0.072680 0.289984 0.041962
v 0.121133 0.337421 0.069936
v 0.072680 0.289984 -0.041962
v 0.108939 1.609980 -0.062896
v 0.199792 0.663912 0.115350
v 0.108939 1.609980 0.062896
v 0.000000 0.337421 0.139872
v 0.000000 0.663911 0.230700
v -0.000000 1.609980 -0.125792
v -0.121133 0.337421 0.069936
v -0.072680 0.289984 0.041962
v 0.000000 0.289984 0.083923
v -0.108939 1.609980 -0.062896
v -0.199792 0.663912 0.115350
v -0.000000 1.609980 0.125792
v -0.108939 1.609980 0.062896
v -0.058370 1.687719 -0.033699
v 0.000000 1.687719 -0.067399
v 0.000000 1.687719 0.067400
v -0.058370 1.687719 0.033700
v 0.058370 1.687719 -0.033699
v 0.029646 0.289984 0.029646
v -0.029646 0.289984 0.029646
v -0.029646 0.289984 -0.029646
v 0.029646 0.289984 -0.029646
v 0.058370 1.687719 0.033700
v 0.046687 0.000000 -0.046687
v -0.046687 0.000000 -0.046687
v -0.046687 -0.000000 0.046687
v 0.046687 -0.000000 0.046687
vt 0.133967 0.862581
vt 0.133967 0.862581
vt 0.133967 0.862581
vt 0.133967 0.862581
vt 0.133967 0.862581
vt 0.133967 0.862581
vt 0.133967 0.862581
vt 0.133967 0.862581
vt 0.133967 0.862581
vt 0.133967 0.862581
vt 0.133967 0.862581
vt 0.133967 0.862581
vt 0.133967 0.862581
vt 0.133967 0.862581
vt 0.133967 0.862581
vt 0.133967 0.862581
vt 0.133967 0.862581
vt 0.133967 0.862581
vt 0.133967 0.862581
vt 0.133967 0.862581
vt 0.133967 0.862581
vt 0.133967 0.862581
vt 0.133967 0.862581
vt 0.133967 0.862581
vt 0.133967 0.862581
vt 0.133967 0.862581
vt 0.133967 0.862581
vt 0.133967 0.862581
vt 0.133967 0.862581
vt 0.133967 0.862581
vt 0.133967 0.862581
vt 0.133967 0.862581
vt 0.133967 0.862581
vt 0.133967 0.862581
vt 0.344687 0.866971
vt 0.344687 0.866971
vt 0.344687 0.866971
vt 0.344687 0.866971
vt 0.354394 0.870211
vt 0.354394 0.870211
vt 0.354394 0.870211
vt 0.354394 0.870211
vt 0.354394 0.870211
vt 0.354394 0.870211
vt 0.354394 0.870211
vt 0.354394 0.870211
vn 0.4861 -0.2342 -0.8419
vn -0.3498 -0.7146 -0.6059
vn -0.4861 -0.2342 -0.8419
vn 0.6996 -0.7146 0.0000
vn 0.9954 0.0956 0.0000
vn 0.4861 -0.2342 0.8419
vn 0.4977 0.0956 -0.8621
vn -0.6996 -0.7146 0.0000
vn 0.3498 -0.7146 0.6059
vn 0.3498 -0.7146 0.6058
vn -0.3498 -0.7146 0.6058
vn -0.3498 -0.7146 0.6059
vn -0.4977 0.0956 -0.8621
vn -0.4861 -0.2342 0.8419
vn 0.9722 -0.2342 0.0000
vn 0.4977 0.0956 0.8621
vn -0.9722 -0.2342 0.0000
vn -0.9954 0.0956 0.0000
vn -0.4191 0.5453 -0.7259
vn -0.4191 0.5453 0.7259
vn 0.4191 0.5453 -0.7259
vn 0.0000 -1.0000 -0.0000
vn -0.4977 0.0956 0.8621
vn 0.0000 1.0000 0.0000
vn 0.8383 0.5453 0.0000
vn 0.3498 -0.7146 -0.6059
vn 0.4191 0.5453 0.7259
vn -0.8383 0.5453 0.0000
vn 0.0000 0.0587 -0.9983
vn -0.9983 0.0587 0.0000
vn 0.0000 0.0587 0.9983
vn 0.9983 0.0587 0.0000
usemtl Material
s 1
f 1/1/1 2/2/1 3/3/1
f 2/2/1 1/1/1 4/4/1
f 5/5/2 3/3/2 6/6/2
f 3/3/2 5/5/2 7/7/2
f 8/8/3 3/3/3 7/7/3
f 3/3/3 8/8/3 1/1/3
f 9/9/4 2/2/4 10/10/4
f 2/2/4 9/9/4 11/11/4
f 12/12/5 13/13/5 4/4/5
f 13/13/5 12/12/5 14/14/5
f 13/13/6 15/15/6 10/10/6
f 15/15/6 13/13/6 16/16/6
f 17/17/7 4/4/7 1/1/7
f 4/4/7 17/17/7 12/12/7
f 18/18/8 5/5/8 19/19/8
f 5/5/8 18/18/8 7/7/8
f 15/15/9 9/9/10 10/10/10
f 9/9/10 15/15/9 20/20/9
f 18/18/11 20/20/12 15/15/12
f 20/20/12 18/18/11 19/19/11
f 21/21/13 1/1/13 8/8/13
f 1/1/13 21/21/13 17/17/13
f 16/16/14 18/18/14 15/15/14
f 18/18/14 16/16/14 22/22/14
f 13/13/15 2/2/15 4/4/15
f 2/2/15 13/13/15 10/10/15
f 14/14/16 16/16/16 13/13/16
f 16/16/16 14/14/16 23/23/16
f 7/7/17 22/22/17 8/8/17
f 22/22/17 7/7/17 18/18/17
f 22/22/18 21/21/18 8/8/18
f 21/21/18 22/22/18 24/24/18
f 25/25/19 17/17/19 21/21/19
f 17/17/19 25/25/19 26/26/19
f 27/27/20 24/24/20 23/23/20
f 24/24/20 27/27/20 28/28/20
f 26/26/21 12/12/21 17/17/21
f 12/12/21 26/26/21 29/29/21
f 20/20/22 11/11/22 9/9/22
f 11/11/22 20/20/22 30/30/22
f 30/30/22 20/20/22 31/31/22
f 31/31/22 20/20/22 19/19/22
f 31/31/22 19/19/22 32/32/22
f 33/33/22 11/11/22 30/30/22
f 11/11/22 33/33/22 6/6/22
f 6/6/22 33/33/22 32/32/22
f 6/6/22 32/32/22 5/5/22
f 5/5/22 32/32/22 19/19/22
f 23/23/23 22/22/23 16/16/23
f 22/22/23 23/23/23 24/24/23
f 26/26/24 34/34/24 29/29/24
f 34/34/24 26/26/24 27/27/24
f 27/27/24 26/26/24 25/25/24
f 27/27/24 25/25/24 28/28/24
f 29/29/25 14/14/25 12/12/25
f 14/14/25 29/29/25 34/34/25
f 11/11/26 3/3/26 2/2/26
f 3/3/26 11/11/26 6/6/26
f 34/34/27 23/23/27 14/14/27
f 23/23/27 34/34/27 27/27/27
f 24/24/28 25/25/28 21/21/28
f 25/25/28 24/24/28 28/28/28
f 32/35/29 35/36/29 36/37/29
f 35/36/29 32/35/29 33/38/29
f 37/39/30 32/40/30 36/41/30
f 32/40/30 37/39/30 31/42/30
f 30/43/31 37/39/31 38/44/31
f 37/39/31 30/43/31 31/42/31
f 33/45/32 38/44/32 35/46/32
f 38/44/32 33/45/32 30/43/32
f 37/39/22 35/46/22 38/44/22
f 35/46/22 37/39/22 36/41/22
