# Blender v2.83.0 OBJ File: 'World_Nature.blend'
# www.blender.org
mtllib World_Tree_1.mtl
o tree_cone
v 0.048780 0.091770 0.048780
v -0.075046 -0.000000 0.075046
v 0.075046 -0.000000 0.075046
v -0.048780 0.091770 0.048780
v -0.048780 0.091770 -0.048780
v -0.075046 0.000000 -0.075046
v 0.075046 0.000000 -0.075046
v 0.048780 0.091770 -0.048780
v -0.094911 0.179013 0.013042
v -0.093777 0.204780 -0.007592
v -0.094911 0.179013 -0.007592
v -0.093777 0.204780 0.013042
v -0.043558 0.210482 0.019365
v -0.043558 0.210482 -0.013915
v -0.045386 0.168922 0.019365
v -0.045386 0.168922 -0.013915
v -0.028902 0.543629 -0.028902
v -0.028902 0.543629 0.028902
v -0.017916 0.356809 0.037121
v -0.011260 0.385967 0.094134
v -0.017916 0.390057 0.035658
v -0.011260 0.366018 0.095012
v 0.008708 0.385967 0.094134
v 0.015364 0.356809 0.037121
v 0.015364 0.390057 0.035658
v 0.008708 0.366018 0.095012
v 0.028902 0.543629 0.028902
v 0.028902 0.543629 -0.028902
v 0.000000 1.382285 -0.097170
v 0.030674 1.430333 -0.030674
v 0.068710 1.382285 -0.068709
v 0.000000 1.430333 -0.043379
v 0.000000 1.150781 0.192798
v -0.187264 0.696509 0.187265
v 0.000000 0.696509 0.264832
v -0.136329 1.150781 0.136329
v 0.136329 1.150781 -0.136328
v 0.264832 0.696509 0.000000
v 0.187264 0.696509 -0.187264
v 0.192798 1.150781 0.000000
v -0.145166 0.543629 -0.145166
v -0.264832 0.696509 0.000000
v -0.187264 0.696509 -0.187264
v -0.205296 0.543629 0.000000
v 0.000000 1.382285 0.097170
v -0.068710 1.382285 0.068710
v 0.000000 1.150781 -0.192797
v 0.068710 1.382285 0.068710
v 0.136329 1.150781 0.136329
v -0.145166 0.543629 0.145166
v 0.000000 0.696509 -0.264832
v 0.000000 0.543629 0.205296
v 0.030674 1.430333 0.030674
v 0.000000 1.430333 0.043380
v 0.145166 0.543629 -0.145166
v 0.000000 0.543629 -0.205296
v 0.187264 0.696509 0.187265
v 0.205296 0.543629 0.000000
v 0.145166 0.543629 0.145166
v -0.192798 1.150781 0.000000
v -0.068710 1.382285 -0.068709
v -0.136329 1.150781 -0.136328
v -0.030674 1.430333 -0.030674
v 0.097170 1.382285 0.000000
v -0.043379 1.430333 0.000000
v -0.097170 1.382285 0.000000
v -0.030674 1.430333 0.030674
v 0.043379 1.430333 0.000000
vt 0.396967 0.866216
vt 0.396967 0.866216
vt 0.396967 0.866216
vt 0.396967 0.866216
vt 0.396967 0.866216
vt 0.396967 0.866216
vt 0.396967 0.866216
vt 0.396967 0.866216
vt 0.396967 0.866216
vt 0.396967 0.866216
vt 0.396967 0.866216
vt 0.396967 0.866216
vt 0.396967 0.866216
vt 0.396967 0.866216
vt 0.396967 0.866216
vt 0.396967 0.866216
vt 0.396967 0.866216
vt 0.396967 0.866216
vt 0.396967 0.866216
vt 0.396967 0.866216
vt 0.396967 0.866216
vt 0.396967 0.866216
vt 0.396967 0.866216
vt 0.396967 0.866216
vt 0.396967 0.866216
vt 0.396967 0.866216
vt 0.396967 0.866216
vt 0.396967 0.866216
vt 0.123027 0.831858
vt 0.123027 0.831858
vt 0.123027 0.831858
vt 0.123027 0.831858
vt 0.123027 0.831858
vt 0.123027 0.831858
vt 0.123027 0.831858
vt 0.123027 0.831858
vt 0.123027 0.831858
vt 0.123027 0.831858
vt 0.123027 0.831858
vt 0.123027 0.831858
vt 0.123027 0.831858
vt 0.123027 0.831858
vt 0.123027 0.831858
vt 0.123027 0.831858
vt 0.123027 0.831858
vt 0.123027 0.831858
vt 0.123027 0.831858
vt 0.123027 0.831858
vt 0.123027 0.831858
vt 0.123027 0.831858
vt 0.123027 0.831858
vt 0.123027 0.831858
vt 0.123027 0.831858
vt 0.123027 0.831858
vt 0.123027 0.831858
vt 0.123027 0.831858
vt 0.123027 0.831858
vt 0.123027 0.831858
vt 0.123027 0.831858
vt 0.123027 0.831858
vt 0.123027 0.831858
vt 0.123027 0.831858
vt 0.123027 0.831858
vt 0.123027 0.831858
vt 0.123027 0.831858
vt 0.123027 0.831858
vt 0.123027 0.831858
vt 0.123027 0.831858
vt 0.123027 0.831858
vt 0.123027 0.831858
vt 0.123027 0.831858
vt 0.123027 0.831858
vn 0.0000 0.2752 0.9614
vn -0.9614 0.2752 0.0000
vn 0.0000 0.2752 -0.9614
vn 0.9614 0.2752 0.0000
vn -0.9990 0.0439 0.0000
vn -0.1128 0.9936 0.0000
vn -0.1255 0.0055 0.9921
vn 0.0000 -1.0000 -0.0000
vn -0.1255 0.0055 -0.9921
vn -0.1996 -0.9799 0.0000
vn -0.9935 0.0050 0.1134
vn 0.9935 0.0050 0.1134
vn 0.0000 0.0439 0.9990
vn 0.0000 -0.9876 0.1571
vn 0.0000 0.0439 -0.9990
vn 0.9990 0.0439 0.0000
vn 0.0000 0.9976 0.0698
vn 0.2660 0.7189 -0.6422
vn -0.3786 0.1450 0.9141
vn 0.9141 0.1450 -0.3786
vn -0.8693 -0.3385 -0.3601
vn -0.3575 0.3565 0.8632
vn 0.3575 0.3565 -0.8632
vn 0.3575 0.3565 0.8632
vn -0.8693 -0.3385 0.3601
vn 0.3786 0.1450 -0.9141
vn -0.3601 -0.3385 0.8693
vn 0.2660 0.7189 0.6422
vn 0.3601 -0.3385 -0.8693
vn -0.3601 -0.3385 -0.8693
vn 0.8693 -0.3385 0.3601
vn 0.3601 -0.3385 0.8693
vn 0.8693 -0.3385 -0.3601
vn -0.9141 0.1450 0.3786
vn -0.3575 0.3565 -0.8632
vn -0.9141 0.1450 -0.3786
vn -0.2660 0.7189 -0.6422
vn 0.8632 0.3565 0.3575
vn -0.6422 0.7189 -0.2660
vn -0.6422 0.7189 0.2660
vn -0.3786 0.1450 -0.9141
vn 0.3786 0.1450 0.9141
vn 0.6422 0.7189 0.2660
vn -0.2660 0.7189 0.6422
vn -0.8632 0.3565 -0.3575
vn 0.6422 0.7189 -0.2660
vn 0.8632 0.3565 -0.3575
vn 0.0000 1.0000 0.0000
vn 0.9141 0.1450 0.3786
vn -0.8632 0.3565 0.3575
usemtl Material
s 1
f 1/1/1 2/2/1 3/3/1
f 2/2/1 1/1/1 4/4/1
f 2/2/2 5/5/2 6/6/2
f 5/5/2 2/2/2 4/4/2
f 5/5/3 7/7/3 6/6/3
f 7/7/3 5/5/3 8/8/3
f 8/8/4 3/3/4 7/7/4
f 3/3/4 8/8/4 1/1/4
f 9/9/5 10/10/5 11/11/5
f 10/10/5 9/9/5 12/12/5
f 10/10/6 13/13/6 14/14/6
f 13/13/6 10/10/6 12/12/6
f 13/13/7 9/9/7 15/15/7
f 9/9/7 13/13/7 12/12/7
f 2/2/8 7/7/8 3/3/8
f 7/7/8 2/2/8 6/6/8
f 11/11/9 14/14/9 16/16/9
f 14/14/9 11/11/9 10/10/9
f 9/9/10 16/16/10 15/15/10
f 16/16/10 9/9/10 11/11/10
f 5/5/5 16/16/5 17/17/5
f 16/16/5 5/5/5 4/4/5
f 16/16/5 4/4/5 15/15/5
f 15/15/5 4/4/5 13/13/5
f 13/13/5 4/4/5 18/18/5
f 17/17/5 14/14/5 18/18/5
f 14/14/5 17/17/5 16/16/5
f 18/18/5 14/14/5 13/13/5
f 19/19/11 20/20/11 21/21/11
f 20/20/11 19/19/11 22/22/11
f 23/23/12 24/24/12 25/25/12
f 24/24/12 23/23/12 26/26/12
f 1/1/13 24/24/13 4/4/13
f 24/24/13 1/1/13 27/27/13
f 24/24/13 27/27/13 25/25/13
f 25/25/13 27/27/13 21/21/13
f 19/19/13 4/4/13 24/24/13
f 4/4/13 19/19/13 18/18/13
f 18/18/13 19/19/13 21/21/13
f 18/18/13 21/21/13 27/27/13
f 26/26/14 19/19/14 24/24/14
f 19/19/14 26/26/14 22/22/14
f 17/17/15 8/8/15 5/5/15
f 8/8/15 17/17/15 28/28/15
f 28/28/16 1/1/16 8/8/16
f 1/1/16 28/28/16 27/27/16
f 23/23/13 22/22/13 26/26/13
f 22/22/13 23/23/13 20/20/13
f 21/21/17 23/23/17 25/25/17
f 23/23/17 21/21/17 20/20/17
f 29/29/18 30/30/18 31/31/18
f 30/30/18 29/29/18 32/32/18
f 33/33/19 34/34/19 35/35/19
f 34/34/19 33/33/19 36/36/19
f 37/37/20 38/38/20 39/39/20
f 38/38/20 37/37/20 40/40/20
f 41/41/21 42/42/21 43/43/21
f 42/42/21 41/41/21 44/44/21
f 45/45/22 36/36/22 33/33/22
f 36/36/22 45/45/22 46/46/22
f 29/29/23 37/37/23 47/47/23
f 37/37/23 29/29/23 31/31/23
f 48/48/24 33/33/24 49/49/24
f 33/33/24 48/48/24 45/45/24
f 44/44/25 34/34/25 42/42/25
f 34/34/25 44/44/25 50/50/25
f 47/47/26 39/39/26 51/51/26
f 39/39/26 47/47/26 37/37/26
f 35/35/27 50/50/27 52/52/27
f 50/50/27 35/35/27 34/34/27
f 53/53/28 45/45/28 48/48/28
f 45/45/28 53/53/28 54/54/28
f 51/51/29 55/55/29 56/56/29
f 55/55/29 51/51/29 39/39/29
f 43/43/30 56/56/30 41/41/30
f 56/56/30 43/43/30 51/51/30
f 57/57/31 58/58/31 38/38/31
f 58/58/31 57/57/31 59/59/31
f 57/57/32 52/52/32 59/59/32
f 52/52/32 57/57/32 35/35/32
f 38/38/33 55/55/33 39/39/33
f 55/55/33 38/38/33 58/58/33
f 42/42/34 36/36/34 60/60/34
f 36/36/34 42/42/34 34/34/34
f 59/59/8 55/55/8 58/58/8
f 55/55/8 59/59/8 52/52/8
f 55/55/8 52/52/8 27/61/8
f 27/61/8 52/52/8 18/62/8
f 18/62/8 52/52/8 50/50/8
f 18/62/8 50/50/8 17/63/8
f 28/64/8 55/55/8 27/61/8
f 55/55/8 28/64/8 56/56/8
f 56/56/8 28/64/8 17/63/8
f 56/56/8 17/63/8 41/41/8
f 41/41/8 17/63/8 50/50/8
f 41/41/8 50/50/8 44/44/8
f 61/65/35 47/47/35 62/66/35
f 47/47/35 61/65/35 29/29/35
f 42/42/36 62/66/36 43/43/36
f 62/66/36 42/42/36 60/60/36
f 61/65/37 32/32/37 29/29/37
f 32/32/37 61/65/37 63/67/37
f 48/48/38 40/40/38 64/68/38
f 40/40/38 48/48/38 49/49/38
f 61/65/39 65/69/39 63/67/39
f 65/69/39 61/65/39 66/70/39
f 65/69/40 46/46/40 67/71/40
f 46/46/40 65/69/40 66/70/40
f 62/66/41 51/51/41 43/43/41
f 51/51/41 62/66/41 47/47/41
f 49/49/42 35/35/42 57/57/42
f 35/35/42 49/49/42 33/33/42
f 68/72/43 48/48/43 64/68/43
f 48/48/43 68/72/43 53/53/43
f 67/71/44 45/45/44 54/54/44
f 45/45/44 67/71/44 46/46/44
f 60/60/45 61/65/45 62/66/45
f 61/65/45 60/60/45 66/70/45
f 31/31/46 68/72/46 64/68/46
f 68/72/46 31/31/46 30/30/46
f 31/31/47 40/40/47 37/37/47
f 40/40/47 31/31/47 64/68/47
f 30/30/48 53/53/48 68/72/48
f 53/53/48 30/30/48 32/32/48
f 53/53/48 32/32/48 54/54/48
f 54/54/48 32/32/48 63/67/48
f 54/54/48 63/67/48 67/71/48
f 67/71/48 63/67/48 65/69/48
f 49/49/49 38/38/49 40/40/49
f 38/38/49 49/49/49 57/57/49
f 60/60/50 46/46/50 66/70/50
f 46/46/50 60/60/50 36/36/50
