# Blender v2.83.0 OBJ File: 'World_Nature.blend'
# www.blender.org
mtllib World_Bush_1.mtl
o plant_bushLarge
v 0.062385 -0.000000 0.036018
v 0.000000 0.061962 0.108054
v 0.000000 -0.000000 0.072036
v 0.093578 0.061962 0.054027
v -0.145357 0.220110 -0.083922
v -0.000000 0.104052 -0.108054
v -0.093577 0.104052 -0.054027
v 0.000000 0.220110 -0.167844
v -0.000000 0.131073 -0.167844
v 0.093577 0.135279 -0.162081
v 0.145357 0.131073 -0.083922
v -0.093577 0.234233 -0.162081
v -0.062385 0.000000 -0.036018
v 0.000000 0.000000 -0.072036
v 0.000000 0.131073 0.167844
v 0.145357 0.131073 0.083922
v 0.093578 0.135279 0.162081
v 0.093577 0.061962 -0.054027
v -0.000000 0.061962 -0.108054
v 0.093577 0.104052 0.054027
v 0.062385 0.000000 -0.036018
v 0.093577 0.104052 -0.054027
v 0.145357 0.220110 0.083922
v 0.145357 0.220110 -0.083922
v 0.000000 0.220110 0.167844
v -0.093577 0.104052 0.054027
v -0.000000 0.104052 0.108054
v -0.145357 0.220110 0.083922
v -0.093577 0.061962 0.054027
v -0.093577 0.061962 -0.054027
v -0.062385 -0.000000 0.036018
v -0.145357 0.131073 0.083922
v -0.145357 0.131073 -0.083922
v 0.187155 0.237133 0.000000
v -0.093577 0.242933 0.162081
v -0.187155 0.123679 0.000000
vt 0.142945 0.828281
vt 0.142945 0.828280
vt 0.142945 0.828281
vt 0.142945 0.828280
vt 0.142945 0.828281
vt 0.142945 0.828281
vt 0.142945 0.828281
vt 0.142945 0.828281
vt 0.142945 0.828281
vt 0.142945 0.828281
vt 0.142945 0.828281
vt 0.142945 0.828281
vt 0.142945 0.828281
vt 0.142945 0.828281
vt 0.142945 0.828281
vt 0.142945 0.828281
vt 0.142945 0.828281
vt 0.142945 0.828281
vt 0.142945 0.828281
vt 0.142945 0.828281
vt 0.142945 0.828281
vt 0.142945 0.828281
vt 0.142945 0.828281
vt 0.142945 0.828281
vt 0.142945 0.828281
vt 0.142945 0.828281
vt 0.142945 0.828281
vt 0.142945 0.828281
vt 0.142945 0.828280
vt 0.142945 0.828281
vt 0.142945 0.828280
vt 0.142945 0.828281
vt 0.142945 0.828281
vt 0.142945 0.828281
vt 0.142945 0.828281
vt 0.142945 0.828282
vn -0.4466 0.4497 -0.7735
vn 0.4566 0.4074 0.7909
vn -0.0501 0.9950 0.0867
vn 0.1601 0.9474 0.2772
vn -0.4789 -0.2872 -0.8296
vn 0.4789 0.2872 0.8296
vn -0.0501 0.9950 -0.0867
vn 0.4001 -0.5996 -0.6931
vn -0.9579 0.2872 0.0000
vn 0.9132 -0.4074 -0.0000
vn 0.4566 0.4074 -0.7909
vn 0.4466 -0.4497 -0.7735
vn -0.8932 -0.4497 -0.0000
vn 0.8932 0.4497 0.0000
vn -0.8003 -0.5996 -0.0000
vn -0.3772 0.9261 0.0000
vn -0.2396 -0.8777 0.4150
vn 0.4789 0.2872 -0.8296
vn 0.4001 -0.5996 0.6931
vn -0.4001 0.5996 -0.6931
vn -0.1742 0.9847 0.0000
usemtl Material
s 1
f 3/1/1 2/2/1 1/3/1
f 4/4/1 1/3/1 2/2/1
f 7/5/2 6/6/2 5/7/2
f 8/8/2 5/7/2 6/6/2
f 11/9/3 10/10/3 9/11/3
f 8/8/4 12/12/4 5/7/4
f 13/13/5 6/6/5 14/14/5
f 7/5/6 13/13/6 6/6/6
f 17/15/7 16/16/7 15/17/7
f 9/11/8 18/18/8 19/19/8
f 18/18/8 9/11/8 11/9/8
f 22/20/9 21/21/9 20/22/9
f 1/3/9 20/22/9 21/21/9
f 23/23/10 22/20/10 24/24/10
f 22/20/10 23/23/10 20/22/10
f 27/25/11 26/26/11 25/27/11
f 28/28/11 25/27/11 26/26/11
f 19/19/12 21/21/12 14/14/12
f 21/21/12 19/19/12 18/18/12
f 29/29/13 13/13/13 31/30/13
f 30/31/14 29/29/14 13/13/14
f 30/31/15 32/32/15 33/33/15
f 32/32/15 30/31/15 29/29/15
f 23/23/16 34/34/16 24/24/16
f 28/28/17 25/27/17 35/35/17
f 31/30/18 26/26/18 3/1/18
f 27/25/18 3/1/18 26/26/18
f 2/2/19 16/16/19 15/17/19
f 4/4/20 2/2/20 16/16/20
f 32/32/21 33/33/21 36/36/21
