# Blender v2.83.0 OBJ File: 'World_Nature.blend'
# www.blender.org
mtllib World_Crops_2.mtl
o crops_leafsStageA
v -0.041139 0.195306 0.055736
v 0.055309 0.254424 0.110438
v 0.041139 0.195306 0.055736
v -0.055309 0.254424 0.110438
v 0.032000 0.042000 0.032000
v 0.032000 0.198000 -0.032000
v 0.032000 0.042000 -0.032000
v 0.032000 0.106000 0.032000
v 0.032000 0.198000 0.032000
v 0.026970 0.221075 -0.194689
v -0.055309 0.190424 -0.110438
v 0.055309 0.190424 -0.110438
v -0.026970 0.221075 -0.194689
v 0.055736 0.337306 -0.041139
v 0.110438 0.396424 0.055309
v 0.110438 0.396424 -0.055309
v 0.055736 0.337306 0.041139
v 0.194689 0.427075 -0.026970
v 0.194689 0.427075 0.026970
v 0.041139 0.131306 -0.055736
v -0.032000 0.042000 -0.032000
v -0.041139 0.131306 -0.055736
v -0.110438 0.382424 0.055309
v -0.055736 0.323306 -0.041139
v -0.110438 0.382424 -0.055309
v -0.055736 0.323306 0.041139
v -0.194689 0.413075 0.026970
v -0.194689 0.413075 -0.026970
v -0.032000 0.184000 -0.032000
v -0.032000 0.184000 0.032000
v 0.026970 0.285075 0.194689
v -0.026970 0.285075 0.194689
v -0.032000 0.042000 0.032000
v -0.032000 0.106000 0.032000
v 0.016000 0.000000 -0.016000
v -0.016000 0.000000 -0.016000
v -0.016000 -0.000000 0.016000
v 0.016000 -0.000000 0.016000
vt 0.134165 0.872181
vt 0.134165 0.872181
vt 0.134165 0.872181
vt 0.134165 0.872181
vt 0.134165 0.872182
vt 0.134165 0.872181
vt 0.134165 0.872182
vt 0.134165 0.872181
vt 0.134165 0.872181
vt 0.134165 0.872181
vt 0.134165 0.872181
vt 0.134165 0.872181
vt 0.134165 0.872181
vt 0.134165 0.872181
vt 0.134165 0.872181
vt 0.134165 0.872181
vt 0.134165 0.872181
vt 0.134165 0.872181
vt 0.134165 0.872181
vt 0.134165 0.872181
vt 0.134165 0.872181
vt 0.134165 0.872181
vt 0.134165 0.872181
vt 0.134165 0.872181
vt 0.134165 0.872181
vt 0.134165 0.872181
vt 0.134165 0.872181
vt 0.134165 0.872181
vt 0.134165 0.872181
vt 0.134165 0.872181
vt 0.134165 0.872181
vt 0.134165 0.872181
vt 0.134165 0.872182
vt 0.134165 0.872181
vt 0.134165 0.872181
vt 0.134165 0.872181
vt 0.134165 0.872181
vt 0.134165 0.872181
vn 0.0000 -0.6792 0.7340
vn -1.0000 0.0000 0.0000
vn 1.0000 0.0000 0.0000
vn 0.0000 -0.9397 -0.3419
vn -0.7340 0.6792 0.0000
vn 0.7340 -0.6792 0.0000
vn -0.9858 0.1680 0.0000
vn 0.9858 -0.1680 0.0000
vn -0.3419 0.9397 0.0000
vn 0.3419 -0.9397 0.0000
vn 0.0000 -0.2569 -0.9664
vn 0.7340 0.6792 0.0000
vn -0.7340 -0.6792 0.0000
vn -0.3419 -0.9397 0.0000
vn -0.9858 -0.1680 0.0000
vn 0.0000 0.9397 -0.3419
vn 0.0000 -0.9397 0.3419
vn -0.0000 0.0000 -1.0000
vn 0.0000 -0.2569 0.9664
vn 0.0000 -0.0000 1.0000
vn 0.0000 -0.3560 -0.9345
vn -0.9345 -0.3560 -0.0000
vn 0.0000 -0.3560 0.9345
vn 0.0000 0.6792 0.7340
vn 0.9345 -0.3560 -0.0000
vn 0.0000 1.0000 0.0000
vn 0.0000 -1.0000 -0.0000
usemtl Material
s 1
f 3/1/1 2/2/1 1/3/1
f 4/4/1 1/3/1 2/2/1
f 5/5/2 6/6/2 7/7/2
f 6/6/2 5/5/2 8/8/2
f 9/9/3 8/8/3 6/6/3
f 12/10/4 11/11/4 10/12/4
f 13/13/4 10/12/4 11/11/4
f 14/14/5 15/15/5 16/16/5
f 17/17/6 14/14/6 15/15/6
f 17/17/7 6/6/7 9/9/7
f 14/14/8 17/17/8 6/6/8
f 15/15/9 18/18/9 16/16/9
f 19/19/10 15/15/10 18/18/10
f 7/7/11 21/20/11 20/21/11
f 22/22/11 20/21/11 21/20/11
f 24/23/12 23/24/12 26/25/12
f 25/26/13 24/23/13 23/24/13
f 23/24/14 27/27/14 25/26/14
f 28/28/14 25/26/14 27/27/14
f 24/23/15 29/29/15 26/25/15
f 30/30/15 26/25/15 29/29/15
f 31/31/16 4/4/16 32/32/16
f 2/2/17 31/31/17 4/4/17
f 21/20/3 30/30/3 33/33/3
f 33/33/3 30/30/3 34/34/18
f 29/29/2 21/20/2 30/30/2
f 34/34/19 8/8/19 1/3/19
f 3/1/19 1/3/19 8/8/19
f 34/34/18 5/5/18 33/33/18
f 8/8/20 34/34/20 5/5/20
f 21/20/21 35/35/21 36/36/21
f 35/35/21 21/20/21 7/7/21
f 36/36/22 33/33/22 21/20/22
f 33/33/22 36/36/22 37/37/22
f 5/5/23 37/37/23 38/38/23
f 37/37/23 5/5/23 33/33/23
f 20/21/24 11/11/24 22/22/24
f 11/11/24 20/21/24 12/10/24
f 5/5/25 35/35/25 7/7/25
f 35/35/25 5/5/25 38/38/25
f 7/7/26 33/33/26 5/5/26
f 33/33/26 7/7/26 21/20/26
f 37/37/27 35/35/27 38/38/27
f 35/35/27 37/37/27 36/36/27
