# Blender v2.83.1 OBJ File: 'World_Nature.blend'
# www.blender.org
o Base_Building_003_wallWindowSmall.003
v 0.500000 1.000000 0.400000
v 0.500000 -0.000000 0.500000
v 0.500000 -0.000000 0.400000
v 0.500000 1.000000 0.500000
v -0.110000 0.750000 0.425000
v 0.110000 0.750000 0.400000
v -0.110000 0.750000 0.400000
v 0.110000 0.750000 0.425000
v 0.110000 0.250000 0.500000
v -0.110000 0.250000 0.475000
v 0.110000 0.250000 0.475000
v -0.110000 0.250000 0.500000
v -0.160000 0.800000 0.425000
v -0.160000 0.200000 0.425000
v 0.160000 0.800000 0.425000
v 0.110000 0.250000 0.425000
v -0.110000 0.250000 0.425000
v 0.160000 0.200000 0.425000
v 0.160000 0.250000 0.425000
v -0.110000 0.750000 0.500000
v 0.110000 0.750000 0.475000
v -0.110000 0.750000 0.475000
v 0.110000 0.750000 0.500000
v 0.400000 -0.000000 0.400000
v 0.400000 -0.000000 0.425000
v 0.400000 -0.000000 0.475000
v 0.400000 -0.000000 0.500000
v -0.500000 1.000000 0.500000
v -0.400000 1.000000 0.400000
v -0.500000 1.000000 0.400000
v -0.400000 1.000000 0.425000
v -0.400000 1.000000 0.475000
v -0.400000 1.000000 0.500000
v -0.060000 0.300000 0.500000
v 0.060000 0.300000 0.500000
v 0.060000 0.700000 0.500000
v -0.060000 0.700000 0.500000
v -0.400000 0.000000 0.500000
v -0.500000 0.000000 0.500000
v 0.400000 1.000000 0.425000
v 0.400000 1.000000 0.400000
v -0.400000 0.000000 0.425000
v -0.400000 0.000000 0.400000
v 0.400000 1.000000 0.500000
v 0.400000 1.000000 0.475000
v -0.160000 0.200000 0.475000
v -0.160000 0.800000 0.475000
v 0.160000 0.200000 0.475000
v 0.160000 0.800000 0.475000
v 0.160000 0.250000 0.475000
v -0.500000 0.000000 0.400000
v -0.400000 0.000000 0.475000
v 0.060000 0.300000 0.400000
v 0.060000 0.700000 0.400000
v -0.060000 0.300000 0.400000
v -0.060000 0.700000 0.400000
v -0.110000 0.250000 0.400000
v 0.110000 0.250000 0.400000
v 0.500000 1.000000 -0.500000
v 0.500000 -0.000000 -0.400000
v 0.500000 -0.000000 -0.500000
v 0.500000 1.000000 -0.400000
v -0.110000 0.750000 -0.475000
v 0.110000 0.750000 -0.500000
v -0.110000 0.750000 -0.500000
v 0.110000 0.750000 -0.475000
v 0.110000 0.250000 -0.400000
v -0.110000 0.250000 -0.425000
v 0.110000 0.250000 -0.425000
v -0.110000 0.250000 -0.400000
v -0.160000 0.800000 -0.475000
v -0.160000 0.200000 -0.475000
v 0.160000 0.800000 -0.475000
v 0.110000 0.250000 -0.475000
v -0.110000 0.250000 -0.475000
v 0.160000 0.200000 -0.475000
v 0.160000 0.250000 -0.475000
v -0.110000 0.750000 -0.400000
v 0.110000 0.750000 -0.425000
v -0.110000 0.750000 -0.425000
v 0.110000 0.750000 -0.400000
v 0.400000 -0.000000 -0.500000
v 0.400000 -0.000000 -0.475000
v 0.400000 -0.000000 -0.425000
v 0.400000 -0.000000 -0.400000
v -0.500000 1.000000 -0.400000
v -0.400000 1.000000 -0.500000
v -0.500000 1.000000 -0.500000
v -0.400000 1.000000 -0.475000
v -0.400000 1.000000 -0.425000
v -0.400000 1.000000 -0.400000
v -0.060000 0.300000 -0.400000
v 0.060000 0.300000 -0.400000
v 0.060000 0.700000 -0.400000
v -0.060000 0.700000 -0.400000
v -0.400000 0.000000 -0.400000
v -0.500000 0.000000 -0.400000
v 0.400000 1.000000 -0.475000
v 0.400000 1.000000 -0.500000
v -0.400000 0.000000 -0.475000
v -0.400000 0.000000 -0.500000
v 0.400000 1.000000 -0.400000
v 0.400000 1.000000 -0.425000
v -0.160000 0.200000 -0.425000
v -0.160000 0.800000 -0.425000
v 0.160000 0.200000 -0.425000
v 0.160000 0.800000 -0.425000
v 0.160000 0.250000 -0.425000
v -0.500000 0.000000 -0.500000
v -0.400000 0.000000 -0.425000
v 0.060000 0.300000 -0.500000
v 0.060000 0.700000 -0.500000
v -0.060000 0.300000 -0.500000
v -0.060000 0.700000 -0.500000
v -0.110000 0.250000 -0.500000
v 0.110000 0.250000 -0.500000
v 0.425000 -0.000000 0.400000
v 0.425000 0.850000 0.300000
v 0.425000 -0.000000 0.300000
v 0.425000 1.000000 0.400000
v 0.425000 0.850000 -0.300000
v 0.425000 1.000000 -0.400000
v 0.425000 0.000000 -0.300000
v 0.425000 0.000000 -0.400000
v 0.475000 0.000000 -0.400000
v 0.475000 0.000000 -0.300000
v 0.475000 1.000000 -0.400000
v 0.475000 0.850000 -0.300000
v 0.475000 1.000000 0.400000
v 0.475000 0.850000 0.300000
v 0.475000 -0.000000 0.300000
v 0.475000 -0.000000 0.400000
v 0.500000 0.750000 -0.200000
v 0.400000 0.000000 -0.200000
v 0.500000 0.000000 -0.200000
v 0.400000 0.750000 -0.200000
v 0.500000 1.000000 0.500000
v 0.500000 1.000000 0.400000
v 0.400000 1.000000 0.500000
v 0.400000 1.000000 0.400000
v 0.400000 0.000000 -0.400000
v 0.400000 1.000000 -0.500000
v 0.400000 0.000000 -0.500000
v 0.400000 1.000000 -0.400000
v 0.500000 0.850000 0.300000
v 0.500000 0.850000 -0.300000
v 0.500000 0.000000 -0.300000
v 0.400000 0.000000 -0.300000
v 0.500000 -0.000000 0.400000
v 0.500000 -0.000000 0.500000
v 0.400000 -0.000000 0.300000
v 0.400000 0.750000 0.200000
v 0.400000 -0.000000 0.200000
v 0.400000 0.850000 0.300000
v 0.400000 0.850000 -0.300000
v 0.500000 1.000000 -0.400000
v 0.500000 0.000000 -0.400000
v 0.400000 -0.000000 0.500000
v 0.400000 -0.000000 0.400000
v 0.500000 0.750000 0.200000
v 0.500000 -0.000000 0.200000
v 0.500000 0.000000 -0.500000
v 0.500000 -0.000000 0.300000
v 0.500000 1.000000 -0.500000
v -0.400000 1.000000 0.500000
v -0.400000 0.000000 0.400000
v -0.400000 1.000000 0.400000
v -0.400000 0.000000 0.500000
v -0.425000 0.000000 -0.400000
v -0.400000 0.000000 -0.500000
v -0.400000 0.000000 -0.400000
v -0.500000 0.000000 -0.500000
v -0.475000 0.000000 -0.400000
v -0.500000 0.000000 -0.400000
v -0.500000 1.000000 -0.500000
v -0.400000 1.000000 -0.500000
v -0.425000 1.000000 0.400000
v -0.500000 1.000000 0.500000
v -0.475000 1.000000 0.400000
v -0.500000 1.000000 0.400000
v -0.425000 0.000000 0.400000
v -0.475000 1.000000 -0.400000
v -0.500000 1.000000 -0.400000
v -0.400000 1.000000 -0.400000
v -0.425000 1.000000 -0.400000
v -0.475000 0.000000 0.400000
v -0.500000 0.000000 0.400000
v -0.500000 0.000000 0.500000
vt 0.371427 0.622434
vt 0.371427 0.622434
vt 0.371427 0.622434
vt 0.371427 0.622434
vt 0.371427 0.622434
vt 0.371427 0.622434
vt 0.371427 0.622434
vt 0.371427 0.622434
vt 0.371427 0.622434
vt 0.371427 0.622434
vt 0.371427 0.622434
vt 0.371427 0.622434
vt 0.371428 0.622433
vt 0.371428 0.622434
vt 0.371428 0.622433
vt 0.371428 0.622434
vt 0.371428 0.622434
vt 0.371428 0.622434
vt 0.371428 0.622434
vt 0.108028 0.618045
vt 0.108028 0.618044
vt 0.108028 0.618044
vt 0.108028 0.618045
vt 0.108028 0.618043
vt 0.108028 0.618044
vt 0.108028 0.618044
vt 0.371427 0.622434
vt 0.371427 0.622433
vt 0.371427 0.622434
vt 0.371427 0.622434
vt 0.371427 0.622434
vt 0.371427 0.622433
vt 0.371427 0.622435
vt 0.371427 0.622433
vt 0.371427 0.622435
vt 0.371427 0.622435
vt 0.371428 0.622434
vt 0.371428 0.622434
vt 0.371428 0.622433
vt 0.371428 0.622433
vt 0.371427 0.622434
vt 0.371427 0.622434
vt 0.371427 0.622433
vt 0.371427 0.622433
vt 0.371427 0.622433
vt 0.371427 0.622434
vt 0.371427 0.622434
vt 0.371427 0.622433
vt 0.371427 0.622433
vt 0.371427 0.622434
vt 0.371427 0.622433
vt 0.371428 0.622434
vt 0.371428 0.622433
vt 0.371428 0.622434
vt 0.371428 0.622433
vt 0.371428 0.622434
vt 0.371427 0.622433
vt 0.371427 0.622433
vt 0.371427 0.622435
vt 0.371427 0.622433
vt 0.371427 0.622434
vt 0.371427 0.622434
vt 0.371427 0.622434
vt 0.371428 0.622433
vt 0.371428 0.622434
vt 0.108028 0.618044
vt 0.108028 0.618045
vt 0.108028 0.618044
vt 0.108028 0.618043
vt 0.108028 0.618043
vt 0.108028 0.618044
vt 0.108028 0.618044
vt 0.108028 0.618044
vt 0.108028 0.618044
vt 0.108028 0.618044
vt 0.108028 0.618043
vt 0.371427 0.622434
vt 0.371427 0.622434
vt 0.371427 0.622434
vt 0.371427 0.622434
vt 0.371427 0.622434
vt 0.371427 0.622434
vt 0.371427 0.622434
vt 0.371427 0.622434
vt 0.371427 0.622434
vt 0.371427 0.622434
vt 0.371427 0.622434
vt 0.371427 0.622434
vt 0.371428 0.622433
vt 0.371428 0.622434
vt 0.371428 0.622433
vt 0.371428 0.622434
vt 0.371428 0.622434
vt 0.371428 0.622434
vt 0.371428 0.622434
vt 0.108028 0.618045
vt 0.108028 0.618044
vt 0.108028 0.618044
vt 0.108028 0.618045
vt 0.108028 0.618043
vt 0.108028 0.618044
vt 0.108028 0.618044
vt 0.371427 0.622434
vt 0.371427 0.622433
vt 0.371427 0.622434
vt 0.371427 0.622434
vt 0.371427 0.622434
vt 0.371427 0.622433
vt 0.371427 0.622435
vt 0.371427 0.622433
vt 0.371427 0.622435
vt 0.371427 0.622435
vt 0.371428 0.622434
vt 0.371428 0.622434
vt 0.371428 0.622433
vt 0.371428 0.622433
vt 0.371427 0.622434
vt 0.371427 0.622434
vt 0.371427 0.622433
vt 0.371427 0.622433
vt 0.371427 0.622433
vt 0.371427 0.622434
vt 0.371427 0.622434
vt 0.371427 0.622433
vt 0.371427 0.622433
vt 0.371427 0.622434
vt 0.371427 0.622433
vt 0.371428 0.622434
vt 0.371428 0.622433
vt 0.371428 0.622434
vt 0.371428 0.622433
vt 0.371428 0.622434
vt 0.371427 0.622433
vt 0.371427 0.622433
vt 0.371427 0.622435
vt 0.371427 0.622433
vt 0.371427 0.622434
vt 0.371427 0.622434
vt 0.371427 0.622434
vt 0.371428 0.622433
vt 0.371428 0.622434
vt 0.108028 0.618044
vt 0.108028 0.618045
vt 0.108028 0.618044
vt 0.108028 0.618043
vt 0.108028 0.618043
vt 0.108028 0.618044
vt 0.108028 0.618044
vt 0.108028 0.618044
vt 0.108028 0.618044
vt 0.108028 0.618044
vt 0.108028 0.618043
vt 0.160707 0.622434
vt 0.160707 0.622433
vt 0.160707 0.622434
vt 0.160707 0.622433
vt 0.160707 0.622433
vt 0.160707 0.622433
vt 0.160707 0.622433
vt 0.160707 0.622433
vt 0.160707 0.622433
vt 0.160707 0.622434
vt 0.160707 0.622433
vt 0.160707 0.622434
vt 0.397767 0.626823
vt 0.397767 0.626823
vt 0.397767 0.626824
vt 0.397767 0.626824
vt 0.160707 0.622434
vt 0.160707 0.622434
vt 0.160707 0.622434
vt 0.160707 0.622434
vt 0.397767 0.626825
vt 0.397767 0.626825
vt 0.397767 0.626824
vt 0.397767 0.626824
vt 0.397767 0.626823
vt 0.397767 0.626823
vt 0.397767 0.626824
vt 0.397767 0.626824
vt 0.397767 0.626824
vt 0.397767 0.626823
vt 0.397767 0.626824
vt 0.397767 0.626823
vt 0.397767 0.626825
vt 0.397767 0.626825
vt 0.397767 0.626823
vt 0.397767 0.626823
vt 0.397767 0.626824
vt 0.397767 0.626824
vt 0.397767 0.626824
vt 0.397767 0.626824
vt 0.397767 0.626824
vt 0.397767 0.626824
vt 0.397767 0.626824
vt 0.397767 0.626824
vt 0.397767 0.626824
vt 0.397767 0.626824
vt 0.397767 0.626824
vt 0.397767 0.626824
vt 0.397767 0.626824
vt 0.397767 0.626824
vt 0.397768 0.626825
vt 0.397767 0.626823
vt 0.397767 0.626823
vt 0.397767 0.626824
vt 0.397767 0.626824
vt 0.397767 0.626823
vt 0.397767 0.626824
vt 0.397767 0.626824
vt 0.397767 0.626824
vt 0.397767 0.626825
vt 0.397767 0.626824
vt 0.397767 0.626824
vt 0.397767 0.626823
vt 0.397767 0.626823
vt 0.160707 0.622433
vt 0.160707 0.622434
vt 0.160707 0.622434
vt 0.160707 0.622433
vt 0.352346 0.620692
vt 0.352346 0.620691
vt 0.352346 0.620692
vt 0.352346 0.620691
vt 0.352346 0.620691
vt 0.352346 0.620691
vt 0.352346 0.620691
vt 0.352346 0.620691
vt 0.352346 0.620692
vt 0.352346 0.620692
vt 0.160707 0.622435
vt 0.160707 0.622434
vt 0.352346 0.620691
vt 0.352346 0.620691
vt 0.352346 0.620691
vt 0.352346 0.620691
vt 0.352346 0.620691
vt 0.352346 0.620691
vt 0.352346 0.620691
vt 0.352346 0.620691
vt 0.352346 0.620691
vt 0.352346 0.620691
vt 0.352346 0.620691
vt 0.352346 0.620691
vt 0.352346 0.620691
vt 0.352346 0.620691
vt 0.160707 0.622434
vt 0.160707 0.622435
vn 0.0000 1.0000 0.0000
vn -0.0000 -1.0000 0.0000
vn -0.0000 0.0000 -1.0000
vn -0.0324 0.0000 -0.9995
vn -0.0000 -0.0000 1.0000
vn -1.0000 0.0000 0.0000
vn 1.0000 -0.0000 0.0000
vn 0.4454 0.3794 -0.8110
vn -0.9934 0.0000 0.1145
vn -0.8204 0.5650 -0.0879
s 1
f 5/1/1 8/2/1 6/3/1 7/4/1
f 9/5/2 12/6/2 10/7/2 11/8/2
f 20/9/1 23/10/1 21/11/1 22/12/1
f 13/13/3 5/1/3 14/14/3
f 5/1/3 13/13/3 15/15/3
f 5/1/3 15/15/3 8/2/3
f 8/2/3 15/15/3 16/16/3
f 17/17/3 14/14/3 5/1/3
f 14/14/3 17/17/3 18/18/3
f 18/18/3 17/17/3 16/16/3
f 18/18/3 16/16/3 15/15/3
f 18/18/3 15/15/3 19/19/4
f 32/20/1 45/21/1 40/22/1 31/23/1
f 47/24/5 32/20/5 52/25/5 46/26/5
f 25/27/2 2/28/2 26/29/2
f 26/29/2 2/28/2 27/30/2
f 2/28/2 25/27/2 24/31/2 3/32/2
f 31/33/1 28/34/1 32/35/1
f 32/35/1 28/34/1 33/36/1
f 12/6/5 34/37/5 20/9/5
f 34/37/5 12/6/5 9/5/5
f 34/37/5 9/5/5 35/38/5
f 35/38/5 9/5/5 36/39/5
f 37/40/5 20/9/5 34/37/5
f 20/9/5 37/40/5 23/10/5
f 23/10/5 37/40/5 36/39/5
f 23/10/5 36/39/5 9/5/5
f 38/41/5 33/36/5 28/34/5 39/42/5
f 40/43/6 41/44/6 24/31/6 25/27/6
f 29/45/7 31/33/7 42/46/7 43/47/7
f 44/48/6 45/49/6 26/29/6 27/30/6
f 29/45/3 43/47/3 51/50/3 30/51/3
f 46/52/5 10/7/5 47/53/5
f 10/7/5 46/52/5 48/54/5
f 10/7/5 48/54/5 11/8/5
f 11/8/5 48/54/5 21/11/5
f 22/12/5 47/53/5 10/7/5
f 47/53/5 22/12/5 49/55/5
f 49/55/5 22/12/5 21/11/5
f 49/55/5 21/11/5 48/54/5
f 49/55/5 48/54/5 50/56/8
f 42/46/2 51/50/2 43/47/2
f 40/43/1 45/49/1 4/57/1 1/58/1
f 39/42/2 52/59/2 38/41/2
f 36/39/6 54/60/6 53/61/6 35/38/6
f 21/11/7 23/10/7 9/5/7 11/8/7
f 40/43/1 1/58/1 41/44/1
f 28/34/1 31/33/1 29/45/1 30/51/1
f 4/57/1 45/49/1 44/48/1
f 34/37/1 35/38/1 53/61/1 55/62/1
f 32/35/7 33/36/7 38/41/7 52/59/7
f 5/1/6 7/4/6 57/63/6 17/17/6
f 7/4/3 56/64/3 57/63/3
f 56/64/3 7/4/3 6/3/3
f 56/64/3 6/3/3 54/60/3
f 54/60/3 6/3/3 53/61/3
f 55/62/3 57/63/3 56/64/3
f 57/63/3 55/62/3 58/65/3
f 58/65/3 55/62/3 53/61/3
f 58/65/3 53/61/3 6/3/3
f 58/65/7 6/3/7 8/2/7 16/16/7
f 2/28/5 4/57/5 44/48/5 27/30/5
f 16/16/2 17/17/2 57/63/2 58/65/2
f 42/46/2 52/59/2 39/42/2 51/50/2
f 26/66/2 52/25/2 42/67/2 25/68/2
f 1/58/3 3/32/3 24/31/3 41/44/3
f 28/34/6 30/51/6 51/50/6 39/42/6
f 12/6/6 20/9/6 22/12/6 10/7/6
f 13/69/3 31/23/3 40/22/3
f 13/69/3 40/22/3 15/70/3
f 15/70/3 40/22/3 19/71/4
f 19/71/4 40/22/3 18/72/3
f 42/67/3 14/73/3 25/68/3
f 25/68/3 14/73/3 18/72/3
f 25/68/3 18/72/3 40/22/3
f 36/39/2 37/40/2 56/64/2 54/60/2
f 14/73/3 42/67/3 31/23/3 13/69/3
f 46/26/5 52/25/5 26/66/5
f 46/26/5 26/66/5 48/74/5
f 48/74/5 26/66/5 50/75/8
f 50/75/8 26/66/5 49/76/5
f 32/20/5 47/24/5 45/21/5
f 45/21/5 47/24/5 49/76/5
f 45/21/5 49/76/5 26/66/5
f 55/62/7 56/64/7 37/40/7 34/37/7
f 1/58/7 4/57/7 2/28/7 3/32/7
f 63/77/1 66/78/1 64/79/1 65/80/1
f 67/81/2 70/82/2 68/83/2 69/84/2
f 78/85/1 81/86/1 79/87/1 80/88/1
f 71/89/3 63/77/3 72/90/3
f 63/77/3 71/89/3 73/91/3
f 63/77/3 73/91/3 66/78/3
f 66/78/3 73/91/3 74/92/3
f 75/93/3 72/90/3 63/77/3
f 72/90/3 75/93/3 76/94/3
f 76/94/3 75/93/3 74/92/3
f 76/94/3 74/92/3 73/91/3
f 76/94/3 73/91/3 77/95/9
f 90/96/1 103/97/1 98/98/1 89/99/1
f 105/100/5 90/96/5 110/101/5 104/102/5
f 83/103/2 60/104/2 84/105/2
f 84/105/2 60/104/2 85/106/2
f 60/104/2 83/103/2 82/107/2 61/108/2
f 89/109/1 86/110/1 90/111/1
f 90/111/1 86/110/1 91/112/1
f 70/82/5 92/113/5 78/85/5
f 92/113/5 70/82/5 67/81/5
f 92/113/5 67/81/5 93/114/5
f 93/114/5 67/81/5 94/115/5
f 95/116/5 78/85/5 92/113/5
f 78/85/5 95/116/5 81/86/5
f 81/86/5 95/116/5 94/115/5
f 81/86/5 94/115/5 67/81/5
f 96/117/5 91/112/5 86/110/5 97/118/5
f 98/119/6 99/120/6 82/107/6 83/103/6
f 87/121/7 89/109/7 100/122/7 101/123/7
f 102/124/6 103/125/6 84/105/6 85/106/6
f 87/121/3 101/123/3 109/126/3 88/127/3
f 104/128/5 68/83/5 105/129/5
f 68/83/5 104/128/5 106/130/5
f 68/83/5 106/130/5 69/84/5
f 69/84/5 106/130/5 79/87/5
f 80/88/5 105/129/5 68/83/5
f 105/129/5 80/88/5 107/131/5
f 107/131/5 80/88/5 79/87/5
f 107/131/5 79/87/5 106/130/5
f 107/131/5 106/130/5 108/132/10
f 100/122/2 109/126/2 101/123/2
f 98/119/1 103/125/1 62/133/1 59/134/1
f 97/118/2 110/135/2 96/117/2
f 94/115/6 112/136/6 111/137/6 93/114/6
f 79/87/7 81/86/7 67/81/7 69/84/7
f 98/119/1 59/134/1 99/120/1
f 86/110/1 89/109/1 87/121/1 88/127/1
f 62/133/1 103/125/1 102/124/1
f 92/113/1 93/114/1 111/137/1 113/138/1
f 90/111/7 91/112/7 96/117/7 110/135/7
f 63/77/6 65/80/6 115/139/6 75/93/6
f 65/80/3 114/140/3 115/139/3
f 114/140/3 65/80/3 64/79/3
f 114/140/3 64/79/3 112/136/3
f 112/136/3 64/79/3 111/137/3
f 113/138/3 115/139/3 114/140/3
f 115/139/3 113/138/3 116/141/3
f 116/141/3 113/138/3 111/137/3
f 116/141/3 111/137/3 64/79/3
f 116/141/7 64/79/7 66/78/7 74/92/7
f 60/104/5 62/133/5 102/124/5 85/106/5
f 74/92/2 75/93/2 115/139/2 116/141/2
f 100/122/2 110/135/2 97/118/2 109/126/2
f 84/142/2 110/101/2 100/143/2 83/144/2
f 59/134/3 61/108/3 82/107/3 99/120/3
f 86/110/6 88/127/6 109/126/6 97/118/6
f 70/82/6 78/85/6 80/88/6 68/83/6
f 71/145/3 89/99/3 98/98/3
f 71/145/3 98/98/3 73/146/3
f 73/146/3 98/98/3 77/147/9
f 77/147/9 98/98/3 76/148/3
f 100/143/3 72/149/3 83/144/3
f 83/144/3 72/149/3 76/148/3
f 83/144/3 76/148/3 98/98/3
f 94/115/2 95/116/2 114/140/2 112/136/2
f 72/149/3 100/143/3 89/99/3 71/145/3
f 104/102/5 110/101/5 84/142/5
f 104/102/5 84/142/5 106/150/5
f 106/150/5 84/142/5 108/151/10
f 108/151/10 84/142/5 107/152/5
f 90/96/5 105/100/5 103/97/5
f 103/97/5 105/100/5 107/152/5
f 103/97/5 107/152/5 84/142/5
f 113/138/7 114/140/7 95/116/7 92/113/7
f 59/134/7 62/133/7 60/104/7 61/108/7
f 117/153/6 118/154/6 119/155/6
f 120/156/6 118/154/6 117/153/6
f 129/157/7 130/158/7 128/159/7 127/160/7
f 122/161/6 123/162/6 121/163/6
f 123/162/6 122/161/6 124/164/6
f 122/165/5 144/166/5 141/167/5 124/168/5
f 127/160/7 128/159/7 125/169/7
f 130/158/7 129/157/7 131/170/7
f 131/170/7 129/157/7 132/171/7
f 126/172/7 125/169/7 128/159/7
f 117/153/2 119/155/2 131/170/2 132/171/2
f 133/173/5 136/174/5 134/175/5 135/176/5
f 145/177/5 130/178/5 131/179/5 163/180/5
f 129/181/1 137/182/1 138/183/1
f 142/184/1 127/185/1 156/186/1 164/187/1
f 139/188/1 120/189/1 140/190/1
f 128/191/1 130/178/1 145/177/1 146/192/1
f 126/193/3 128/191/3 146/192/3 147/194/3
f 135/176/2 126/193/2 147/194/2
f 131/179/2 119/195/2 153/196/2 161/197/2
f 123/198/2 134/175/2 148/199/2
f 156/186/5 127/185/5 125/200/5 157/201/5
f 151/202/6 152/203/6 153/196/6
f 154/204/6 152/203/6 151/202/6
f 154/204/6 136/174/6 152/203/6
f 155/205/6 136/174/6 154/204/6
f 155/205/6 134/175/6 136/174/6
f 134/175/6 155/205/6 148/199/6
f 129/181/3 138/183/3 149/206/3 132/207/3
f 118/208/5 154/204/5 151/202/5 119/195/5
f 158/209/6 139/188/6 140/190/6 159/210/6
f 122/161/6 121/163/6 118/154/6 120/156/6
f 132/207/2 158/209/2 117/211/2
f 117/211/2 158/209/2 159/210/2
f 123/162/2 124/164/2 125/169/2 126/172/2
f 153/196/3 152/203/3 160/212/3 161/197/3
f 155/205/1 154/204/1 118/208/1 121/213/1
f 137/182/5 139/188/5 158/209/5 150/214/5
f 125/200/2 162/215/2 157/201/2
f 134/175/2 123/198/2 126/193/2 135/176/2
f 143/216/2 124/168/2 141/167/2
f 131/179/2 161/197/2 163/180/2
f 129/181/1 120/189/1 139/188/1 137/182/1
f 153/196/2 119/195/2 151/202/2
f 125/200/2 124/168/2 143/216/2 162/215/2
f 142/184/3 164/187/3 162/215/3 143/216/3
f 137/182/7 150/214/7 149/206/7 138/183/7
f 158/209/2 132/207/2 149/206/2 150/214/2
f 127/185/1 142/184/1 122/165/1
f 122/165/1 142/184/1 144/166/1
f 146/192/7 133/173/7 147/194/7
f 133/173/7 146/192/7 145/177/7
f 133/173/7 145/177/7 160/212/7
f 160/212/7 145/177/7 161/197/7
f 161/197/7 145/177/7 163/180/7
f 135/176/7 147/194/7 133/173/7
f 152/203/2 136/174/2 133/173/2 160/212/2
f 141/167/6 144/166/6 142/184/6 143/216/6
f 156/186/7 157/201/7 162/215/7 164/187/7
f 122/161/1 120/156/1 129/157/1 127/160/1
f 140/190/3 120/189/3 117/211/3 159/210/3
f 155/205/3 121/213/3 123/198/3 148/199/3
f 177/217/7 181/218/7 169/219/7 185/220/7
f 169/221/2 170/222/2 171/223/2
f 188/224/2 181/225/2 166/226/2 168/227/2
f 172/228/2 173/229/2 174/230/2
f 182/231/1 179/232/1 177/217/1 185/220/1
f 177/233/1 165/234/1 167/235/1
f 169/221/2 173/229/2 172/228/2 170/222/2
f 178/236/1 179/237/1 180/238/1
f 182/239/5 183/240/5 174/230/5 173/229/5
f 174/230/6 183/240/6 175/241/6 172/228/6
f 184/242/7 171/223/7 170/222/7 176/243/7
f 184/242/5 185/244/5 169/221/5 171/223/5
f 180/238/3 179/237/3 186/245/3 187/246/3
f 165/234/5 178/236/5 188/224/5 168/227/5
f 186/247/2 173/248/2 169/219/2 181/218/2
f 185/244/1 175/241/1 182/239/1
f 182/239/1 175/241/1 183/240/1
f 175/241/1 185/244/1 184/242/1 176/243/1
f 181/225/2 188/224/2 186/245/2
f 186/245/2 188/224/2 187/246/2
f 177/233/3 167/235/3 166/226/3 181/225/3
f 188/224/6 178/236/6 180/238/6 187/246/6
f 175/241/3 176/243/3 170/222/3 172/228/3
f 186/247/6 179/232/6 182/231/6 173/248/6
f 177/233/1 179/237/1 178/236/1 165/234/1
f 165/234/7 168/227/7 166/226/7 167/235/7
