# Blender v2.83.1 OBJ File: 'World_Nature.blend'
# www.blender.org
o Base_Building_001_wallDoor.001
v -0.500000 -0.000000 0.400000
v -0.400000 -0.000000 0.500000
v -0.500000 -0.000000 0.500000
v -0.400000 -0.000000 0.475000
v -0.400000 -0.000000 0.425000
v -0.400000 -0.000000 0.400000
v -0.400000 1.000000 0.475000
v -0.400000 1.000000 0.500000
v -0.500000 1.000000 0.500000
v -0.500000 1.000000 0.400000
v -0.400000 1.000000 0.425000
v -0.400000 1.000000 0.400000
v 0.500000 1.000000 0.400000
v 0.400000 1.000000 0.500000
v 0.500000 1.000000 0.500000
v 0.400000 1.000000 0.475000
v 0.400000 1.000000 0.425000
v 0.400000 1.000000 0.400000
v 0.400000 0.000000 0.475000
v 0.400000 0.000000 0.500000
v 0.500000 0.000000 0.500000
v 0.500000 0.000000 0.400000
v 0.400000 0.000000 0.425000
v 0.400000 0.000000 0.400000
v 0.150000 0.809808 0.400000
v 0.077646 0.839778 0.425000
v 0.150000 0.809808 0.425000
v 0.077646 0.839778 0.400000
v -0.000000 0.850000 0.425000
v -0.000000 0.850000 0.400000
v -0.300000 0.550000 0.425000
v -0.300000 -0.000000 0.400000
v -0.300000 -0.000000 0.425000
v -0.300000 0.550000 0.400000
v 0.200000 0.000000 0.400000
v 0.300000 0.000000 0.500000
v 0.200000 0.000000 0.500000
v 0.300000 0.000000 0.475000
v 0.300000 0.000000 0.425000
v 0.300000 0.000000 0.400000
v -0.200000 0.550000 0.400000
v -0.200000 -0.000000 0.400000
v -0.200000 0.771441 0.400000
v -0.212132 0.762132 0.400000
v -0.259808 0.700000 0.400000
v -0.289778 0.627646 0.400000
v -0.193185 0.601764 0.400000
v -0.173205 0.650000 0.400000
v -0.150000 0.809808 0.400000
v -0.141421 0.691421 0.400000
v -0.100000 0.723205 0.400000
v -0.077646 0.839778 0.400000
v -0.051764 0.743185 0.400000
v -0.000000 0.750000 0.400000
v 0.051764 0.743185 0.400000
v 0.100000 0.723205 0.400000
v 0.141421 0.691421 0.400000
v 0.173205 0.650000 0.400000
v 0.193185 0.601764 0.400000
v 0.200000 0.771441 0.400000
v 0.200000 0.550000 0.400000
v 0.212132 0.762132 0.400000
v 0.259808 0.700000 0.400000
v 0.289778 0.627646 0.400000
v 0.300000 0.550000 0.400000
v 0.300000 0.550000 0.425000
v 0.200000 0.771441 0.425000
v 0.212132 0.762132 0.425000
v -0.300000 -0.000000 0.475000
v -0.200000 -0.000000 0.500000
v -0.300000 -0.000000 0.500000
v -0.173205 0.650000 0.500000
v -0.141421 0.691421 0.500000
v 0.141421 0.691421 0.500000
v 0.173205 0.650000 0.500000
v 0.259808 0.700000 0.475000
v 0.289778 0.627646 0.500000
v 0.289778 0.627646 0.475000
v 0.259808 0.700000 0.500000
v 0.193185 0.601764 0.500000
v 0.300000 0.550000 0.500000
v 0.300000 0.550000 0.475000
v -0.259808 0.700000 0.425000
v -0.289778 0.627646 0.425000
v 0.212132 0.762132 0.475000
v 0.200000 0.771441 0.500000
v 0.212132 0.762132 0.500000
v 0.200000 0.771441 0.475000
v 0.150000 0.809808 0.500000
v 0.150000 0.809808 0.475000
v -0.200000 0.771441 0.475000
v -0.212132 0.762132 0.500000
v -0.200000 0.771441 0.500000
v -0.212132 0.762132 0.475000
v -0.150000 0.809808 0.475000
v -0.150000 0.809808 0.500000
v -0.150000 0.809808 0.425000
v -0.077646 0.839778 0.425000
v -0.200000 0.550000 0.500000
v 0.077646 0.839778 0.500000
v 0.077646 0.839778 0.475000
v -0.193185 0.601764 0.500000
v -0.259808 0.700000 0.475000
v -0.259808 0.700000 0.500000
v 0.259808 0.700000 0.425000
v 0.200000 0.550000 0.500000
v 0.289778 0.627646 0.425000
v -0.212132 0.762132 0.425000
v 0.051764 0.743185 0.500000
v -0.000000 0.750000 0.500000
v 0.100000 0.723205 0.500000
v -0.000000 0.850000 0.500000
v -0.077646 0.839778 0.500000
v -0.051764 0.743185 0.500000
v -0.100000 0.723205 0.500000
v -0.289778 0.627646 0.500000
v -0.300000 0.550000 0.500000
v -0.200000 0.771441 0.425000
v -0.000000 0.850000 0.475000
v -0.289778 0.627646 0.475000
v -0.077646 0.839778 0.475000
v -0.300000 0.550000 0.475000
v 0.400000 1.000000 -0.425000
v 0.400000 -0.000000 -0.400000
v 0.400000 1.000000 -0.400000
v 0.400000 -0.000000 -0.425000
v 0.400000 1.000000 -0.500000
v 0.500000 -0.000000 -0.500000
v 0.400000 -0.000000 -0.500000
v 0.500000 1.000000 -0.500000
v -0.475000 1.000000 -0.400000
v -0.500000 -0.000000 -0.400000
v -0.475000 -0.000000 -0.400000
v -0.500000 1.000000 -0.400000
v 0.400000 -0.000000 -0.475000
v 0.400000 1.000000 -0.475000
v -0.400000 -0.000000 -0.425000
v -0.400000 1.000000 -0.400000
v -0.400000 -0.000000 -0.400000
v -0.400000 1.000000 -0.425000
v 0.500000 -0.000000 -0.400000
v -0.400000 -0.000000 -0.500000
v -0.500000 -0.000000 -0.500000
v -0.425000 -0.000000 -0.400000
v -0.400000 -0.000000 -0.475000
v -0.500000 1.000000 0.400000
v -0.475000 0.000000 0.400000
v -0.500000 0.000000 0.400000
v -0.475000 1.000000 0.400000
v -0.400000 1.000000 0.500000
v -0.500000 1.000000 0.500000
v -0.425000 1.000000 0.400000
v -0.400000 1.000000 0.400000
v -0.500000 1.000000 -0.500000
v -0.400000 0.000000 0.400000
v -0.400000 0.000000 0.500000
v -0.400000 1.000000 -0.475000
v -0.400000 1.000000 -0.500000
v 0.500000 1.000000 -0.400000
v -0.425000 1.000000 -0.400000
v -0.500000 0.000000 0.500000
v -0.425000 0.000000 0.400000
v 0.500000 1.000000 0.500000
v 0.500000 0.000000 0.400000
v 0.500000 1.000000 0.400000
v 0.500000 0.000000 0.500000
v 0.475000 0.000000 -0.400000
v 0.500000 0.000000 -0.500000
v 0.500000 0.000000 -0.400000
v 0.400000 0.000000 -0.500000
v 0.425000 0.000000 -0.400000
v 0.400000 0.000000 -0.400000
v 0.400000 1.000000 -0.500000
v 0.500000 1.000000 -0.500000
v 0.475000 1.000000 0.400000
v 0.400000 1.000000 0.500000
v 0.425000 1.000000 0.400000
v 0.400000 1.000000 0.400000
v 0.475000 0.000000 0.400000
v 0.425000 1.000000 -0.400000
v 0.400000 1.000000 -0.400000
v 0.500000 1.000000 -0.400000
v 0.475000 1.000000 -0.400000
v 0.425000 0.000000 0.400000
v 0.400000 0.000000 0.400000
v 0.400000 0.000000 0.500000
vt 0.358257 0.620238
vt 0.358257 0.620240
vt 0.358257 0.620240
vt 0.358257 0.620238
vt 0.358257 0.620239
vt 0.358257 0.620238
vt 0.358257 0.620239
vt 0.358257 0.620239
vt 0.160707 0.622434
vt 0.160707 0.622435
vt 0.160707 0.622435
vt 0.160707 0.622434
vt 0.358257 0.620239
vt 0.358257 0.620238
vt 0.358257 0.620239
vt 0.358257 0.620240
vt 0.358257 0.620240
vt 0.358257 0.620238
vt 0.358257 0.620238
vt 0.358257 0.620238
vt 0.358257 0.620239
vt 0.358257 0.620239
vt 0.358257 0.620240
vt 0.358257 0.620240
vt 0.358257 0.620240
vt 0.358257 0.620240
vt 0.358257 0.620240
vt 0.358257 0.620240
vt 0.358257 0.620240
vt 0.358257 0.620239
vt 0.358257 0.620239
vt 0.358257 0.620239
vt 0.358257 0.620239
vt 0.358257 0.620240
vt 0.358257 0.620239
vt 0.358257 0.620239
vt 0.358257 0.620239
vt 0.358257 0.620239
vt 0.358257 0.620239
vt 0.358257 0.620239
vt 0.358257 0.620239
vt 0.358257 0.620239
vt 0.358257 0.620239
vt 0.358257 0.620239
vt 0.358257 0.620239
vt 0.358257 0.620239
vt 0.358257 0.620239
vt 0.358257 0.620239
vt 0.358257 0.620239
vt 0.358257 0.620239
vt 0.358257 0.620239
vt 0.358258 0.620240
vt 0.358258 0.620238
vt 0.358257 0.620238
vt 0.358257 0.620238
vt 0.358258 0.620238
vt 0.358258 0.620238
vt 0.358258 0.620238
vt 0.358258 0.620238
vt 0.358258 0.620238
vt 0.358258 0.620238
vt 0.358258 0.620240
vt 0.358258 0.620238
vt 0.358258 0.620240
vt 0.358258 0.620240
vt 0.358258 0.620238
vt 0.358258 0.620238
vt 0.358258 0.620238
vt 0.358257 0.620238
vt 0.358257 0.620240
vt 0.358257 0.620238
vt 0.358257 0.620238
vt 0.358257 0.620238
vt 0.358257 0.620240
vt 0.358257 0.620239
vt 0.358257 0.620239
vt 0.358257 0.620240
vt 0.358257 0.620240
vt 0.358257 0.620239
vt 0.358257 0.620239
vt 0.358257 0.620239
vt 0.358257 0.620238
vt 0.358257 0.620238
vt 0.358257 0.620238
vt 0.358257 0.620238
vt 0.358257 0.620239
vt 0.358257 0.620239
vt 0.358257 0.620239
vt 0.358257 0.620240
vt 0.358257 0.620238
vt 0.358257 0.620239
vt 0.358257 0.620239
vt 0.358257 0.620238
vt 0.358257 0.620239
vt 0.358257 0.620239
vt 0.358257 0.620239
vt 0.358257 0.620239
vt 0.358257 0.620239
vt 0.358257 0.620239
vt 0.358257 0.620240
vt 0.358257 0.620240
vt 0.358257 0.620239
vt 0.358257 0.620239
vt 0.358257 0.620239
vt 0.358257 0.620240
vt 0.358257 0.620238
vt 0.358257 0.620239
vt 0.358257 0.620239
vt 0.358257 0.620239
vt 0.358257 0.620240
vt 0.358257 0.620240
vt 0.358257 0.620240
vt 0.358257 0.620240
vt 0.358257 0.620239
vt 0.358257 0.620240
vt 0.358257 0.620240
vt 0.358258 0.620238
vt 0.358258 0.620240
vt 0.358257 0.620238
vt 0.358257 0.620238
vt 0.358257 0.620238
vt 0.160707 0.622434
vt 0.160707 0.622434
vt 0.160707 0.622434
vt 0.160707 0.622434
vt 0.358257 0.620240
vt 0.358257 0.620238
vt 0.358257 0.620239
vt 0.358257 0.620239
vt 0.160707 0.622435
vt 0.160707 0.622434
vt 0.160707 0.622434
vt 0.160707 0.622435
vt 0.358257 0.620239
vt 0.160707 0.622433
vt 0.160707 0.622433
vt 0.160707 0.622433
vt 0.160708 0.622433
vt 0.160708 0.622433
vt 0.160707 0.622435
vt 0.160708 0.622433
vt 0.160708 0.622433
vt 0.160708 0.622433
vt 0.160707 0.622433
vt 0.160707 0.622433
vt 0.160707 0.622433
vt 0.160707 0.622433
vt 0.160707 0.622435
vt 0.160708 0.622433
vt 0.160707 0.622435
vt 0.160707 0.622433
vt 0.160707 0.622433
vt 0.160707 0.622433
vt 0.160708 0.622433
vt 0.160708 0.622433
vt 0.160708 0.622433
vt 0.160708 0.622433
vt 0.160708 0.622433
vt 0.160708 0.622433
vt 0.160707 0.622433
vt 0.160707 0.622433
vt 0.160707 0.622433
vt 0.160707 0.622435
vt 0.160707 0.622433
vt 0.353867 0.613653
vt 0.353867 0.613653
vt 0.353867 0.613654
vt 0.353867 0.613654
vt 0.353867 0.613653
vt 0.353867 0.613653
vt 0.353867 0.613654
vt 0.353867 0.613654
vt 0.353867 0.613654
vt 0.353867 0.613653
vt 0.353867 0.613654
vt 0.353867 0.613653
vt 0.353867 0.613653
vt 0.353867 0.613654
vt 0.160707 0.622433
vt 0.160707 0.622433
vt 0.160707 0.622434
vt 0.160707 0.622434
vt 0.353867 0.613653
vt 0.353867 0.613653
vt 0.353867 0.613655
vt 0.353867 0.613655
vt 0.353867 0.613653
vt 0.353867 0.613654
vt 0.353867 0.613654
vt 0.353867 0.613653
vt 0.353867 0.613653
vt 0.353867 0.613654
vt 0.353867 0.613653
vt 0.160707 0.622433
vt 0.160707 0.622433
vt 0.160707 0.622434
vt 0.160707 0.622434
vt 0.353867 0.613653
vt 0.353867 0.613655
vt 0.353867 0.613655
vt 0.353867 0.613654
vt 0.353867 0.613654
vt 0.353867 0.613653
vt 0.353867 0.613653
vt 0.353867 0.613654
vt 0.353867 0.613654
vt 0.353867 0.613653
vt 0.160707 0.622434
vt 0.160707 0.622433
vt 0.160707 0.622433
vt 0.160707 0.622434
vt 0.353867 0.613654
vt 0.353867 0.613654
vt 0.353867 0.613654
vt 0.160707 0.622433
vt 0.160707 0.622434
vt 0.160707 0.622434
vt 0.160707 0.622433
vt 0.353867 0.613655
vt 0.353867 0.613655
vt 0.160707 0.622433
vt 0.160707 0.622434
vt 0.160707 0.622434
vt 0.160707 0.622433
vt 0.352346 0.620692
vt 0.352346 0.620691
vt 0.352346 0.620692
vt 0.352346 0.620691
vt 0.352346 0.620691
vt 0.352346 0.620691
vt 0.352346 0.620691
vt 0.352346 0.620691
vt 0.352346 0.620692
vt 0.352346 0.620692
vt 0.160707 0.622435
vt 0.160707 0.622434
vt 0.352346 0.620691
vt 0.352346 0.620691
vt 0.352346 0.620691
vt 0.352346 0.620691
vt 0.352346 0.620691
vt 0.352346 0.620691
vt 0.352346 0.620691
vt 0.352346 0.620691
vt 0.352346 0.620691
vt 0.352346 0.620691
vt 0.352346 0.620691
vt 0.352346 0.620691
vt 0.352346 0.620691
vt 0.352346 0.620691
vt 0.160707 0.622434
vt 0.160707 0.622435
vn 0.0000 1.0000 0.0000
vn 0.0000 -1.0000 0.0000
vn -0.9659 0.2588 0.0000
vn -0.9979 0.0654 0.0000
vn -1.0000 -0.0000 0.0000
vn 0.0000 0.0000 -1.0000
vn 0.0000 0.0000 1.0000
vn 1.0000 0.0000 0.0000
vn 0.5000 0.8660 0.0000
vn 0.2588 0.9659 0.0000
vn 0.5000 -0.8660 0.0000
vn 0.2588 -0.9659 0.0000
vn 0.6088 0.7934 0.0000
vn 0.7071 0.7071 0.0000
vn -0.8660 0.5000 0.0000
vn -0.8660 -0.5000 0.0000
vn -0.9659 -0.2588 0.0000
vn -0.6088 0.7934 0.0000
vn -0.5000 0.8660 0.0000
vn 0.9979 0.0654 0.0000
vn -0.7071 0.7071 0.0000
vn -0.2588 0.9659 0.0000
vn 0.9979 -0.0654 0.0000
vn 0.9659 -0.2588 0.0000
vn -0.2588 -0.9659 -0.0000
vn 0.7071 -0.7071 0.0000
vn 0.9659 0.2588 0.0000
vn 0.8660 0.5000 0.0000
vn -0.9979 -0.0654 0.0000
vn 0.8660 -0.5000 0.0000
vn -0.0001 0.0000 1.0000
vn -0.0570 0.0038 0.9984
vn -0.0002 0.0000 1.0000
vn -0.5000 -0.8660 -0.0000
vn -0.7071 -0.7071 0.0000
vn -0.4472 -0.0000 -0.8944
s 1
f 13/1/1 16/2/1 14/3/1 15/4/1
f 4/5/2 1/6/2 5/7/2
f 5/7/2 1/6/2 6/8/2
f 39/9/2 23/10/2 19/11/2 38/12/2
f 7/13/1 9/14/1 8/15/1
f 19/16/2 23/17/2 22/18/2 21/19/2
f 10/20/1 11/21/1 12/22/1
f 16/2/1 13/1/1 17/23/1
f 17/23/1 13/1/1 18/24/1
f 84/25/3 46/26/3 34/27/4 31/28/4
f 19/16/2 21/19/2 20/29/2
f 69/30/2 33/31/2 42/32/2 70/33/2
f 22/18/2 23/17/2 24/34/2
f 17/23/5 18/24/5 24/34/5 23/17/5
f 24/34/6 18/24/6 13/1/6 22/18/6
f 14/3/7 20/29/7 21/19/7 15/4/7
f 9/14/5 10/20/5 1/6/5 3/35/5
f 13/1/8 15/4/8 21/19/8 22/18/8
f 1/6/6 10/20/6 12/22/6 6/8/6
f 9/14/7 3/35/7 2/36/7 8/15/7
f 25/37/9 28/38/10 26/39/10 27/40/9
f 28/38/10 30/41/1 29/42/1 26/39/10
f 31/28/4 34/27/4 32/43/5 33/31/5
f 51/44/11 53/45/12 114/46/12 115/47/11
f 1/6/2 4/5/2 2/36/2 3/35/2
f 38/48/2 35/49/2 39/50/2
f 39/50/2 35/49/2 40/51/2
f 32/43/6 41/52/6 42/32/6
f 41/52/6 32/43/6 43/53/6
f 43/53/6 32/43/6 44/54/6
f 44/54/6 32/43/6 45/55/6
f 45/55/6 32/43/6 46/26/6
f 46/26/6 32/43/6 34/27/6
f 43/53/6 47/56/6 41/52/6
f 43/53/6 48/57/6 47/56/6
f 49/58/6 48/57/6 43/53/6
f 49/58/6 50/59/6 48/57/6
f 49/58/6 51/44/6 50/59/6
f 113/60/7 96/61/7 115/47/7 114/46/7
f 113/60/7 114/46/7 110/62/7 112/63/7
f 7/13/1 11/21/1 10/20/1 9/14/1
f 28/38/6 56/64/6 55/65/6
f 28/38/6 57/66/6 56/64/6
f 25/37/6 57/66/6 28/38/6
f 25/37/6 58/67/6 57/66/6
f 25/37/6 59/68/6 58/67/6
f 60/69/6 59/68/6 25/37/6
f 60/69/6 61/70/6 59/68/6
f 62/71/6 61/70/6 60/69/6
f 62/71/6 35/49/6 61/70/6
f 63/72/6 35/49/6 62/71/6
f 64/73/6 35/49/6 63/72/6
f 64/73/6 40/51/6 35/49/6
f 40/51/6 64/73/6 65/74/6
f 60/69/13 25/37/9 27/40/9 67/75/13
f 67/75/13 68/76/14 62/71/14 60/69/13
f 117/77/4 122/78/4 69/30/5 71/79/5
f 69/30/2 70/33/2 71/79/2
f 35/49/2 38/48/2 36/80/2 37/81/2
f 42/32/2 33/31/2 32/43/2
f 104/82/15 103/83/15 120/84/3 116/85/3
f 101/86/10 119/87/1 112/63/1 100/88/10
f 75/89/16 58/67/16 59/68/17 80/90/17
f 118/91/18 97/92/19 49/58/19 43/53/18
f 83/93/15 45/55/15 46/26/3 84/25/3
f 85/94/14 88/95/13 86/96/13 87/97/14
f 88/95/13 90/98/9 89/99/9 86/96/13
f 38/48/8 82/100/20 81/101/20 36/80/8
f 43/53/18 44/54/21 108/102/21 118/91/18
f 108/102/21 44/54/21 45/55/15 83/93/15
f 7/13/8 8/15/8 2/36/8 4/5/8
f 52/103/22 49/58/19 97/92/19 98/104/22
f 42/32/8 41/52/23 99/105/23 70/33/8
f 90/98/9 101/86/10 100/88/10 89/99/9
f 30/41/1 52/103/22 98/104/22 29/42/1
f 47/56/24 102/106/24 99/105/23 41/52/23
f 54/107/2 55/65/25 109/108/25 110/62/2
f 50/59/26 51/44/11 115/47/11 73/109/26
f 92/110/21 94/111/21 103/83/15 104/82/15
f 64/73/27 107/112/27 66/113/20 65/74/20
f 62/71/14 68/76/14 105/114/28 63/72/28
f 52/103/6 53/45/6 51/44/6 49/58/6
f 106/115/29 61/70/29 35/49/5 37/81/5
f 63/72/28 105/114/28 107/112/27 64/73/27
f 48/57/30 72/116/30 102/106/24 47/56/24
f 86/96/7 106/115/7 87/97/7
f 106/115/7 86/96/7 80/90/7
f 80/90/7 86/96/7 89/99/7
f 80/90/7 89/99/7 75/89/7
f 75/89/7 89/99/7 74/117/7
f 74/117/7 89/99/7 100/88/7
f 74/117/7 100/88/7 111/118/7
f 111/118/7 100/88/7 109/108/7
f 30/41/6 54/107/6 53/45/6 52/103/6
f 28/38/6 55/65/6 54/107/6 30/41/6
f 112/63/7 110/62/7 109/108/7 100/88/7
f 115/47/7 96/61/7 73/109/7
f 73/109/7 96/61/7 72/116/7
f 72/116/7 96/61/7 93/119/31
f 72/116/7 93/119/31 102/106/7
f 102/106/7 93/119/31 99/105/32
f 99/105/32 93/119/31 70/33/33
f 70/33/33 93/119/31 71/79/7
f 71/79/7 93/119/31 92/110/7
f 71/79/7 92/110/7 104/82/7
f 71/79/7 104/82/7 116/85/7
f 71/79/7 116/85/7 117/77/7
f 77/120/7 36/80/7 81/101/7
f 36/80/7 77/120/7 37/81/7
f 37/81/7 77/120/7 79/121/7
f 37/81/7 79/121/7 87/97/7
f 37/81/7 87/97/7 106/115/7
f 5/122/2 33/123/2 69/124/2 4/125/2
f 78/126/27 77/120/27 81/101/20 82/100/20
f 76/127/28 79/121/28 77/120/27 78/126/27
f 56/64/34 57/66/35 74/117/35 111/118/34
f 74/117/35 57/66/35 58/67/16 75/89/16
f 50/59/26 73/109/26 72/116/30 48/57/30
f 121/128/22 95/129/19 96/61/19 113/60/22
f 65/74/20 66/113/20 39/50/8 40/51/8
f 55/65/25 56/64/34 111/118/34 109/108/25
f 119/87/1 121/128/22 113/60/22 112/63/1
f 116/85/3 120/84/3 122/78/4 117/77/4
f 12/22/8 11/21/8 5/7/8 6/8/8
f 85/94/14 87/97/14 79/121/28 76/127/28
f 53/45/12 54/107/2 110/62/2 114/46/12
f 14/3/5 16/2/5 19/16/5 20/29/5
f 80/90/17 59/68/17 61/70/29 106/115/29
f 17/130/1 11/131/1 7/132/1 16/133/1
f 93/119/18 96/61/19 95/129/19 91/134/18
f 16/133/7 78/135/7 19/11/7
f 78/135/7 16/133/7 76/136/7
f 76/136/7 16/133/7 85/137/7
f 85/137/7 16/133/7 90/138/7
f 90/138/7 16/133/7 101/139/7
f 101/139/7 16/133/7 7/132/7
f 19/11/7 78/135/7 82/140/7
f 101/139/7 7/132/7 119/141/7
f 119/141/7 7/132/7 121/142/7
f 121/142/7 7/132/7 95/143/7
f 95/143/7 7/132/7 91/144/7
f 91/144/7 7/132/7 94/145/7
f 94/145/7 7/132/7 103/146/7
f 103/146/7 7/132/7 120/147/7
f 120/147/7 7/132/7 122/148/7
f 4/125/7 122/148/7 7/132/7
f 122/148/7 4/125/7 69/124/7
f 38/12/7 19/11/7 82/140/7
f 85/137/7 90/138/7 88/149/7
f 39/9/6 17/130/6 23/10/6
f 17/130/6 39/9/6 66/150/6
f 107/151/6 17/130/6 66/150/6
f 105/152/6 17/130/6 107/151/6
f 68/153/6 17/130/6 105/152/6
f 27/154/6 17/130/6 68/153/6
f 26/155/6 17/130/6 27/154/6
f 17/130/6 26/155/6 11/131/6
f 11/131/6 26/155/6 29/156/6
f 11/131/6 29/156/6 98/157/6
f 11/131/6 98/157/6 97/158/6
f 11/131/6 97/158/6 118/159/6
f 11/131/6 118/159/6 108/160/6
f 11/131/6 108/160/6 83/161/6
f 11/131/6 83/161/6 84/162/6
f 11/131/6 84/162/6 31/163/6
f 11/131/6 31/163/6 5/122/6
f 5/122/6 31/163/6 33/123/6
f 27/154/6 68/153/6 67/164/36
f 91/134/18 94/111/21 92/110/21 93/119/18
f 127/165/6 130/166/6 128/167/6 129/168/6
f 131/169/7 134/170/7 132/171/7 133/172/7
f 127/165/5 129/168/5 135/173/5 136/174/5
f 137/175/8 140/176/8 138/177/8 139/178/8
f 123/179/7 140/180/7 137/181/7 126/182/7
f 128/167/2 135/173/2 129/168/2
f 135/173/2 128/167/2 126/183/2
f 150/184/1 149/185/1 146/186/1 151/187/1
f 125/188/1 159/189/1 130/166/1 123/190/1
f 133/172/2 142/191/2 144/192/2
f 144/192/2 142/191/2 145/193/2
f 144/192/2 145/193/2 137/175/2
f 144/192/2 137/175/2 139/178/2
f 157/194/6 136/195/6 135/196/6 145/197/6
f 142/191/2 133/172/2 132/171/2 143/198/2
f 149/185/1 150/184/1 152/199/1
f 152/199/1 150/184/1 153/200/1
f 155/201/8 153/200/8 150/184/8 156/202/8
f 142/191/8 158/203/8 157/204/8 145/193/8
f 159/189/7 125/188/7 124/205/7 141/206/7
f 135/196/2 126/182/2 137/181/2 145/197/2
f 136/174/1 130/166/1 127/165/1
f 130/166/1 136/174/1 123/190/1
f 134/170/1 131/169/1 158/203/1 154/207/1
f 144/208/8 160/209/8 152/210/8 162/211/8
f 158/203/1 131/169/1 160/212/1
f 158/203/1 160/212/1 157/204/1
f 157/204/1 160/212/1 140/176/1
f 140/176/1 160/212/1 138/177/1
f 138/177/7 160/212/7 144/192/7 139/178/7
f 146/186/5 148/213/5 161/214/5 151/187/5
f 150/184/7 151/187/7 161/214/7 156/202/7
f 131/215/5 133/216/5 147/217/5 149/218/5
f 147/219/2 161/214/2 148/213/2
f 128/167/2 141/206/2 124/205/2 126/183/2
f 156/202/2 162/220/2 155/201/2
f 152/210/1 160/209/1 131/215/1 149/218/1
f 147/219/2 162/220/2 156/202/2 161/214/2
f 152/199/6 153/200/6 155/201/6 162/220/6
f 140/180/1 123/179/1 136/195/1 157/194/1
f 128/167/8 130/166/8 159/189/8 141/206/8
f 154/207/5 143/198/5 132/171/5 134/170/5
f 146/186/6 149/185/6 147/219/6 148/213/6
f 144/208/2 162/211/2 147/217/2 133/216/2
f 154/207/6 158/203/6 142/191/6 143/198/6
f 123/190/5 126/183/5 124/205/5 125/188/5
f 175/221/8 179/222/8 167/223/8 183/224/8
f 167/225/2 168/226/2 169/227/2
f 186/228/2 179/229/2 164/230/2 166/231/2
f 170/232/2 171/233/2 172/234/2
f 180/235/1 177/236/1 175/221/1 183/224/1
f 175/237/1 163/238/1 165/239/1
f 167/225/2 171/233/2 170/232/2 168/226/2
f 176/240/1 177/241/1 178/242/1
f 180/243/7 181/244/7 172/234/7 171/233/7
f 172/234/5 181/244/5 173/245/5 170/232/5
f 182/246/8 169/227/8 168/226/8 174/247/8
f 182/246/7 183/248/7 167/225/7 169/227/7
f 178/242/6 177/241/6 184/249/6 185/250/6
f 163/238/7 176/240/7 186/228/7 166/231/7
f 184/251/2 171/252/2 167/223/2 179/222/2
f 183/248/1 173/245/1 180/243/1
f 180/243/1 173/245/1 181/244/1
f 173/245/1 183/248/1 182/246/1 174/247/1
f 179/229/2 186/228/2 184/249/2
f 184/249/2 186/228/2 185/250/2
f 175/237/6 165/239/6 164/230/6 179/229/6
f 186/228/5 176/240/5 178/242/5 185/250/5
f 173/245/6 174/247/6 168/226/6 170/232/6
f 184/251/5 177/236/5 180/235/5 171/252/5
f 175/237/1 177/241/1 176/240/1 163/238/1
f 163/238/8 166/231/8 164/230/8 165/239/8
