# Blender v2.83.1 OBJ File: 'World_Nature.blend'
# www.blender.org
o Roof_Building_006_roofGableTop.001
v 0.500000 1.125902 0.500000
v -0.000000 1.375902 -0.500000
v -0.000000 1.375902 0.500000
v 0.500000 1.125902 -0.500000
v 0.500000 1.000000 0.500000
v 0.500000 1.000000 -0.500000
v -0.500000 1.125902 0.500000
v -0.500000 1.125902 -0.500000
v -0.500000 1.000000 -0.500000
v -0.500000 1.000000 0.500000
v -0.400000 1.050000 0.500000
v -0.000000 1.250000 0.475000
v -0.000000 1.250000 0.500000
v -0.400000 1.050000 0.475000
v 0.400000 1.050000 0.500000
v -0.400000 1.050000 -0.475000
v 0.000000 1.250000 -0.500000
v 0.000000 1.250000 -0.475000
v -0.400000 1.050000 -0.500000
v 0.400000 1.050000 -0.475000
v 0.400000 1.050000 -0.500000
v 0.400000 1.050000 0.475000
v 0.400000 1.000000 0.475000
v 0.400000 1.000000 0.500000
v -0.400000 1.000000 0.475000
v -0.400000 1.000000 0.500000
v 0.400000 1.000000 -0.500000
v 0.400000 1.000000 -0.475000
v -0.400000 1.000000 -0.500000
v -0.400000 1.000000 -0.475000
vt 0.145342 0.380984
vt 0.145342 0.380984
vt 0.145342 0.380984
vt 0.145342 0.380984
vt 0.145342 0.380984
vt 0.145342 0.380984
vt 0.145342 0.380984
vt 0.145342 0.380984
vt 0.145342 0.380984
vt 0.145342 0.380984
vt 0.145342 0.380984
vt 0.145342 0.380984
vt 0.145342 0.380984
vt 0.145342 0.380984
vt 0.145342 0.380984
vt 0.145342 0.380984
vt 0.145342 0.380984
vt 0.145342 0.380984
vt 0.145342 0.380984
vt 0.145342 0.380984
vt 0.145342 0.380984
vt 0.145342 0.380984
vt 0.373622 0.624629
vt 0.373622 0.624629
vt 0.373622 0.624629
vt 0.373622 0.624629
vt 0.373622 0.624629
vt 0.373622 0.624629
vt 0.373622 0.624629
vt 0.373622 0.624629
vt 0.373622 0.624629
vt 0.373622 0.624629
vt 0.373622 0.624629
vt 0.373622 0.624629
vt 0.373622 0.624629
vt 0.373622 0.624629
vt 0.373622 0.624629
vt 0.373622 0.624629
vt 0.373622 0.624629
vt 0.373622 0.624629
vt 0.373622 0.624629
vt 0.373622 0.624629
vt 0.615072 0.622434
vt 0.615072 0.622434
vt 0.615072 0.622434
vt 0.615072 0.622434
vt 0.615072 0.622434
vt 0.615072 0.622434
vt 0.615072 0.622434
vt 0.615072 0.622434
vt 0.615072 0.622434
vt 0.615072 0.622434
vt 0.615072 0.622433
vt 0.615072 0.622434
vt 0.615072 0.622433
vt 0.615072 0.622434
vt 0.615072 0.622433
vt 0.615072 0.622435
vt 0.615072 0.622433
vt 0.615072 0.622435
vn 0.4472 0.8944 -0.0000
vn 1.0000 0.0000 0.0000
vn -0.4472 0.8944 0.0000
vn -1.0000 -0.0000 -0.0000
vn 0.4472 -0.8944 0.0000
vn 0.0000 0.0000 1.0000
vn -0.4472 -0.8944 0.0000
vn 0.0000 -0.0000 -1.0000
vn 0.0000 -1.0000 0.0000
s 1
f 1/1/1 2/2/1 3/3/1
f 2/2/1 1/1/1 4/4/1
f 4/4/2 5/5/2 6/6/2
f 5/5/2 4/4/2 1/1/2
f 2/2/3 7/7/3 3/3/3
f 7/7/3 2/2/3 8/8/3
f 7/7/4 9/9/4 10/10/4
f 9/9/4 7/7/4 8/8/4
f 11/11/5 12/12/5 13/13/5
f 12/12/5 11/11/5 14/14/5
f 3/3/6 5/5/6 1/1/6
f 5/5/6 3/3/6 15/15/6
f 15/15/6 3/3/6 13/13/6
f 13/13/6 3/3/6 7/7/6
f 13/13/6 7/7/6 11/11/6
f 11/11/6 7/7/6 10/10/6
f 16/16/5 17/17/5 18/18/5
f 17/17/5 16/16/5 19/19/5
f 17/17/7 20/20/7 18/18/7
f 20/20/7 17/17/7 21/21/7
f 12/12/7 15/15/7 13/13/7
f 15/15/7 12/12/7 22/22/7
f 21/21/8 4/4/8 6/6/8
f 4/4/8 21/21/8 2/2/8
f 2/2/8 21/21/8 17/17/8
f 2/2/8 17/17/8 19/19/8
f 2/2/8 19/19/8 8/8/8
f 8/8/8 19/19/8 9/9/8
f 15/23/4 23/24/4 24/25/4
f 23/24/4 15/23/4 22/26/4
f 24/25/6 5/27/6 15/23/6
f 25/28/2 11/29/2 26/30/2
f 11/29/2 25/28/2 14/31/2
f 20/32/4 27/33/4 28/34/4
f 27/33/4 20/32/4 21/35/4
f 9/36/8 19/37/8 29/38/8
f 29/38/2 16/39/2 30/40/2
f 16/39/2 29/38/2 19/37/2
f 10/41/6 26/30/6 11/29/6
f 21/35/8 6/42/8 27/33/8
f 12/43/6 23/44/6 22/45/6
f 23/44/6 12/43/6 25/46/6
f 25/46/6 12/43/6 14/47/6
f 30/48/8 20/49/8 28/50/8
f 20/49/8 30/48/8 18/51/8
f 18/51/8 30/48/8 16/52/8
f 10/53/9 25/46/9 26/54/9
f 25/46/9 10/53/9 9/55/9
f 25/46/9 9/55/9 30/48/9
f 25/46/9 30/48/9 28/50/9
f 30/48/9 9/55/9 29/56/9
f 6/57/9 25/46/9 28/50/9
f 6/57/9 23/44/9 25/46/9
f 6/57/9 24/58/9 23/44/9
f 24/58/9 6/57/9 5/59/9
f 6/57/9 28/50/9 27/60/9
