# Blender v2.83.1 OBJ File: 'World_Nature.blend'
# www.blender.org
o Roof_Building_001_roofHighGable.001
v -0.500000 1.166459 -0.400000
v -0.500000 0.966459 -0.500000
v -0.500000 0.966459 -0.400000
v -0.475000 1.166459 -0.400000
v -0.475000 0.966459 -0.400000
v 0.500000 0.966459 0.500000
v 0.500000 0.966459 0.400000
v 0.500000 1.166459 0.400000
v 0.475000 1.166459 0.400000
v 0.475000 0.966459 0.400000
v 0.500000 1.166459 -0.400000
v 0.475000 0.966459 -0.400000
v 0.500000 0.966459 -0.400000
v 0.475000 1.166459 -0.400000
v -0.500000 1.166459 0.400000
v -0.475000 0.966459 0.400000
v -0.500000 0.966459 0.400000
v -0.475000 1.166459 0.400000
v 0.500000 0.966459 -0.500000
v -0.500000 0.966459 0.500000
v -0.550000 0.921738 -0.522361
v -0.550000 1.085869 -0.496197
v -0.550000 0.944099 -0.567082
v -0.550000 1.966459 0.000000
v -0.550000 2.078262 0.000000
v -0.550000 0.921738 0.522361
v -0.550000 1.085869 0.496197
v -0.550000 0.944098 0.567082
v 0.550000 0.921738 0.522361
v -0.475000 1.966459 0.000000
v 0.550000 1.966459 0.000000
v 0.475000 1.966459 0.000000
v 0.550000 0.921738 -0.522361
v 0.550000 2.078262 0.000000
v 0.550000 1.085869 0.496197
v 0.550000 1.085869 -0.496197
v 0.550000 0.944099 -0.567082
v 0.550000 0.944098 0.567082
vt 0.347283 0.602679
vt 0.347283 0.602679
vt 0.347283 0.602679
vt 0.347283 0.602679
vt 0.347283 0.602679
vt 0.347283 0.602679
vt 0.347283 0.602679
vt 0.347283 0.602679
vt 0.347283 0.602679
vt 0.347283 0.602679
vt 0.347283 0.602679
vt 0.347283 0.602679
vt 0.347283 0.602679
vt 0.347283 0.602679
vt 0.347283 0.602679
vt 0.347283 0.602679
vt 0.347283 0.602679
vt 0.347283 0.602679
vt 0.347283 0.602679
vt 0.347283 0.602679
vt 0.083883 0.359034
vt 0.083883 0.359034
vt 0.083883 0.359034
vt 0.083883 0.359034
vt 0.083883 0.359034
vt 0.083883 0.359034
vt 0.083883 0.359034
vt 0.083883 0.359034
vt 0.083883 0.359034
vt 0.083883 0.359034
vt 0.083883 0.359034
vt 0.083883 0.359034
vt 0.083883 0.359034
vt 0.083883 0.359034
vt 0.083883 0.359034
vt 0.083883 0.359034
vt 0.083883 0.359034
vt 0.083883 0.359034
vt 0.083883 0.359034
vt 0.083883 0.359034
vt 0.083883 0.359034
vt 0.083883 0.359034
vt 0.083883 0.359034
vt 0.083883 0.359034
vt 0.083883 0.359034
vt 0.083883 0.359034
vt 0.083883 0.359034
vt 0.083883 0.359034
vt 0.083883 0.359034
vt 0.083883 0.359034
vt 0.606292 0.633408
vt 0.606292 0.633409
vt 0.606292 0.633409
vt 0.606292 0.633409
vt 0.606292 0.633409
vt 0.606292 0.633408
vt 0.606292 0.633409
vt 0.606292 0.633408
vt 0.606292 0.633409
vt 0.606292 0.633409
vt 0.606292 0.633410
vt 0.606292 0.633408
vt 0.606292 0.633408
vt 0.606292 0.633410
vt 0.606292 0.633410
vt 0.606292 0.633409
vt 0.606292 0.633408
vt 0.606292 0.633409
vt 0.380208 0.361229
vt 0.380208 0.361229
vt 0.380208 0.361229
vt 0.380208 0.361229
vt 0.380208 0.361229
vt 0.380208 0.361229
vt 0.380208 0.361229
vt 0.380208 0.361229
vn -1.0000 0.0000 0.0000
vn 0.0000 -0.0000 1.0000
vn 1.0000 0.0000 0.0000
vn 0.0000 0.0000 -1.0000
vn 0.0000 -0.4472 -0.8944
vn 0.0000 -0.4472 0.8944
vn 0.0000 0.4472 0.8944
vn 0.0000 -0.8944 0.4472
vn 0.0000 -0.8944 -0.4472
vn 0.0000 0.4472 -0.8944
vn 0.0000 -1.0000 0.0000
s 1
f 1/1/1 2/2/1 3/3/1
f 4/4/2 3/3/2 5/5/2
f 3/3/2 4/4/2 1/1/2
f 6/6/3 7/7/3 8/8/3
f 9/9/4 7/7/4 10/10/4
f 7/7/4 9/9/4 8/8/4
f 11/11/2 12/12/2 13/13/2
f 12/12/2 11/11/2 14/14/2
f 15/15/4 16/16/4 17/17/4
f 16/16/4 15/15/4 18/18/4
f 13/13/3 19/19/3 11/11/3
f 20/20/1 15/15/1 17/17/1
f 21/21/1 22/22/1 23/23/1
f 22/22/1 21/21/1 24/24/1
f 22/22/1 24/24/1 25/25/1
f 25/25/1 24/24/1 26/26/1
f 25/25/1 26/26/1 27/27/1
f 27/27/1 26/26/1 28/28/1
f 26/26/5 20/29/5 29/30/5
f 20/29/5 26/26/5 24/24/5
f 20/29/5 24/24/5 15/31/5
f 15/31/5 24/24/5 18/32/5
f 18/32/5 24/24/5 30/33/5
f 6/34/5 29/30/5 20/29/5
f 29/30/5 6/34/5 31/35/5
f 31/35/5 6/34/5 8/36/5
f 31/35/5 8/36/5 32/37/5
f 32/37/5 8/36/5 9/38/5
f 33/39/6 19/40/6 21/21/6
f 19/40/6 33/39/6 31/35/6
f 19/40/6 31/35/6 11/41/6
f 11/41/6 31/35/6 14/42/6
f 14/42/6 31/35/6 32/37/6
f 2/43/6 21/21/6 19/40/6
f 21/21/6 2/43/6 24/24/6
f 24/24/6 2/43/6 1/44/6
f 24/24/6 1/44/6 30/33/6
f 30/33/6 1/44/6 4/45/6
f 34/46/7 27/27/7 35/47/7
f 27/27/7 34/46/7 25/25/7
f 36/48/3 33/39/3 37/49/3
f 33/39/3 36/48/3 31/35/3
f 31/35/3 36/48/3 34/46/3
f 31/35/3 34/46/3 29/30/3
f 29/30/3 34/46/3 35/47/3
f 29/30/3 35/47/3 38/50/3
f 28/28/8 29/30/8 38/50/8
f 29/30/8 28/28/8 26/26/8
f 21/21/9 37/49/9 33/39/9
f 37/49/9 21/21/9 23/23/9
f 25/25/10 36/48/10 22/22/10
f 36/48/10 25/25/10 34/46/10
f 32/51/3 12/52/3 14/53/3
f 12/52/3 32/51/3 10/54/3
f 10/54/3 32/51/3 9/55/3
f 20/56/11 7/57/11 6/58/11
f 7/57/11 20/56/11 10/54/11
f 10/54/11 20/56/11 12/52/11
f 12/52/11 20/56/11 16/59/11
f 16/59/11 20/56/11 17/60/11
f 5/61/11 12/52/11 16/59/11
f 2/62/11 12/52/11 5/61/11
f 19/63/11 12/52/11 2/62/11
f 12/52/11 19/63/11 13/64/11
f 2/62/11 5/61/11 3/65/11
f 16/59/1 4/66/1 5/61/1
f 4/66/1 16/59/1 30/67/1
f 30/67/1 16/59/1 18/68/1
f 22/69/10 37/70/10 23/71/10
f 37/70/10 22/69/10 36/72/10
f 35/73/7 28/74/7 38/75/7
f 28/74/7 35/73/7 27/76/7
