# Blender v2.83.1 OBJ File: 'World_Nature.blend'
# www.blender.org
o Roof_Building_002_roofHighPoint
v -0.550000 1.000000 0.500000
v 0.500000 1.000000 0.550000
v -0.500000 1.000000 0.550000
v 0.500000 1.000000 0.500000
v -0.500000 1.000000 0.500000
v -0.500000 1.000000 -0.500000
v -0.550000 1.000000 -0.500000
v 0.550000 1.000000 0.500000
v 0.500000 1.000000 -0.500000
v 0.550000 1.000000 -0.500000
v -0.500000 1.000000 -0.550000
v 0.500000 1.000000 -0.550000
v -0.498438 1.125000 0.454687
v -0.454688 1.125000 0.498437
v -0.137500 2.000000 0.137500
v 0.068750 1.950000 0.068750
v 0.137500 2.000000 0.137500
v -0.068750 1.950000 0.068750
v 0.068750 1.950000 -0.068750
v -0.068750 1.950000 -0.068750
v -0.137500 2.000000 -0.137500
v 0.137500 2.000000 -0.137500
v 0.454687 1.125000 0.498438
v 0.498437 1.125000 0.454688
v -0.498437 1.125000 -0.454688
v -0.454687 1.125000 -0.498438
v 0.498438 1.125000 -0.454687
v 0.454688 1.125000 -0.498437
vt 0.132173 0.367815
vt 0.132173 0.367813
vt 0.132173 0.367813
vt 0.132173 0.367813
vt 0.132173 0.367813
vt 0.132173 0.367813
vt 0.132173 0.367815
vt 0.132173 0.367815
vt 0.132173 0.367813
vt 0.132173 0.367815
vt 0.132173 0.367813
vt 0.132173 0.367813
vt 0.132173 0.367814
vt 0.132173 0.367814
vt 0.132173 0.367813
vt 0.132173 0.367813
vt 0.132173 0.367813
vt 0.132173 0.367813
vt 0.132173 0.367814
vt 0.132173 0.367814
vt 0.132173 0.367813
vt 0.132173 0.367813
vt 0.132173 0.367814
vt 0.132173 0.367814
vt 0.132173 0.367814
vt 0.132173 0.367814
vt 0.132173 0.367814
vt 0.132173 0.367814
vt 0.364843 0.367814
vt 0.364843 0.367814
vt 0.364843 0.367814
vt 0.364843 0.367814
vt 0.364843 0.367814
vt 0.364843 0.367814
vt 0.364843 0.367814
vt 0.364843 0.367814
vt 0.364842 0.367814
vt 0.364842 0.367814
vt 0.364842 0.367814
vt 0.364842 0.367814
vt 0.364843 0.367814
vt 0.364843 0.367814
vt 0.364843 0.367814
vt 0.364843 0.367814
vn 0.0000 -1.0000 0.0000
vn -0.0000 0.1145 -0.9934
vn 0.0000 -0.6710 -0.7415
vn -0.0000 1.0000 0.0000
vn -0.6201 0.4806 0.6201
vn 0.0000 0.8087 -0.5882
vn 0.5882 0.8087 0.0000
vn -0.5882 0.8087 0.0000
vn -0.0000 0.3813 0.9244
vn 0.6201 0.4806 0.6201
vn -0.9244 0.3813 -0.0000
vn -0.6201 0.4806 -0.6201
vn 0.9244 0.3813 0.0000
vn 0.6201 0.4806 -0.6201
vn 0.0000 0.3813 -0.9244
vn 0.0000 0.8087 0.5882
s 1
f 1/1/1 2/2/1 3/3/1
f 2/2/1 1/1/1 4/4/1
f 4/4/1 1/1/1 5/5/2
f 5/5/2 1/1/1 6/6/3
f 6/6/3 1/1/1 7/7/1
f 4/4/1 8/8/1 2/2/1
f 8/8/1 4/4/1 9/9/4
f 5/5/2 9/9/4 4/4/1
f 9/9/4 5/5/2 6/6/3
f 8/8/1 9/9/4 10/10/1
f 10/10/1 9/9/4 6/6/3
f 10/10/1 6/6/3 7/7/1
f 10/10/1 7/7/1 11/11/1
f 10/10/1 11/11/1 12/12/1
f 13/13/5 14/14/5 15/15/5
f 16/16/6 15/15/6 17/17/6
f 15/15/6 16/16/6 18/18/6
f 19/19/4 18/18/4 16/16/4
f 18/18/4 19/19/4 20/20/4
f 18/18/7 21/21/7 15/15/7
f 21/21/7 18/18/7 20/20/7
f 22/22/8 16/16/8 17/17/8
f 16/16/8 22/22/8 19/19/8
f 17/17/9 14/14/9 23/23/9
f 14/14/9 17/17/9 15/15/9
f 17/17/10 23/23/10 24/24/10
f 13/13/11 21/21/11 25/25/11
f 21/21/11 13/13/11 15/15/11
f 21/21/12 26/26/12 25/25/12
f 27/27/13 17/17/13 24/24/13
f 17/17/13 27/27/13 22/22/13
f 22/22/14 27/27/14 28/28/14
f 26/26/15 22/22/15 28/28/15
f 22/22/15 26/26/15 21/21/15
f 22/22/16 20/20/16 19/19/16
f 20/20/16 22/22/16 21/21/16
f 24/29/10 2/30/10 8/31/10
f 2/30/10 24/29/10 23/32/10
f 13/33/5 3/34/5 14/35/5
f 3/34/5 13/33/5 1/36/5
f 11/37/15 28/38/15 12/39/15
f 28/38/15 11/37/15 26/40/15
f 25/41/12 11/37/12 7/42/12
f 11/37/12 25/41/12 26/40/12
f 28/38/14 10/43/14 12/39/14
f 10/43/14 28/38/14 27/44/14
f 27/44/13 8/31/13 10/43/13
f 8/31/13 27/44/13 24/29/13
f 23/32/9 3/34/9 2/30/9
f 3/34/9 23/32/9 14/35/9
f 13/33/11 7/42/11 1/36/11
f 7/42/11 13/33/11 25/41/11
