# Blender v2.83.1 OBJ File: 'World_Nature.blend'
# www.blender.org
o Roof_Building_004_roofPoint.001
v -0.454687 1.062500 -0.498438
v -0.550000 1.000000 -0.500000
v -0.498437 1.062500 -0.454688
v -0.500000 1.000000 -0.550000
v -0.454688 1.062500 0.498437
v -0.550000 1.000000 0.500000
v -0.500000 1.000000 0.550000
v -0.498437 1.062500 0.454687
v 0.454688 1.062500 0.498438
v 0.500000 1.000000 0.550000
v 0.498438 1.062500 -0.454687
v 0.550000 1.000000 0.500000
v 0.550000 1.000000 -0.500000
v 0.498437 1.062500 0.454688
v 0.454688 1.062500 -0.498437
v 0.500000 1.000000 -0.550000
v -0.137500 1.500000 0.137500
v -0.137500 1.500000 -0.137500
v 0.137500 1.500000 -0.137500
v -0.068750 1.450000 -0.068750
v 0.068750 1.450000 -0.068750
v -0.500000 1.000000 -0.500000
v 0.500000 1.000000 0.500000
v -0.500000 1.000000 0.500000
v 0.500000 1.000000 -0.500000
v 0.137500 1.500000 0.137500
v -0.068750 1.450000 0.068750
v 0.068750 1.450000 0.068750
vt 0.327528 0.385375
vt 0.327528 0.385373
vt 0.327528 0.385375
vt 0.327528 0.385373
vt 0.327528 0.385375
vt 0.327528 0.385373
vt 0.327528 0.385373
vt 0.327528 0.385375
vt 0.327527 0.385374
vt 0.327527 0.385374
vt 0.327527 0.385374
vt 0.327527 0.385374
vt 0.327527 0.385374
vt 0.327527 0.385374
vt 0.327528 0.385375
vt 0.327528 0.385373
vt 0.136563 0.374399
vt 0.136563 0.374399
vt 0.136563 0.374399
vt 0.136563 0.374399
vt 0.136563 0.374400
vt 0.136563 0.374399
vt 0.136563 0.374399
vt 0.136563 0.374399
vt 0.136563 0.374398
vt 0.136563 0.374398
vt 0.136563 0.374398
vt 0.136563 0.374398
vt 0.136563 0.374400
vt 0.136563 0.374400
vt 0.136563 0.374398
vt 0.136563 0.374400
vt 0.136563 0.374398
vt 0.136563 0.374400
vt 0.136563 0.374398
vt 0.136563 0.374398
vt 0.136563 0.374399
vt 0.136563 0.374399
vt 0.136563 0.374399
vt 0.136563 0.374400
vt 0.136563 0.374399
vt 0.136563 0.374399
vt 0.136563 0.374399
vt 0.136563 0.374400
vn -0.4766 0.7387 -0.4766
vn -0.4766 0.7387 0.4766
vn -0.0000 0.6364 0.7714
vn 0.7714 0.6364 0.0000
vn 0.4766 0.7387 -0.4766
vn -0.7714 0.6364 0.0000
vn -0.0000 0.6364 -0.7714
vn 0.4766 0.7387 0.4766
vn 0.0000 0.8087 0.5882
vn 0.0000 -1.0000 0.0000
vn 0.0000 0.0000 0.0000
vn 0.0000 -0.7415 0.6710
vn 0.5882 0.8087 0.0000
vn -0.5882 0.8087 0.0000
vn 0.0000 0.8087 -0.5882
vn 0.0000 1.0000 0.0000
s 1
f 1/1/1 2/2/1 3/3/1
f 2/2/1 1/1/1 4/4/1
f 5/5/2 6/6/2 7/7/2
f 6/6/2 5/5/2 8/8/2
f 9/9/3 7/7/3 10/10/3
f 7/7/3 9/9/3 5/5/3
f 11/11/4 12/12/4 13/13/4
f 12/12/4 11/11/4 14/14/4
f 13/13/5 15/15/5 11/11/5
f 15/15/5 13/13/5 16/16/5
f 8/8/6 2/2/6 6/6/6
f 2/2/6 8/8/6 3/3/6
f 4/4/7 15/15/7 16/16/7
f 15/15/7 4/4/7 1/1/7
f 12/12/8 9/9/8 10/10/8
f 9/9/8 12/12/8 14/14/8
f 17/17/6 3/18/6 8/19/6
f 3/18/6 17/17/6 18/20/6
f 1/21/1 3/18/1 18/20/1
f 19/22/9 20/23/9 21/24/9
f 20/23/9 19/22/9 18/20/9
f 22/25/10 23/26/11 24/27/12
f 23/26/11 22/25/10 25/28/10
f 24/27/12 2/29/10 22/25/10
f 2/29/10 24/27/12 6/30/10
f 22/25/10 2/29/10 4/31/10
f 22/25/10 4/31/10 25/28/10
f 25/28/10 4/31/10 13/32/10
f 13/32/10 4/31/10 16/33/10
f 12/34/10 6/30/10 24/27/12
f 12/34/10 24/27/12 23/26/11
f 12/34/10 23/26/11 25/28/10
f 12/34/10 25/28/10 13/32/10
f 10/35/10 6/30/10 12/34/10
f 6/30/10 10/35/10 7/36/10
f 11/37/4 26/38/4 14/39/4
f 26/38/4 11/37/4 19/22/4
f 26/38/8 9/40/8 14/39/8
f 1/21/7 19/22/7 15/41/7
f 19/22/7 1/21/7 18/20/7
f 27/42/13 18/20/13 17/17/13
f 18/20/13 27/42/13 20/23/13
f 19/22/14 28/43/14 26/38/14
f 28/43/14 19/22/14 21/24/14
f 28/43/15 17/17/15 26/38/15
f 17/17/15 28/43/15 27/42/15
f 21/24/16 27/42/16 28/43/16
f 27/42/16 21/24/16 20/23/16
f 17/17/2 8/19/2 5/44/2
f 15/41/5 19/22/5 11/37/5
f 26/38/3 5/44/3 9/40/3
f 5/44/3 26/38/3 17/17/3
