# Blender v2.81 (sub 16) OBJ File: ''
# www.blender.org
mtllib Beacon_SmallerBottom.mtl
o Beacon
v 0.000000 -1.000000 -0.821284
v 0.314291 -1.000000 -0.758768
v 0.382683 1.000000 -0.923880
v 0.000000 1.000000 -1.000000
v 0.580736 -1.000000 -0.580736
v 0.707107 1.000000 -0.707107
v 0.758768 -1.000000 -0.314292
v 0.923880 1.000000 -0.382683
v 0.821284 -1.000000 -0.000000
v 1.000000 1.000000 0.000000
v 0.758768 -1.000000 0.314292
v 0.923880 1.000000 0.382684
v 0.580736 -1.000000 0.580736
v 0.707107 1.000000 0.707107
v 0.314291 -1.000000 0.758768
v 0.382683 1.000000 0.923880
v 0.000000 -1.000000 0.821284
v 0.000000 1.000000 1.000000
v -0.314291 -1.000000 0.758768
v -0.382683 1.000000 0.923880
v -0.580736 -1.000000 0.580736
v -0.707107 1.000000 0.707107
v -0.758768 -1.000000 0.314292
v -0.923880 1.000000 0.382684
v -0.821284 -1.000000 -0.000000
v -1.000000 1.000000 0.000000
v -0.758767 -1.000000 -0.314292
v -0.923879 1.000000 -0.382684
v -0.580736 -1.000000 -0.580736
v -0.707107 1.000000 -0.707107
v -0.314291 -1.000000 -0.758768
v -0.382683 1.000000 -0.923880
vt 0.500000 0.000000
vt 0.691342 0.000000
vt 0.691342 1.000000
vt 0.500000 1.000000
vt 0.853553 0.000000
vt 0.853553 1.000000
vt 0.961940 0.000000
vt 0.961940 1.000000
vt 1.000000 0.000000
vt 1.000000 1.000000
vt 0.961940 0.000000
vt 0.961940 1.000000
vt 0.853553 0.000000
vt 0.853553 1.000000
vt 0.691342 0.000000
vt 0.691342 1.000000
vt 0.500000 0.000000
vt 0.500000 1.000000
vt 0.308658 0.000000
vt 0.308658 1.000000
vt 0.146447 0.000000
vt 0.146447 1.000000
vt 0.038060 0.000000
vt 0.038060 1.000000
vt 0.000000 0.000000
vt 0.000000 1.000000
vt 0.038060 0.000000
vt 0.038060 1.000000
vt 0.146447 0.000000
vt 0.146447 1.000000
vt 0.308658 0.000000
vt 0.308658 1.000000
vn 0.0000 0.0890 0.9960
vn -0.3812 0.0890 0.9202
vn -0.7043 0.0890 0.7043
vn -0.9202 0.0890 0.3812
vn -0.9960 0.0890 0.0000
vn -0.9202 0.0890 -0.3812
vn -0.7043 0.0890 -0.7043
vn -0.3812 0.0890 -0.9202
vn 0.0000 0.0890 -0.9960
vn 0.3812 0.0890 -0.9202
vn 0.7043 0.0890 -0.7043
vn 0.9202 0.0890 -0.3812
vn 0.9960 0.0890 0.0000
vn 0.9202 0.0890 0.3812
vn 0.7043 0.0890 0.7043
vn 0.3812 0.0890 0.9202
usemtl Default_OBJ
s 1
f 1/1/1 2/2/2 3/3/2 4/4/1
f 2/2/2 5/5/3 6/6/3 3/3/2
f 5/5/3 7/7/4 8/8/4 6/6/3
f 7/7/4 9/9/5 10/10/5 8/8/4
f 9/9/5 11/11/6 12/12/6 10/10/5
f 11/11/6 13/13/7 14/14/7 12/12/6
f 13/13/7 15/15/8 16/16/8 14/14/7
f 15/15/8 17/17/9 18/18/9 16/16/8
f 17/17/9 19/19/10 20/20/10 18/18/9
f 19/19/10 21/21/11 22/22/11 20/20/10
f 21/21/11 23/23/12 24/24/12 22/22/11
f 23/23/12 25/25/13 26/26/13 24/24/12
f 25/25/13 27/27/14 28/28/14 26/26/13
f 27/27/14 29/29/15 30/30/15 28/28/14
f 29/29/15 31/31/16 32/32/16 30/30/15
f 31/31/16 1/1/1 4/4/1 32/32/16
