# Blender v2.83.0 OBJ File: 'Char_Planes.blend'
# www.blender.org
mtllib Char_Test_Plane.mtl
o Plane_Top_View_Plane.001
v -0.813536 0.279287 1.000000
v -0.040474 -0.008058 -0.000852
v -0.813536 0.279287 0.000000
v -0.010119 -0.002014 -0.750213
v -0.063741 0.261730 1.000000
v -0.063741 0.261730 0.000000
v -0.063741 0.261730 -0.750000
v -0.076305 0.231535 -0.000629
v 0.813536 0.279287 1.000000
v 0.040474 -0.008058 -0.000852
v 0.000000 0.000000 1.000000
v 0.000000 0.000000 -1.000000
v 0.813536 0.279287 0.000000
v 0.000000 0.000000 0.000000
v 0.010119 -0.002014 -0.750213
v 0.063741 0.261730 1.000000
v 0.063741 0.261730 0.000000
v 0.063741 0.261730 -0.750000
v 0.076305 0.231535 -0.000629
vt 0.375000 0.500000
vt 0.500000 0.500000
vt 0.500000 1.000000
vt 0.375000 0.875000
vt 0.375000 0.000000
vt 0.500000 0.000000
vt 0.000000 0.000000
vt 0.000000 0.500000
vt 0.000000 0.869388
vt 0.375000 1.000000
vt 0.000000 1.000000
vt 0.625000 0.500000
vt 0.625000 0.875000
vt 0.625000 0.000000
vt 1.000000 0.000000
vt 1.000000 0.500000
vt 1.000000 0.869388
vt 1.000000 1.000000
vt 0.625000 1.000000
vn 0.9716 0.2366 -0.0000
vn 0.0234 0.9997 -0.0000
vn -0.9841 -0.1749 -0.0324
vn -0.0646 -0.9971 -0.0413
vn -0.9791 -0.1990 -0.0413
vn -0.9716 0.2366 -0.0000
vn -0.0234 0.9997 -0.0000
vn 0.9841 -0.1749 -0.0324
vn 0.0646 -0.9971 -0.0413
vn 0.9791 -0.1990 -0.0413
usemtl Test_Material
s off
f 6/1/1 14/2/1 12/3/1 7/4/1
f 5/5/1 11/6/1 14/2/1 6/1/1
f 1/7/2 5/5/2 6/1/2 3/8/2
f 3/8/2 6/1/2 7/4/2
f 8/9/3 7/4/3 4/10/3 2/11/3
f 7/4/4 8/9/4 3/8/4
f 7/4/5 12/3/5 4/10/5
f 17/12/6 18/13/6 12/3/6 14/2/6
f 16/14/6 17/12/6 14/2/6 11/6/6
f 9/15/7 13/16/7 17/12/7 16/14/7
f 13/16/7 18/13/7 17/12/7
f 19/17/8 10/18/8 15/19/8 18/13/8
f 18/13/9 13/16/9 19/17/9
f 18/13/10 15/19/10 12/3/10
o Plane_Top_View.001_Plane.002
v -0.813536 0.279287 1.000000
v -0.040474 -0.008058 -0.000852
v -0.813536 0.279287 0.000000
v -0.010119 -0.002014 -0.750213
v -0.063741 0.261730 1.000000
v -0.063741 0.261730 0.000000
v -0.063741 0.261730 -0.750000
v -0.076305 0.231535 -0.000629
v 0.813536 0.279287 1.000000
v 0.040474 -0.008058 -0.000852
v 0.000000 0.000000 1.000000
v 0.000000 0.000000 -1.000000
v 0.813536 0.279287 0.000000
v 0.000000 0.000000 0.000000
v 0.010119 -0.002014 -0.750213
v 0.063741 0.261730 1.000000
v 0.063741 0.261730 0.000000
v 0.063741 0.261730 -0.750000
v 0.076305 0.231535 -0.000629
vt 0.375000 0.500000
vt 0.375000 0.875000
vt 0.500000 1.000000
vt 0.500000 0.500000
vt 0.375000 0.000000
vt 0.500000 0.000000
vt 0.000000 0.000000
vt 0.000000 0.500000
vt 0.000000 0.869388
vt 0.000000 1.000000
vt 0.375000 1.000000
vt 0.625000 0.500000
vt 0.625000 0.875000
vt 0.625000 0.000000
vt 1.000000 0.000000
vt 1.000000 0.500000
vt 1.000000 0.869388
vt 0.625000 1.000000
vt 1.000000 1.000000
vn -0.9716 -0.2366 0.0000
vn -0.0234 -0.9997 0.0000
vn 0.9841 0.1749 0.0324
vn 0.0646 0.9971 0.0413
vn 0.9791 0.1990 0.0413
vn 0.9716 -0.2366 0.0000
vn 0.0234 -0.9997 0.0000
vn -0.9841 0.1749 0.0324
vn -0.0646 0.9971 0.0413
vn -0.9791 0.1990 0.0413
usemtl Test_Material
s off
f 25/20/11 26/21/11 31/22/11 33/23/11
f 24/24/11 25/20/11 33/23/11 30/25/11
f 20/26/12 22/27/12 25/20/12 24/24/12
f 22/27/12 26/21/12 25/20/12
f 27/28/13 21/29/13 23/30/13 26/21/13
f 26/21/14 22/27/14 27/28/14
f 26/21/15 23/30/15 31/22/15
f 36/31/16 33/23/16 31/22/16 37/32/16
f 35/33/16 30/25/16 33/23/16 36/31/16
f 28/34/17 35/33/17 36/31/17 32/35/17
f 32/35/17 36/31/17 37/32/17
f 38/36/18 37/32/18 34/37/18 29/38/18
f 37/32/19 38/36/19 32/35/19
f 37/32/20 31/22/20 34/37/20
