# Blender v2.83.0 OBJ File: 'Temp_Plane.blend'
# www.blender.org
mtllib Temp_Plane.mtl
o Cube
v -0.648021 1.732737 -3.157977
v -0.956989 -1.040838 -3.157977
v 0.734043 1.732737 -3.157977
v 1.043011 -1.040838 -3.157977
v -0.648021 0.657627 4.545409
v -0.751058 -0.886390 4.545409
v 0.734043 0.657627 4.545409
v 0.837080 -0.886390 4.545409
v -0.956989 -1.040838 0.693716
v 0.734043 0.959162 0.693716
v 1.043011 -1.040838 0.693716
v -0.648021 0.959162 0.693716
v 1.043011 -1.040838 -1.232130
v -0.648021 0.959162 -1.232130
v -0.956989 -1.040838 -1.232130
v 0.734043 0.959162 -1.232130
v -0.956989 -1.040838 2.619563
v 0.734043 0.959162 2.619563
v 1.043011 -1.040838 2.619563
v -0.648021 0.959162 2.619563
v -0.956989 -0.040838 -3.157977
v 1.043011 -0.040838 4.545409
v 1.043011 -0.040838 -3.157977
v -0.956989 -0.040838 4.545409
v -0.956989 -0.040838 0.693716
v 1.043011 -0.040838 0.693716
v 1.043011 -0.040838 -1.232130
v -0.956989 -0.040838 -1.232130
v -0.956989 -0.040838 2.619563
v 1.043011 -0.040838 2.619563
v 0.837080 0.304713 4.545409
v -0.956989 0.459162 -3.157977
v 1.043011 0.459162 -3.157977
v -0.751058 0.304713 4.545409
v -0.956989 0.459162 0.693716
v 1.043011 0.459162 0.693716
v 1.043011 0.459162 -1.232130
v -0.956989 0.459162 -1.232130
v -0.956989 0.459162 2.619563
v 1.043011 0.459162 2.619563
v -0.956989 -0.540838 -3.157977
v 1.043011 -0.540838 -3.157977
v -0.956989 -0.540838 4.545409
v -0.956989 -0.540838 0.693716
v 1.043011 -0.540838 0.693716
v 1.043011 -0.540838 -1.232130
v -0.956989 -0.540838 -1.232130
v -0.956989 -0.540838 2.619563
v 1.043011 -0.540838 2.619563
v 1.043011 -0.540838 4.545409
v -0.956989 0.459162 0.693716
v -0.956989 -0.040838 0.693716
v 1.043011 0.459162 0.693716
v 1.043011 -0.040838 0.693716
v -0.956989 0.459162 2.619563
v -0.956989 -0.040838 2.619563
v 1.043011 0.459162 2.619563
v 1.043011 -0.040838 2.619563
v -0.956989 -0.040838 -1.232130
v 1.043011 -0.040838 -1.232130
v -0.956989 -0.540838 0.693716
v 1.043011 -0.540838 0.693716
v 1.043011 -0.540838 -1.232130
v -0.956989 -0.540838 -1.232130
v -0.956989 -0.540838 2.619563
v 1.043011 -0.540838 2.619563
v -0.956989 0.459162 0.693716
v -0.956989 -0.040838 0.693716
v -0.956989 0.459162 2.619563
v -0.956989 -0.040838 2.619563
v -0.956989 -0.040838 -1.232130
v -0.956989 -0.540838 0.693716
v -0.956989 -0.540838 -1.232130
v -0.956989 -0.540838 2.619563
v -3.456989 0.459162 0.693716
v -3.456989 -0.040838 0.693716
v -3.456989 0.459162 2.619563
v -3.456989 -0.040838 2.619563
v -3.456989 -0.040838 -1.232130
v -3.456989 -0.540838 0.693716
v -3.456989 -0.540838 -1.232130
v -3.456989 -0.540838 2.619563
v 3.543011 0.459162 0.693716
v 3.543011 -0.040838 0.693716
v 3.543011 0.459162 2.619563
v 3.543011 -0.040838 2.619563
v 3.543011 -0.040838 -1.232130
v 3.543011 -0.540838 0.693716
v 3.543011 -0.540838 -1.232130
v 3.543011 -0.540838 2.619563
v 1.043011 -1.040838 -2.195054
v -0.648021 1.732737 -2.195054
v -0.956989 -1.040838 -2.195054
v 0.734043 1.732737 -2.195054
v 1.043011 -0.040838 -2.195054
v -0.956989 -0.040838 -2.195054
v 1.043011 0.459162 -2.195054
v -0.956989 0.459162 -2.195054
v -0.956989 -0.540838 -2.195054
v 1.043011 -0.540838 -2.195054
v -0.956989 -1.040838 -1.713592
v 0.734043 0.959162 -1.713592
v 1.043011 -0.040838 -1.713592
v 1.043011 0.459162 -1.713592
v 1.043011 -0.540838 -1.713592
v 1.043011 -1.040838 -1.713592
v -0.648021 0.959162 -1.713592
v -0.956989 -0.040838 -1.713592
v -0.956989 0.459162 -1.713592
v -0.956989 -0.540838 -1.713592
v 1.043011 -1.040838 -2.676515
v -0.648021 1.732737 -2.676515
v -0.956989 -0.040838 -2.676515
v -0.956989 0.459162 -2.676515
v -0.956989 -0.540838 -2.676515
v -0.956989 -1.040838 -2.676515
v 0.734043 1.732737 -2.676515
v 1.043011 -0.040838 -2.676515
v 1.043011 0.459162 -2.676515
v 1.043011 -0.540838 -2.676515
v 0.043011 -1.040838 4.545409
v 0.043011 1.732737 -3.157977
v 0.043011 0.657627 4.545409
v 0.043011 -1.040838 -3.157977
v 0.043011 -1.040838 0.693716
v 0.043011 0.959162 0.693716
v 0.043011 0.959162 -1.232130
v 0.043011 -1.040838 -1.232130
v 0.043011 -1.040838 2.619563
v 0.043011 0.959162 2.619563
v 0.043011 -0.040838 -3.157977
v 0.043011 -0.040838 4.545409
v 0.043011 0.459162 -3.157977
v 0.043011 0.459162 4.545409
v 0.043011 -0.540838 4.545409
v 0.043011 -0.540838 -3.157977
v 0.043011 1.732737 -2.195054
v 0.043011 -1.040838 -2.195054
v 0.043011 -1.040838 -1.713592
v 0.043011 0.959162 -1.713592
v 0.043011 1.732737 -2.676515
v 0.043011 -1.040838 -2.676515
v -0.456989 0.657627 4.545409
v -0.456989 -1.040838 -3.157977
v -0.456989 -0.040838 4.545409
v -0.456989 0.459162 4.545409
v -0.456989 -0.540838 4.545409
v -0.456989 -1.040838 4.545409
v -0.456989 1.732737 -3.157977
v -0.456989 -1.040838 0.693716
v -0.456989 0.959162 0.693716
v -0.456989 0.959162 -1.232130
v -0.456989 -1.040838 -1.232130
v -0.456989 -1.040838 2.619563
v -0.456989 0.959162 2.619563
v -0.456989 -0.040838 -3.157977
v -0.456989 0.459162 -3.157977
v -0.456989 -0.540838 -3.157977
v -0.456989 1.732737 -2.195054
v -0.456989 -1.040838 -2.195054
v -0.456989 -1.040838 -1.713592
v -0.456989 0.959162 -1.713592
v -0.456989 1.732737 -2.676515
v -0.456989 -1.040838 -2.676515
v 0.543011 -1.040838 4.545409
v 0.543011 1.732737 -3.157977
v 0.543011 -1.040838 0.693716
v 0.543011 0.959162 0.693716
v 0.543011 0.959162 -1.232130
v 0.543011 -1.040838 -1.232130
v 0.543011 -1.040838 2.619563
v 0.543011 0.959162 2.619563
v 0.543011 -0.040838 -3.157977
v 0.543011 0.459162 -3.157977
v 0.543011 -0.540838 -3.157977
v 0.543011 1.732737 -2.195054
v 0.543011 -1.040838 -2.195054
v 0.543011 -1.040838 -1.713592
v 0.543011 0.959162 -1.713592
v 0.543011 1.732737 -2.676515
v 0.543011 -1.040838 -2.676515
v 0.543011 0.657627 4.545409
v 0.543011 -1.040838 -3.157977
v 0.543011 -0.040838 4.545409
v 0.543011 0.459162 4.545409
v 0.543011 -0.540838 4.545409
vt 0.812500 0.687500
vt 0.875000 0.687500
vt 0.875000 0.750000
vt 0.812500 0.750000
vt 0.562500 0.937500
vt 0.625000 0.937500
vt 0.625000 1.000000
vt 0.562500 1.000000
vt 0.562500 0.187500
vt 0.625000 0.187500
vt 0.625000 0.250000
vt 0.562500 0.250000
vt 0.359375 0.687500
vt 0.375000 0.687500
vt 0.375000 0.750000
vt 0.359375 0.750000
vt 0.562500 0.687500
vt 0.625000 0.687500
vt 0.625000 0.750000
vt 0.562500 0.750000
vt 0.562500 0.484375
vt 0.625000 0.484375
vt 0.625000 0.500000
vt 0.562500 0.500000
vt 0.562500 0.312500
vt 0.625000 0.312500
vt 0.625000 0.375000
vt 0.562500 0.375000
vt 0.187500 0.687500
vt 0.250000 0.687500
vt 0.250000 0.750000
vt 0.187500 0.750000
vt 0.562500 0.812500
vt 0.625000 0.812500
vt 0.625000 0.875000
vt 0.562500 0.875000
vt 0.687500 0.687500
vt 0.750000 0.687500
vt 0.750000 0.750000
vt 0.687500 0.750000
vt 0.671875 0.687500
vt 0.671875 0.750000
vt 0.562500 0.796875
vt 0.625000 0.796875
vt 0.625000 0.437500
vt 0.562500 0.437500
vt 0.312500 0.687500
vt 0.312500 0.750000
vt 0.125000 0.687500
vt 0.125000 0.750000
vt 0.500000 0.937500
vt 0.500000 0.937500
vt 0.562500 0.937500
vt 0.437500 0.250000
vt 0.500000 0.250000
vt 0.500000 0.312500
vt 0.437500 0.312500
vt 0.437500 0.812500
vt 0.500000 0.812500
vt 0.500000 0.812500
vt 0.437500 0.812500
vt 0.437500 0.796875
vt 0.500000 0.796875
vt 0.562500 0.312500
vt 0.500000 0.312500
vt 0.562500 0.875000
vt 0.437500 0.484375
vt 0.500000 0.484375
vt 0.500000 0.500000
vt 0.437500 0.500000
vt 0.437500 0.687500
vt 0.500000 0.687500
vt 0.500000 0.750000
vt 0.437500 0.750000
vt 0.437500 0.187500
vt 0.500000 0.187500
vt 0.437500 0.937500
vt 0.500000 1.000000
vt 0.437500 1.000000
vt 0.437500 0.875000
vt 0.437500 0.875000
vt 0.437500 0.937500
vt 0.500000 0.375000
vt 0.500000 0.437500
vt 0.500000 0.875000
vt 0.500000 0.875000
vt 0.375000 0.937500
vt 0.375000 1.000000
vt 0.375000 0.187500
vt 0.375000 0.250000
vt 0.375000 0.484375
vt 0.375000 0.500000
vt 0.375000 0.312500
vt 0.437500 0.375000
vt 0.375000 0.375000
vt 0.375000 0.812500
vt 0.375000 0.875000
vt 0.375000 0.796875
vt 0.437500 0.437500
vt 0.375000 0.437500
vt 0.437500 0.937500
vt 0.500000 0.937500
vt 0.500000 0.312500
vt 0.562500 0.312500
vt 0.562500 0.375000
vt 0.500000 0.375000
vt 0.500000 0.875000
vt 0.500000 0.812500
vt 0.437500 0.312500
vt 0.437500 0.375000
vt 0.437500 0.812500
vt 0.437500 0.875000
vt 0.500000 0.437500
vt 0.437500 0.437500
vt 0.437500 0.437500
vt 0.500000 0.437500
vt 0.437500 0.312500
vt 0.437500 0.375000
vt 0.500000 0.375000
vt 0.562500 0.375000
vt 0.437500 0.375000
vt 0.437500 0.437500
vt 0.500000 0.437500
vt 0.500000 0.375000
vt 0.437500 0.312500
vt 0.500000 0.312500
vt 0.562500 0.375000
vt 0.562500 0.312500
vt 0.562500 0.875000
vt 0.562500 0.937500
vt 0.375000 0.765625
vt 0.437500 0.765625
vt 0.437500 0.781250
vt 0.375000 0.781250
vt 0.375000 0.453125
vt 0.437500 0.453125
vt 0.437500 0.468750
vt 0.375000 0.468750
vt 0.500000 0.453125
vt 0.562500 0.453125
vt 0.562500 0.468750
vt 0.500000 0.468750
vt 0.500000 0.765625
vt 0.562500 0.765625
vt 0.562500 0.781250
vt 0.500000 0.781250
vt 0.625000 0.765625
vt 0.625000 0.781250
vt 0.640625 0.687500
vt 0.656250 0.687500
vt 0.656250 0.750000
vt 0.640625 0.750000
vt 0.625000 0.453125
vt 0.625000 0.468750
vt 0.328125 0.687500
vt 0.343750 0.687500
vt 0.343750 0.750000
vt 0.328125 0.750000
vt 0.343750 0.562500
vt 0.359375 0.562500
vt 0.359375 0.625000
vt 0.343750 0.625000
vt 0.625000 0.562500
vt 0.640625 0.562500
vt 0.640625 0.625000
vt 0.625000 0.625000
vt 0.656250 0.562500
vt 0.671875 0.562500
vt 0.671875 0.625000
vt 0.656250 0.625000
vt 0.312500 0.562500
vt 0.328125 0.562500
vt 0.328125 0.625000
vt 0.312500 0.625000
vt 0.375000 0.562500
vt 0.437500 0.562500
vt 0.437500 0.625000
vt 0.375000 0.625000
vt 0.375000 0.062500
vt 0.437500 0.062500
vt 0.437500 0.125000
vt 0.375000 0.125000
vt 0.500000 0.062500
vt 0.562500 0.062500
vt 0.562500 0.125000
vt 0.500000 0.125000
vt 0.500000 0.562500
vt 0.562500 0.562500
vt 0.562500 0.625000
vt 0.500000 0.625000
vt 0.750000 0.562500
vt 0.812500 0.562500
vt 0.812500 0.625000
vt 0.750000 0.625000
vt 0.125000 0.562500
vt 0.187500 0.562500
vt 0.187500 0.625000
vt 0.125000 0.625000
vt 0.250000 0.562500
vt 0.250000 0.625000
vt 0.687500 0.562500
vt 0.687500 0.625000
vt 0.625000 0.062500
vt 0.625000 0.125000
vt 0.875000 0.562500
vt 0.875000 0.625000
vt 0.812500 0.500000
vt 0.875000 0.500000
vt 0.359375 0.500000
vt 0.187500 0.500000
vt 0.250000 0.500000
vt 0.687500 0.500000
vt 0.750000 0.500000
vt 0.671875 0.500000
vt 0.312500 0.500000
vt 0.125000 0.500000
vt 0.640625 0.500000
vt 0.656250 0.500000
vt 0.328125 0.500000
vt 0.343750 0.500000
vt 0.562500 0.000000
vt 0.625000 0.000000
vt 0.437500 0.000000
vt 0.500000 0.000000
vt 0.375000 0.000000
vn 0.0000 0.9880 0.1547
vn 0.8960 0.4328 0.0991
vn 0.0000 0.0000 1.0000
vn 0.0000 -1.0000 0.0000
vn 0.0000 0.0000 -1.0000
vn -0.9718 0.2358 0.0000
vn -0.8507 0.5257 0.0000
vn 0.8507 0.5257 -0.0000
vn 0.0000 1.0000 -0.0000
vn 0.1907 -0.9804 0.0495
vn -0.8960 0.4328 0.0991
vn -1.0000 0.0000 0.0000
vn 1.0000 0.0000 -0.0000
vn -0.9698 0.2362 0.0613
vn 0.9698 0.2362 0.0613
vn 0.9698 -0.2362 0.0613
vn -0.9698 -0.2362 0.0613
vn 0.9718 0.2358 0.0000
vn -0.9130 0.3181 0.2555
vn 0.9130 0.3181 0.2555
vn 0.0000 0.5284 0.8490
vn -0.1907 -0.9804 0.0495
usemtl Material
s off
f 172/1/1 182/2/1 7/3/1 18/4/1
f 40/5/2 18/6/2 7/7/2 31/8/2
f 146/9/3 143/10/3 5/11/3 34/12/3
f 181/13/4 183/14/4 4/15/4 111/16/4
f 174/17/5 166/18/5 3/19/5 33/20/5
f 114/21/6 112/22/6 1/23/6 32/24/6
f 39/25/7 20/26/7 12/27/7 35/28/7
f 171/29/4 167/30/4 11/31/4 19/32/4
f 37/33/8 16/34/8 10/35/8 36/36/8
f 169/37/9 168/38/9 10/39/9 16/40/9
f 179/41/9 169/37/9 16/40/9 102/42/9
f 104/43/8 102/44/8 16/34/8 37/33/8
f 35/28/7 12/27/7 14/45/7 38/46/7
f 167/30/4 170/47/4 13/48/4 11/31/4
f 165/49/10 171/29/10 19/32/10 8/50/10
f 34/12/11 5/11/11 20/26/11 39/25/11
f 36/36/8 10/35/8 18/6/8 40/5/8
f 168/38/9 172/1/9 18/4/9 10/39/9
f 40/5/3 30/51/3 58/52/3 57/53/3
f 43/54/12 24/55/12 29/56/12 48/57/12
f 46/58/3 27/59/3 60/60/3 63/61/3
f 105/62/13 103/63/13 27/59/13 46/58/13
f 29/56/3 39/25/3 55/64/3 56/65/3
f 36/36/3 40/5/3 57/53/3 53/66/3
f 115/67/12 113/68/12 21/69/12 41/70/12
f 175/71/5 173/72/5 23/73/5 42/74/5
f 147/75/3 145/76/3 24/55/3 43/54/3
f 49/77/13 30/51/13 22/78/13 50/79/13
f 49/77/3 45/80/3 62/81/3 66/82/3
f 24/55/14 34/12/14 39/25/14 29/56/14
f 25/83/12 35/28/12 38/46/12 28/84/12
f 103/63/13 104/43/13 37/33/13 27/59/13
f 27/59/13 37/33/13 36/36/13 26/85/13
f 27/59/3 26/85/3 54/86/3 60/60/3
f 113/68/12 114/21/12 32/24/12 21/69/12
f 173/72/5 174/17/5 33/20/5 23/73/5
f 145/76/3 146/9/3 34/12/3 24/55/3
f 30/51/15 40/5/15 31/8/15 22/78/15
f 19/87/16 49/77/16 50/79/16 8/88/16
f 148/89/3 147/75/3 43/54/3 6/90/3
f 183/14/5 175/71/5 42/74/5 4/15/5
f 116/91/12 115/67/12 41/70/12 2/92/12
f 17/93/12 48/57/12 44/94/12 9/95/12
f 13/96/13 46/58/13 45/80/13 11/97/13
f 106/98/13 105/62/13 46/58/13 13/96/13
f 9/95/12 44/94/12 47/99/12 15/100/12
f 6/90/17 43/54/17 48/57/17 17/93/17
f 11/97/13 45/80/13 49/77/13 19/87/13
f 58/52/3 66/82/3 90/101/3 86/102/3
f 78/103/12 77/104/12 75/105/12 76/106/12
f 60/60/9 54/86/9 84/107/9 87/108/9
f 82/109/12 78/103/12 76/106/12 80/110/12
f 62/81/4 63/61/4 89/111/4 88/112/4
f 80/110/12 76/106/12 79/113/12 81/114/12
f 28/84/3 47/99/3 64/115/3 59/116/3
f 44/94/3 48/57/3 65/117/3 61/118/3
f 48/57/3 29/56/3 56/65/3 65/117/3
f 45/80/3 46/58/3 63/61/3 62/81/3
f 30/51/3 49/77/3 66/82/3 58/52/3
f 35/28/3 25/83/3 52/119/3 51/120/3
f 25/83/3 28/84/3 59/116/3 52/119/3
f 26/85/3 36/36/3 53/66/3 54/86/3
f 47/99/3 44/94/3 61/118/3 64/115/3
f 39/25/3 35/28/3 51/120/3 55/64/3
f 72/121/13 73/122/13 71/123/13 68/124/13
f 74/125/13 72/121/13 68/124/13 70/126/13
f 70/126/13 68/124/13 67/127/13 69/128/13
f 74/125/3 70/126/3 78/103/3 82/109/3
f 70/126/3 69/128/3 77/104/3 78/103/3
f 72/121/4 74/125/4 82/109/4 80/110/4
f 71/123/5 73/122/5 81/114/5 79/113/5
f 69/128/9 67/127/9 75/105/9 77/104/9
f 68/124/9 71/123/9 79/113/9 76/106/9
f 67/127/5 68/124/5 76/106/5 75/105/5
f 73/122/4 72/121/4 80/110/4 81/114/4
f 88/112/13 84/107/13 86/102/13 90/101/13
f 89/111/13 87/108/13 84/107/13 88/112/13
f 84/107/13 83/129/13 85/130/13 86/102/13
f 57/53/3 58/52/3 86/102/3 85/130/3
f 63/61/5 60/60/5 87/108/5 89/111/5
f 54/86/5 53/66/5 83/129/5 84/107/5
f 66/82/4 62/81/4 88/112/4 90/101/4
f 53/66/9 57/53/9 85/130/9 83/129/9
f 111/131/13 120/132/13 100/133/13 91/134/13
f 101/135/12 110/136/12 99/137/12 93/138/12
f 108/139/12 109/140/12 98/141/12 96/142/12
f 118/143/13 119/144/13 97/145/13 95/146/13
f 110/136/12 108/139/12 96/142/12 99/137/12
f 120/132/13 118/143/13 95/146/13 100/133/13
f 119/144/18 117/147/18 94/148/18 97/145/18
f 180/149/9 176/150/9 94/151/9 117/152/9
f 109/140/19 107/153/19 92/154/19 98/141/19
f 178/155/4 177/156/4 91/157/4 106/158/4
f 170/47/4 178/155/4 106/158/4 13/48/4
f 38/46/7 14/45/7 107/153/7 109/140/7
f 47/99/12 28/84/12 108/139/12 110/136/12
f 28/84/12 38/46/12 109/140/12 108/139/12
f 15/100/12 47/99/12 110/136/12 101/135/12
f 91/134/13 100/133/13 105/62/13 106/98/13
f 95/146/13 97/145/13 104/43/13 103/63/13
f 100/133/13 95/146/13 103/63/13 105/62/13
f 97/145/20 94/148/20 102/44/20 104/43/20
f 176/150/21 179/41/21 102/42/21 94/151/21
f 166/18/9 180/149/9 117/152/9 3/19/9
f 33/20/18 3/19/18 117/147/18 119/144/18
f 42/74/13 23/73/13 118/143/13 120/132/13
f 23/73/13 33/20/13 119/144/13 118/143/13
f 4/15/13 42/74/13 120/132/13 111/131/13
f 93/138/12 99/137/12 115/67/12 116/91/12
f 96/142/12 98/141/12 114/21/12 113/68/12
f 99/137/12 96/142/12 113/68/12 115/67/12
f 98/141/6 92/154/6 112/22/6 114/21/6
f 177/156/4 181/13/4 111/16/4 91/157/4
f 160/159/4 164/160/4 142/161/4 138/162/4
f 149/163/9 163/164/9 141/165/9 122/166/9
f 159/167/21 162/168/21 140/169/21 137/170/21
f 153/171/4 161/172/4 139/173/4 128/174/4
f 161/172/4 160/159/4 138/162/4 139/173/4
f 163/164/9 159/167/9 137/170/9 141/165/9
f 144/175/5 158/176/5 136/177/5 124/178/5
f 165/179/3 186/180/3 135/181/3 121/182/3
f 184/183/3 185/184/3 134/185/3 132/186/3
f 156/187/5 157/188/5 133/189/5 131/190/5
f 186/180/3 184/183/3 132/186/3 135/181/3
f 158/176/5 156/187/5 131/190/5 136/177/5
f 151/191/9 155/192/9 130/193/9 126/194/9
f 148/195/4 154/196/4 129/197/4 121/198/4
f 150/199/4 153/171/4 128/174/4 125/200/4
f 162/168/9 152/201/9 127/202/9 140/169/9
f 152/201/9 151/191/9 126/194/9 127/202/9
f 154/196/4 150/199/4 125/200/4 129/197/4
f 157/188/5 149/163/5 122/166/5 133/189/5
f 164/160/4 144/175/4 124/178/4 142/161/4
f 185/184/3 182/203/3 123/204/3 134/185/3
f 155/192/1 143/205/1 123/206/1 130/193/1
f 20/207/1 5/208/1 143/205/1 155/192/1
f 116/209/4 2/92/4 144/175/4 164/160/4
f 32/24/5 1/23/5 149/163/5 157/188/5
f 17/210/4 9/211/4 150/199/4 154/196/4
f 14/212/9 12/213/9 151/191/9 152/201/9
f 107/214/9 14/212/9 152/201/9 162/168/9
f 9/211/4 15/215/4 153/171/4 150/199/4
f 6/216/22 17/210/22 154/196/22 148/195/22
f 12/213/9 20/207/9 155/192/9 151/191/9
f 41/70/5 21/69/5 156/187/5 158/176/5
f 21/69/5 32/24/5 157/188/5 156/187/5
f 2/92/5 41/70/5 158/176/5 144/175/5
f 112/217/9 92/218/9 159/167/9 163/164/9
f 101/219/4 93/220/4 160/159/4 161/172/4
f 15/215/4 101/219/4 161/172/4 153/171/4
f 92/218/21 107/214/21 162/168/21 159/167/21
f 1/23/9 112/217/9 163/164/9 149/163/9
f 93/220/4 116/209/4 164/160/4 160/159/4
f 121/182/3 135/181/3 147/75/3 148/89/3
f 132/186/3 134/185/3 146/9/3 145/76/3
f 135/181/3 132/186/3 145/76/3 147/75/3
f 134/185/3 123/204/3 143/10/3 146/9/3
f 31/221/3 7/222/3 182/203/3 185/184/3
f 50/223/3 22/224/3 184/183/3 186/180/3
f 22/224/3 31/221/3 185/184/3 184/183/3
f 8/225/3 50/223/3 186/180/3 165/179/3
f 138/162/4 142/161/4 181/13/4 177/156/4
f 122/166/9 141/165/9 180/149/9 166/18/9
f 137/170/21 140/169/21 179/41/21 176/150/21
f 128/174/4 139/173/4 178/155/4 170/47/4
f 139/173/4 138/162/4 177/156/4 178/155/4
f 141/165/9 137/170/9 176/150/9 180/149/9
f 124/178/5 136/177/5 175/71/5 183/14/5
f 131/190/5 133/189/5 174/17/5 173/72/5
f 136/177/5 131/190/5 173/72/5 175/71/5
f 126/194/9 130/193/9 172/1/9 168/38/9
f 121/198/4 129/197/4 171/29/4 165/49/4
f 125/200/4 128/174/4 170/47/4 167/30/4
f 140/169/9 127/202/9 169/37/9 179/41/9
f 127/202/9 126/194/9 168/38/9 169/37/9
f 129/197/4 125/200/4 167/30/4 171/29/4
f 133/189/5 122/166/5 166/18/5 174/17/5
f 142/161/4 124/178/4 183/14/4 181/13/4
f 130/193/1 123/206/1 182/2/1 172/1/1
