# Blender v2.81 (sub 16) OBJ File: ''
# www.blender.org
mtllib Test_SegmentedPosts.mtl
g Test_10_Cuts
v -11.000000 0.000000 1.000000
v -11.000000 20.000000 1.000000
v -11.000000 0.000000 -1.000000
v -11.000000 20.000000 -1.000000
v -9.000000 0.000000 1.000000
v -9.000000 20.000000 1.000000
v -9.000000 0.000000 -1.000000
v -9.000000 20.000000 -1.000000
v -11.000000 1.818182 1.000000
v -11.000000 3.636364 1.000000
v -11.000000 5.454545 1.000000
v -11.000000 7.272727 1.000000
v -11.000000 9.090909 1.000000
v -11.000000 10.909091 1.000000
v -11.000000 12.727273 1.000000
v -11.000000 14.545454 1.000000
v -11.000000 16.363636 1.000000
v -11.000000 18.181818 1.000000
v -11.000000 18.181818 -1.000000
v -11.000000 16.363636 -1.000000
v -11.000000 14.545454 -1.000000
v -11.000000 12.727272 -1.000000
v -11.000000 10.909091 -1.000000
v -11.000000 9.090909 -1.000000
v -11.000000 7.272727 -1.000000
v -11.000000 5.454545 -1.000000
v -11.000000 3.636364 -1.000000
v -11.000000 1.818182 -1.000000
v -9.000000 18.181818 -1.000000
v -9.000000 16.363636 -1.000000
v -9.000000 14.545454 -1.000000
v -9.000000 12.727272 -1.000000
v -9.000000 10.909091 -1.000000
v -9.000000 9.090909 -1.000000
v -9.000000 7.272727 -1.000000
v -9.000000 5.454545 -1.000000
v -9.000000 3.636364 -1.000000
v -9.000000 1.818182 -1.000000
v -9.000000 18.181818 1.000000
v -9.000000 16.363636 1.000000
v -9.000000 14.545454 1.000000
v -9.000000 12.727272 1.000000
v -9.000000 10.909091 1.000000
v -9.000000 9.090909 1.000000
v -9.000000 7.272727 1.000000
v -9.000000 5.454545 1.000000
v -9.000000 3.636364 1.000000
v -9.000000 1.818182 1.000000
vt 0.602273 0.000000
vt 0.625000 0.000000
vt 0.625000 0.250000
vt 0.602273 0.250000
vt 0.625000 0.500000
vt 0.602273 0.500000
vt 0.625000 0.750000
vt 0.602273 0.750000
vt 0.625000 1.000000
vt 0.602273 1.000000
vt 0.125000 0.500000
vt 0.375000 0.500000
vt 0.375000 0.750000
vt 0.125000 0.750000
vt 0.875000 0.500000
vt 0.875000 0.750000
vt 0.397727 0.750000
vt 0.397727 1.000000
vt 0.375000 1.000000
vt 0.420455 0.750000
vt 0.420455 1.000000
vt 0.443182 0.750000
vt 0.443182 1.000000
vt 0.465909 0.750000
vt 0.465909 1.000000
vt 0.488636 0.750000
vt 0.488636 1.000000
vt 0.511364 0.750000
vt 0.511364 1.000000
vt 0.534091 0.750000
vt 0.534091 1.000000
vt 0.556818 0.750000
vt 0.556818 1.000000
vt 0.579545 0.750000
vt 0.579545 1.000000
vt 0.397727 0.500000
vt 0.420455 0.500000
vt 0.443182 0.500000
vt 0.465909 0.500000
vt 0.488636 0.500000
vt 0.511364 0.500000
vt 0.534091 0.500000
vt 0.556818 0.500000
vt 0.579545 0.500000
vt 0.375000 0.250000
vt 0.397727 0.250000
vt 0.420455 0.250000
vt 0.443182 0.250000
vt 0.465909 0.250000
vt 0.488636 0.250000
vt 0.511364 0.250000
vt 0.534091 0.250000
vt 0.556818 0.250000
vt 0.579545 0.250000
vt 0.375000 0.000000
vt 0.397727 0.000000
vt 0.420455 0.000000
vt 0.443182 0.000000
vt 0.465909 0.000000
vt 0.488636 0.000000
vt 0.511364 0.000000
vt 0.534091 0.000000
vt 0.556818 0.000000
vt 0.579545 0.000000
vn -1.0000 0.0000 0.0000
vn 0.0000 0.0000 -1.0000
vn 1.0000 0.0000 0.0000
vn 0.0000 0.0000 1.0000
vn 0.0000 -1.0000 0.0000
vn 0.0000 1.0000 0.0000
usemtl None
s off
f 18/1/1 2/2/1 4/3/1 19/4/1
f 19/4/2 4/3/2 8/5/2 29/6/2
f 29/6/3 8/5/3 6/7/3 39/8/3
f 39/8/4 6/7/4 2/9/4 18/10/4
f 3/11/5 7/12/5 5/13/5 1/14/5
f 8/5/6 4/15/6 2/16/6 6/7/6
f 5/13/4 48/17/4 9/18/4 1/19/4
f 48/17/4 47/20/4 10/21/4 9/18/4
f 47/20/4 46/22/4 11/23/4 10/21/4
f 46/22/4 45/24/4 12/25/4 11/23/4
f 45/24/4 44/26/4 13/27/4 12/25/4
f 44/26/4 43/28/4 14/29/4 13/27/4
f 43/28/4 42/30/4 15/31/4 14/29/4
f 42/30/4 41/32/4 16/33/4 15/31/4
f 41/32/4 40/34/4 17/35/4 16/33/4
f 40/34/4 39/8/4 18/10/4 17/35/4
f 7/12/3 38/36/3 48/17/3 5/13/3
f 38/36/3 37/37/3 47/20/3 48/17/3
f 37/37/3 36/38/3 46/22/3 47/20/3
f 36/38/3 35/39/3 45/24/3 46/22/3
f 35/39/3 34/40/3 44/26/3 45/24/3
f 34/40/3 33/41/3 43/28/3 44/26/3
f 33/41/3 32/42/3 42/30/3 43/28/3
f 32/42/3 31/43/3 41/32/3 42/30/3
f 31/43/3 30/44/3 40/34/3 41/32/3
f 30/44/3 29/6/3 39/8/3 40/34/3
f 3/45/2 28/46/2 38/36/2 7/12/2
f 28/46/2 27/47/2 37/37/2 38/36/2
f 27/47/2 26/48/2 36/38/2 37/37/2
f 26/48/2 25/49/2 35/39/2 36/38/2
f 25/49/2 24/50/2 34/40/2 35/39/2
f 24/50/2 23/51/2 33/41/2 34/40/2
f 23/51/2 22/52/2 32/42/2 33/41/2
f 22/52/2 21/53/2 31/43/2 32/42/2
f 21/53/2 20/54/2 30/44/2 31/43/2
f 20/54/2 19/4/2 29/6/2 30/44/2
f 1/55/1 9/56/1 28/46/1 3/45/1
f 9/56/1 10/57/1 27/47/1 28/46/1
f 10/57/1 11/58/1 26/48/1 27/47/1
f 11/58/1 12/59/1 25/49/1 26/48/1
f 12/59/1 13/60/1 24/50/1 25/49/1
f 13/60/1 14/61/1 23/51/1 24/50/1
f 14/61/1 15/62/1 22/52/1 23/51/1
f 15/62/1 16/63/1 21/53/1 22/52/1
f 16/63/1 17/64/1 20/54/1 21/53/1
f 17/64/1 18/1/1 19/4/1 20/54/1
g Test_5_Cuts
v -1.000000 0.000000 1.000000
v -1.000000 20.000000 1.000000
v -1.000000 0.000000 -1.000000
v -1.000000 20.000000 -1.000000
v 1.000000 0.000000 1.000000
v 1.000000 20.000000 1.000000
v 1.000000 0.000000 -1.000000
v 1.000000 20.000000 -1.000000
v -1.000000 3.333334 1.000000
v -1.000000 6.666667 1.000000
v -1.000000 10.000000 1.000000
v -1.000000 13.333334 1.000000
v -1.000000 16.666668 1.000000
v -1.000000 16.666666 -1.000000
v -1.000000 13.333333 -1.000000
v -1.000000 10.000000 -1.000000
v -1.000000 6.666666 -1.000000
v -1.000000 3.333333 -1.000000
v 1.000000 16.666666 -1.000000
v 1.000000 13.333333 -1.000000
v 1.000000 10.000000 -1.000000
v 1.000000 6.666666 -1.000000
v 1.000000 3.333333 -1.000000
v 1.000000 16.666666 1.000000
v 1.000000 13.333333 1.000000
v 1.000000 10.000000 1.000000
v 1.000000 6.666666 1.000000
v 1.000000 3.333333 1.000000
vt 0.583333 0.000000
vt 0.625000 0.000000
vt 0.625000 0.250000
vt 0.583333 0.250000
vt 0.625000 0.500000
vt 0.583333 0.500000
vt 0.625000 0.750000
vt 0.583333 0.750000
vt 0.625000 1.000000
vt 0.583333 1.000000
vt 0.125000 0.500000
vt 0.375000 0.500000
vt 0.375000 0.750000
vt 0.125000 0.750000
vt 0.875000 0.500000
vt 0.875000 0.750000
vt 0.416667 0.750000
vt 0.416667 1.000000
vt 0.375000 1.000000
vt 0.458333 0.750000
vt 0.458333 1.000000
vt 0.500000 0.750000
vt 0.500000 1.000000
vt 0.541667 0.750000
vt 0.541667 1.000000
vt 0.416667 0.500000
vt 0.458333 0.500000
vt 0.500000 0.500000
vt 0.541667 0.500000
vt 0.375000 0.250000
vt 0.416667 0.250000
vt 0.458333 0.250000
vt 0.500000 0.250000
vt 0.541667 0.250000
vt 0.375000 0.000000
vt 0.416667 0.000000
vt 0.458333 0.000000
vt 0.500000 0.000000
vt 0.541667 0.000000
vn -1.0000 0.0000 0.0000
vn 0.0000 0.0000 -1.0000
vn 1.0000 0.0000 0.0000
vn 0.0000 0.0000 1.0000
vn 0.0000 -1.0000 0.0000
vn 0.0000 1.0000 0.0000
usemtl None
s off
f 61/65/7 50/66/7 52/67/7 62/68/7
f 62/68/8 52/67/8 56/69/8 67/70/8
f 67/70/9 56/69/9 54/71/9 72/72/9
f 72/72/10 54/71/10 50/73/10 61/74/10
f 51/75/11 55/76/11 53/77/11 49/78/11
f 56/69/12 52/79/12 50/80/12 54/71/12
f 53/77/10 76/81/10 57/82/10 49/83/10
f 76/81/10 75/84/10 58/85/10 57/82/10
f 75/84/10 74/86/10 59/87/10 58/85/10
f 74/86/10 73/88/10 60/89/10 59/87/10
f 73/88/10 72/72/10 61/74/10 60/89/10
f 55/76/9 71/90/9 76/81/9 53/77/9
f 71/90/9 70/91/9 75/84/9 76/81/9
f 70/91/9 69/92/9 74/86/9 75/84/9
f 69/92/9 68/93/9 73/88/9 74/86/9
f 68/93/9 67/70/9 72/72/9 73/88/9
f 51/94/8 66/95/8 71/90/8 55/76/8
f 66/95/8 65/96/8 70/91/8 71/90/8
f 65/96/8 64/97/8 69/92/8 70/91/8
f 64/97/8 63/98/8 68/93/8 69/92/8
f 63/98/8 62/68/8 67/70/8 68/93/8
f 49/99/7 57/100/7 66/95/7 51/94/7
f 57/100/7 58/101/7 65/96/7 66/95/7
f 58/101/7 59/102/7 64/97/7 65/96/7
f 59/102/7 60/103/7 63/98/7 64/97/7
f 60/103/7 61/65/7 62/68/7 63/98/7
g Test_2_Cuts
v 9.000000 0.000000 1.000000
v 9.000000 20.000000 1.000000
v 9.000000 0.000000 -1.000000
v 9.000000 20.000000 -1.000000
v 11.000000 0.000000 1.000000
v 11.000000 20.000000 1.000000
v 11.000000 0.000000 -1.000000
v 11.000000 20.000000 -1.000000
v 9.000000 6.666667 1.000000
v 9.000000 13.333333 1.000000
v 9.000000 13.333333 -1.000000
v 9.000000 6.666667 -1.000000
v 11.000000 13.333333 -1.000000
v 11.000000 6.666667 -1.000000
v 11.000000 13.333333 1.000000
v 11.000000 6.666667 1.000000
vt 0.541667 0.000000
vt 0.625000 0.000000
vt 0.625000 0.250000
vt 0.541667 0.250000
vt 0.625000 0.500000
vt 0.541667 0.500000
vt 0.625000 0.750000
vt 0.541667 0.750000
vt 0.625000 1.000000
vt 0.541667 1.000000
vt 0.125000 0.500000
vt 0.375000 0.500000
vt 0.375000 0.750000
vt 0.125000 0.750000
vt 0.875000 0.500000
vt 0.875000 0.750000
vt 0.458333 0.750000
vt 0.458333 1.000000
vt 0.375000 1.000000
vt 0.458333 0.500000
vt 0.375000 0.250000
vt 0.458333 0.250000
vt 0.375000 0.000000
vt 0.458333 0.000000
vn -1.0000 0.0000 0.0000
vn 0.0000 0.0000 -1.0000
vn 1.0000 0.0000 0.0000
vn 0.0000 0.0000 1.0000
vn 0.0000 -1.0000 0.0000
vn 0.0000 1.0000 0.0000
usemtl None
s off
f 86/104/13 78/105/13 80/106/13 87/107/13
f 87/107/14 80/106/14 84/108/14 89/109/14
f 89/109/15 84/108/15 82/110/15 91/111/15
f 91/111/16 82/110/16 78/112/16 86/113/16
f 79/114/17 83/115/17 81/116/17 77/117/17
f 84/108/18 80/118/18 78/119/18 82/110/18
f 81/116/16 92/120/16 85/121/16 77/122/16
f 92/120/16 91/111/16 86/113/16 85/121/16
f 83/115/15 90/123/15 92/120/15 81/116/15
f 90/123/15 89/109/15 91/111/15 92/120/15
f 79/124/14 88/125/14 90/123/14 83/115/14
f 88/125/14 87/107/14 89/109/14 90/123/14
f 77/126/13 85/127/13 88/125/13 79/124/13
f 85/127/13 86/104/13 87/107/13 88/125/13
